<?xml version="1.0" encoding="UTF-8" standalone="no"?>
<svg
   xmlns:dc="http://purl.org/dc/elements/1.1/"
   xmlns:cc="http://creativecommons.org/ns#"
   xmlns:rdf="http://www.w3.org/1999/02/22-rdf-syntax-ns#"
   xmlns:svg="http://www.w3.org/2000/svg"
   xmlns="http://www.w3.org/2000/svg"
   xmlns:xlink="http://www.w3.org/1999/xlink"
   xmlns:sodipodi="http://sodipodi.sourceforge.net/DTD/sodipodi-0.dtd"
   xmlns:inkscape="http://www.inkscape.org/namespaces/inkscape"
   width="1000mm"
   height="210mm"
   viewBox="0 0 1000 210"
   version="1.1"
   id="svg844"
   inkscape:version="1.0.2-2 (e86c870879, 2021-01-15)"
   sodipodi:docname="grassAndTrees.svg">
  <defs
     id="defs838" />
  <sodipodi:namedview
     id="base"
     pagecolor="#ffffff"
     bordercolor="#666666"
     borderopacity="1.0"
     inkscape:pageopacity="0.0"
     inkscape:pageshadow="2"
     inkscape:zoom="0.38"
     inkscape:cx="1756.4836"
     inkscape:cy="512.65097"
     inkscape:document-units="mm"
     inkscape:current-layer="layer1"
     inkscape:document-rotation="0"
     showgrid="false"
     width="1000mm"
     inkscape:window-width="1920"
     inkscape:window-height="1017"
     inkscape:window-x="-8"
     inkscape:window-y="-8"
     inkscape:window-maximized="1"
     inkscape:snap-nodes="false" />
  <metadata
     id="metadata841">
    <rdf:RDF>
      <cc:Work
         rdf:about="">
        <dc:format>image/svg+xml</dc:format>
        <dc:type
           rdf:resource="http://purl.org/dc/dcmitype/StillImage" />
        <dc:title />
      </cc:Work>
    </rdf:RDF>
  </metadata>
  <g
     inkscape:label="Layer 1"
     inkscape:groupmode="layer"
     id="layer1">
    <rect
       style="fill:#00ecff;fill-opacity:1;fill-rule:evenodd;stroke-width:0.260525"
       id="rect23"
       width="897.44952"
       height="118.63575"
       x="-0.42674789"
       y="91.750671"
       ry="0.82673001"
       inkscape:export-filename="D:\github\personal-page\images\grassAndTrees.png"
       inkscape:export-xdpi="217.383"
       inkscape:export-ydpi="217.383" />
    <g
       id="g1558"
       transform="matrix(0.21820039,0,0,0.21925552,830.21979,125.26417)"
       inkscape:export-filename="D:\github\personal-page\images\grassAndTrees.png"
       inkscape:export-xdpi="217.383"
       inkscape:export-ydpi="217.383">
      <g
         id="g1505"
         transform="translate(-38.639645,73.218853)">
        <rect
           style="fill:#ffb000;fill-opacity:1;fill-rule:evenodd;stroke-width:0.264583"
           id="rect1501"
           width="5.8941803"
           height="1.440801"
           x="81.339729"
           y="103.73762"
           ry="0.72040051" />
        <rect
           style="fill:#ffb000;fill-opacity:1;fill-rule:evenodd;stroke-width:0.264583"
           id="rect1503"
           width="2.2266915"
           height="20.695131"
           x="82.780533"
           y="83.566414"
           ry="0.85349554" />
      </g>
      <path
         id="path1507"
         style="fill:#83572c;fill-opacity:1;stroke-width:0;stroke-dasharray:none"
         d="m 65.119796,125.19622 a 11.293126,6.5586469 54.410817 0 0 -7.69645,-2.1039 l -40.242796,2.66254 16.431644,4.90899 -16.435985,5.00152 21.041698,2.89503 -12.467094,9.87342 39.543443,-6.11184 a 11.293126,6.5586469 54.410817 0 0 6.20081,-3.03068 l -4.58971,-3.67643 -0.002,-0.003 4.59229,3.67583 a 11.293126,6.5586469 54.410817 0 0 -6.30963,-14.03826 11.293126,6.5586469 54.410817 0 0 -0.0665,-0.0533 z" />
      <path
         id="path1509"
         style="fill:#727141;fill-opacity:1;stroke-width:0;stroke-dasharray:none"
         d="m 72.055401,139.68693 -9.118822,0.005 H 72.0523 a 12.378088,33.427117 44.440317 0 0 0.0031,-0.005 z" />
      <path
         id="path1511"
         style="fill:#727141;fill-opacity:1;stroke-width:0;stroke-dasharray:none"
         d="m 76.113551,126.33633 a 10.56935,18.779649 42.924994 0 1 0.05633,0.0636 10.56935,18.779649 42.924994 0 1 0.07648,0.0899 10.56935,18.779649 42.924994 0 1 0.07441,0.091 10.56935,18.779649 42.924994 0 1 0.07286,0.093 10.56935,18.779649 42.924994 0 1 0.07131,0.0946 10.56935,18.779649 42.924994 0 1 0.06977,0.0961 10.56935,18.779649 42.924994 0 1 0.06821,0.0977 10.56935,18.779649 42.924994 0 1 0.06615,0.0987 10.56935,18.779649 42.924994 0 1 0.06459,0.10077 10.56935,18.779649 42.924994 0 1 0.06305,0.10232 10.56935,18.779649 42.924994 0 1 0.06098,0.10387 10.56935,18.779649 42.924994 0 1 0.05943,0.10542 10.56935,18.779649 42.924994 0 1 0.05788,0.10697 10.56935,18.779649 42.924994 0 1 0.05633,0.108 10.56935,18.779649 42.924994 0 1 0.05426,0.11008 10.56935,18.779649 42.924994 0 1 0.05271,0.1111 10.56935,18.779649 42.924994 0 1 0.0093,0.0207 12.378088,33.427117 44.440317 0 0 0.262517,-2.59209 z" />
      <g
         id="g1517"
         transform="matrix(0.87172672,0,0,0.93551755,-28.663319,82.924619)">
        <path
           id="path1513"
           style="fill:#bd3f35;fill-opacity:1;stroke-width:0;stroke-dasharray:none"
           d="m 120.3849,45.903578 a 10.56935,18.779649 42.924994 0 0 -0.0176,-0.01964 10.56935,18.779649 42.924994 0 0 -0.0796,-0.0863 10.56935,18.779649 42.924994 0 0 -0.0811,-0.08475 10.56935,18.779649 42.924994 0 0 -0.0827,-0.0832 10.56935,18.779649 42.924994 0 0 -0.0842,-0.08113 10.56935,18.779649 42.924994 0 0 -0.0858,-0.07958 10.56935,18.779649 42.924994 0 0 -0.0873,-0.07803 10.56935,18.779649 42.924994 0 0 -0.0889,-0.07648 10.56935,18.779649 42.924994 0 0 -0.091,-0.07441 10.56935,18.779649 42.924994 0 0 -0.092,-0.07286 10.56935,18.779649 42.924994 0 0 -0.0935,-0.0708 10.56935,18.779649 42.924994 0 0 -0.0951,-0.06976 10.56935,18.779649 42.924994 0 0 -0.0966,-0.0677 10.56935,18.779649 42.924994 0 0 -0.0977,-0.06563 10.56935,18.779649 42.924994 0 0 -0.0997,-0.06408 10.56935,18.779649 42.924994 0 0 -0.10077,-0.06253 10.56935,18.779649 42.924994 0 0 -0.10232,-0.06046 10.56935,18.779649 42.924994 0 0 -0.10387,-0.05891 10.56935,18.779649 42.924994 0 0 -0.10541,-0.05684 10.56935,18.779649 42.924994 0 0 -0.10697,-0.05529 10.56935,18.779649 42.924994 0 0 -0.10801,-0.05323 10.56935,18.779649 42.924994 0 0 -0.10955,-0.05168 10.56935,18.779649 42.924994 0 0 -0.11059,-0.04961 10.56935,18.779649 42.924994 0 0 -0.11214,-0.04754 10.56935,18.779649 42.924994 0 0 -0.11369,-0.04651 10.56935,18.779649 42.924994 0 0 -0.11472,-0.04392 10.56935,18.779649 42.924994 0 0 -0.11627,-0.04238 10.56935,18.779649 42.924994 0 0 -0.11782,-0.04082 10.56935,18.779649 42.924994 0 0 -0.11834,-0.03824 10.56935,18.779649 42.924994 0 0 -0.12041,-0.03721 10.56935,18.779649 42.924994 0 0 -0.12092,-0.03462 10.56935,18.779649 42.924994 0 0 -0.12299,-0.03307 10.56935,18.779649 42.924994 0 0 -0.12351,-0.03152 10.56935,18.779649 42.924994 0 0 -0.12505,-0.02894 10.56935,18.779649 42.924994 0 0 -0.12609,-0.0279 10.56935,18.779649 42.924994 0 0 -0.12765,-0.02532 10.56935,18.779649 42.924994 0 0 -0.12815,-0.02377 10.56935,18.779649 42.924994 0 0 -0.12971,-0.0217 10.56935,18.779649 42.924994 0 0 -0.13074,-0.02016 10.56935,18.779649 42.924994 0 0 -0.13229,-0.01757 10.56935,18.779649 42.924994 0 0 -0.13281,-0.01654 10.56935,18.779649 42.924994 0 0 -0.13436,-0.01395 10.56935,18.779649 42.924994 0 0 -0.13488,-0.0124 10.56935,18.779649 42.924994 0 0 -0.13642,-0.01033 10.56935,18.779649 42.924994 0 0 -0.13746,-0.0088 10.56935,18.779649 42.924994 0 0 -0.13798,-0.0062 10.56935,18.779649 42.924994 0 0 -0.13952,-0.0047 10.56935,18.779649 42.924994 0 0 -0.14005,-0.0031 10.56935,18.779649 42.924994 0 0 -0.14159,-10e-4 10.56935,18.779649 42.924994 0 0 -0.10645,10e-4 10.56935,18.779649 42.924994 0 0 -0.14315,0.0021 10.56935,18.779649 42.924994 0 0 -0.14366,0.0047 10.56935,18.779649 42.924994 0 0 -0.14469,0.0062 10.56935,18.779649 42.924994 0 0 -0.14573,0.0083 10.56935,18.779649 42.924994 0 0 -0.14624,0.0098 10.56935,18.779649 42.924994 0 0 -0.14728,0.01189 10.56935,18.779649 42.924994 0 0 -0.14831,0.01395 10.56935,18.779649 42.924994 0 0 -0.14883,0.01602 10.56935,18.779649 42.924994 0 0 -0.14986,0.01757 10.56935,18.779649 42.924994 0 0 -0.15038,0.01964 10.56935,18.779649 42.924994 0 0 -0.15141,0.02119 10.56935,18.779649 42.924994 0 0 -0.15193,0.02325 10.56935,18.779649 42.924994 0 0 -0.15296,0.02532 10.56935,18.779649 42.924994 0 0 -0.15348,0.02687 10.56935,18.779649 42.924994 0 0 -0.154,0.02946 10.56935,18.779649 42.924994 0 0 -0.15503,0.03049 10.56935,18.779649 42.924994 0 0 -0.15503,0.03307 10.56935,18.779649 42.924994 0 0 -0.15606,0.03462 10.56935,18.779649 42.924994 0 0 -0.1571,0.03617 10.56935,18.779649 42.924994 0 0 -0.15709,0.03824 10.56935,18.779649 42.924994 0 0 -0.15762,0.04031 10.56935,18.779649 42.924994 0 0 -0.15864,0.04186 10.56935,18.779649 42.924994 0 0 -0.15865,0.04392 10.56935,18.779649 42.924994 0 0 -0.15968,0.04599 10.56935,18.779649 42.924994 0 0 -0.15968,0.04754 10.56935,18.779649 42.924994 0 0 -0.16071,0.04909 10.56935,18.779649 42.924994 0 0 -0.16072,0.05116 10.56935,18.779649 42.924994 0 0 -0.16123,0.05323 10.56935,18.779649 42.924994 0 0 -0.16174,0.05478 10.56935,18.779649 42.924994 0 0 -0.16175,0.05684 10.56935,18.779649 42.924994 0 0 -0.16226,0.0584 10.56935,18.779649 42.924994 0 0 -0.16279,0.05994 10.56935,18.779649 42.924994 0 0 -0.16329,0.06201 10.56935,18.779649 42.924994 0 0 -0.1633,0.06408 10.56935,18.779649 42.924994 0 0 -0.16381,0.06563 10.56935,18.779649 42.924994 0 0 -0.16382,0.06718 10.56935,18.779649 42.924994 0 0 -0.16433,0.06873 10.56935,18.779649 42.924994 0 0 -0.16433,0.0708 10.56935,18.779649 42.924994 0 0 -0.16485,0.07286 10.56935,18.779649 42.924994 0 0 -0.16485,0.0739 10.56935,18.779649 42.924994 0 0 -0.16485,0.07596 10.56935,18.779649 42.924994 0 0 -0.16536,0.07803 10.56935,18.779649 42.924994 0 0 -0.16536,0.07906 10.56935,18.779649 42.924994 0 0 -0.16537,0.08113 10.56935,18.779649 42.924994 0 0 -0.16536,0.08268 10.56935,18.779649 42.924994 0 0 -0.16537,0.08423 10.56935,18.779649 42.924994 0 0 -0.16588,0.0863 10.56935,18.779649 42.924994 0 0 -0.16536,0.08785 10.56935,18.779649 42.924994 0 0 -0.16589,0.08888 10.56935,18.779649 42.924994 0 0 -0.16536,0.09095 10.56935,18.779649 42.924994 0 0 -0.16588,0.09302 10.56935,18.779649 42.924994 0 0 -0.16537,0.09405 10.56935,18.779649 42.924994 0 0 -0.16536,0.0956 10.56935,18.779649 42.924994 0 0 -0.16537,0.09715 10.56935,18.779649 42.924994 0 0 -0.16536,0.09922 10.56935,18.779649 42.924994 0 0 -0.16536,0.100254 10.56935,18.779649 42.924994 0 0 -0.16485,0.101801 10.56935,18.779649 42.924994 0 0 -0.16485,0.10387 10.56935,18.779649 42.924994 0 0 -0.16433,0.104904 10.56935,18.779649 42.924994 0 0 -0.16485,0.106453 10.56935,18.779649 42.924994 0 0 -0.16381,0.108003 10.56935,18.779649 42.924994 0 0 -0.16382,0.109556 10.56935,18.779649 42.924994 0 0 -0.16381,0.111104 10.56935,18.779649 42.924994 0 0 -0.1633,0.112138 10.56935,18.779649 42.924994 0 0 -0.16278,0.113686 10.56935,18.779649 42.924994 0 0 -0.16278,0.115755 10.56935,18.779649 42.924994 0 0 -0.16226,0.116274 10.56935,18.779649 42.924994 0 0 -0.16227,0.118338 10.56935,18.779649 42.924994 0 0 -0.16123,0.119372 10.56935,18.779649 42.924994 0 0 -0.16123,0.120925 10.56935,18.779649 42.924994 0 0 -0.16071,0.121954 10.56935,18.779649 42.924994 0 0 -0.1602,0.123508 10.56935,18.779649 42.924994 0 0 -0.15968,0.124539 10.56935,18.779649 42.924994 0 0 -0.15916,0.126609 10.56935,18.779649 42.924994 0 0 -0.15865,0.127124 10.56935,18.779649 42.924994 0 0 -0.15813,0.128672 10.56935,18.779649 42.924994 0 0 -0.15813,0.129709 10.56935,18.779649 42.924994 0 0 -0.1571,0.131258 10.56935,18.779649 42.924994 0 0 -0.15606,0.132291 10.56935,18.779649 42.924994 0 0 -0.15606,0.133842 10.56935,18.779649 42.924994 0 0 -0.15503,0.134877 10.56935,18.779649 42.924994 0 0 -0.15503,0.135909 10.56935,18.779649 42.924994 0 0 -0.15348,0.136943 10.56935,18.779649 42.924994 0 0 -0.15348,0.138493 10.56935,18.779649 42.924994 0 0 -0.15245,0.139525 10.56935,18.779649 42.924994 0 0 -0.15192,0.140044 10.56935,18.779649 42.924994 0 0 -0.1509,0.141592 10.56935,18.779649 42.924994 0 0 -0.15038,0.143145 10.56935,18.779649 42.924994 0 0 -0.14934,0.143661 10.56935,18.779649 42.924994 0 0 -0.14883,0.144693 10.56935,18.779649 42.924994 0 0 -0.14779,0.145727 10.56935,18.779649 42.924994 0 0 -0.14729,0.146762 10.56935,18.779649 42.924994 0 0 -0.14624,0.147793 10.56935,18.779649 42.924994 0 0 -0.145213,0.148828 10.56935,18.779649 42.924994 0 0 -0.144693,0.149347 10.56935,18.779649 42.924994 0 0 -0.143144,0.150894 10.56935,18.779649 42.924994 0 0 -0.142627,0.151414 10.56935,18.779649 42.924994 0 0 -0.14211,0.152445 10.56935,18.779649 42.924994 0 0 -0.14056,0.15296 10.56935,18.779649 42.924994 0 0 -0.139525,0.154514 10.56935,18.779649 42.924994 0 0 -0.13901,0.155028 10.56935,18.779649 42.924994 0 0 -0.137461,0.155546 10.56935,18.779649 42.924994 0 0 -0.136941,0.15658 10.56935,18.779649 42.924994 0 0 -0.135392,0.157612 10.56935,18.779649 42.924994 0 0 -0.134877,0.158131 10.56935,18.779649 42.924994 0 0 -0.133324,0.158647 10.56935,18.779649 42.924994 0 0 -0.132291,0.159681 10.56935,18.779649 42.924994 0 0 -0.131776,0.160198 10.56935,18.779649 42.924994 0 0 -0.130225,0.161229 10.56935,18.779649 42.924994 0 0 -0.128675,0.161229 10.56935,18.779649 42.924994 0 0 -0.128156,0.162266 10.56935,18.779649 42.924994 0 0 -0.126609,0.16278 10.56935,18.779649 42.924994 0 0 -0.125574,0.163814 10.56935,18.779649 42.924994 0 0 -0.124023,0.163814 10.56935,18.779649 42.924994 0 0 -0.123505,0.164849 10.56935,18.779649 42.924994 0 0 -0.121441,0.165364 10.56935,18.779649 42.924994 0 0 -0.120923,0.165365 10.56935,18.779649 42.924994 0 0 -0.119372,0.166399 10.56935,18.779649 42.924994 0 0 -0.117821,0.166396 10.56935,18.779649 42.924994 0 0 -0.11679,0.167431 10.56935,18.779649 42.924994 0 0 -0.115755,0.167434 10.56935,18.779649 42.924994 0 0 -0.114205,0.167947 10.56935,18.779649 42.924994 0 0 -0.112654,0.168465 10.56935,18.779649 42.924994 0 0 -0.111623,0.168982 10.56935,18.779649 42.924994 0 0 -0.110069,0.168981 10.56935,18.779649 42.924994 0 0 -0.108521,0.1695 10.56935,18.779649 42.924994 0 0 -0.107487,0.169498 10.56935,18.779649 42.924994 0 0 -0.105937,0.170016 10.56935,18.779649 42.924994 0 0 -0.104386,0.170532 10.56935,18.779649 42.924994 0 0 -0.102836,0.170531 10.56935,18.779649 42.924994 0 0 -0.101803,0.171051 10.56935,18.779649 42.924994 0 0 -0.100251,0.171048 10.56935,18.779649 42.924994 0 0 -0.0987,0.17105 10.56935,18.779649 42.924994 0 0 -0.09715,0.171567 10.56935,18.779649 42.924994 0 0 -0.0956,0.171563 10.56935,18.779649 42.924994 0 0 -0.09405,0.171567 10.56935,18.779649 42.924994 0 0 -0.09302,0.171566 10.56935,18.779649 42.924994 0 0 -0.09095,0.172083 10.56935,18.779649 42.924994 0 0 -0.08992,0.172082 10.56935,18.779649 42.924994 0 0 -0.08785,0.171566 10.56935,18.779649 42.924994 0 0 -0.08682,0.172083 10.56935,18.779649 42.924994 0 0 -0.06356,0.129191 10.56935,18.779649 42.924994 0 0 -0.08423,0.172082 10.56935,18.779649 42.924994 0 0 -0.08217,0.172082 10.56935,18.779649 42.924994 0 0 -0.08062,0.171567 10.56935,18.779649 42.924994 0 0 -0.07855,0.172082 10.56935,18.779649 42.924994 0 0 -0.07752,0.171566 10.56935,18.779649 42.924994 0 0 -0.07596,0.171564 10.56935,18.779649 42.924994 0 0 -0.0739,0.171567 10.56935,18.779649 42.924994 0 0 -0.07234,0.171047 10.56935,18.779649 42.924994 0 0 -0.0708,0.171051 10.56935,18.779649 42.924994 0 0 -0.06925,0.171048 10.56935,18.779649 42.924994 0 0 -0.0677,0.170532 10.56935,18.779649 42.924994 0 0 -0.06563,0.170534 10.56935,18.779649 42.924994 0 0 -0.06408,0.170013 10.56935,18.779649 42.924994 0 0 -0.06253,0.170016 10.56935,18.779649 42.924994 0 0 -0.06046,0.1695 10.56935,18.779649 42.924994 0 0 -0.05891,0.168982 10.56935,18.779649 42.924994 0 0 -0.05736,0.168981 10.56935,18.779649 42.924994 0 0 -0.05581,0.168466 10.56935,18.779649 42.924994 0 0 -0.05374,0.167949 10.56935,18.779649 42.924994 0 0 -0.05168,0.167431 10.56935,18.779649 42.924994 0 0 -0.05064,0.167431 10.56935,18.779649 42.924994 0 0 -0.04858,0.166915 10.56935,18.779649 42.924994 0 0 -0.04651,0.166399 10.56935,18.779649 42.924994 0 0 -0.04547,0.165365 10.56935,18.779649 42.924994 0 0 -0.04289,0.165365 10.56935,18.779649 42.924994 0 0 -0.04186,0.164846 10.56935,18.779649 42.924994 0 0 -0.03979,0.164332 10.56935,18.779649 42.924994 0 0 -0.03772,0.163296 10.56935,18.779649 42.924994 0 0 -0.03617,0.163298 10.56935,18.779649 42.924994 0 0 -0.03411,0.162264 10.56935,18.779649 42.924994 0 0 -0.03256,0.161747 10.56935,18.779649 42.924994 0 0 -0.031,0.161232 10.56935,18.779649 42.924994 0 0 -0.02894,0.160195 10.56935,18.779649 42.924994 0 0 -0.02687,0.159681 10.56935,18.779649 42.924994 0 0 -0.02584,0.159163 10.56935,18.779649 42.924994 0 0 -0.02325,0.158131 10.56935,18.779649 42.924994 0 0 -0.0217,0.157612 10.56935,18.779649 42.924994 0 0 -0.01964,0.157096 10.56935,18.779649 42.924994 0 0 -0.01809,0.155546 10.56935,18.779649 42.924994 0 0 -0.01654,0.155546 10.56935,18.779649 42.924994 0 0 -0.01447,0.153996 10.56935,18.779649 42.924994 0 0 -0.0124,0.153479 10.56935,18.779649 42.924994 0 0 -0.01085,0.152448 10.56935,18.779649 42.924994 0 0 -0.0088,0.151926 10.56935,18.779649 42.924994 0 0 -0.0072,0.150897 10.56935,18.779649 42.924994 0 0 -0.0052,0.14986 10.56935,18.779649 42.924994 0 0 -0.0036,0.148828 10.56935,18.779649 42.924994 0 0 -0.0015,0.147797 10.56935,18.779649 42.924994 0 0 5.16e-4,0.147277 10.56935,18.779649 42.924994 0 0 0.0021,0.145728 10.56935,18.779649 42.924994 0 0 0.0041,0.145211 10.56935,18.779649 42.924994 0 0 0.0057,0.143658 10.56935,18.779649 42.924994 0 0 0.0072,0.143145 10.56935,18.779649 42.924994 0 0 0.0098,0.141594 10.56935,18.779649 42.924994 0 0 0.01137,0.141076 10.56935,18.779649 42.924994 0 0 0.01292,0.139526 10.56935,18.779649 42.924994 0 0 0.01499,0.138493 10.56935,18.779649 42.924994 0 0 0.01654,0.137459 10.56935,18.779649 42.924994 0 0 0.0186,0.135909 10.56935,18.779649 42.924994 0 0 0.02067,0.134876 10.56935,18.779649 42.924994 0 0 0.02222,0.133842 10.56935,18.779649 42.924994 0 0 0.02377,0.132808 10.56935,18.779649 42.924994 0 0 0.02584,0.13126 10.56935,18.779649 42.924994 0 0 0.02791,0.130222 10.56935,18.779649 42.924994 0 0 0.02946,0.129191 10.56935,18.779649 42.924994 0 0 0.03101,0.127643 10.56935,18.779649 42.924994 0 0 0.03307,0.12609 10.56935,18.779649 42.924994 0 0 0.03514,0.125574 10.56935,18.779649 42.924994 0 0 0.03669,0.123507 10.56935,18.779649 42.924994 0 0 0.03824,0.122473 10.56935,18.779649 42.924994 0 0 0.04031,0.120923 10.56935,18.779649 42.924994 0 0 0.04186,0.119888 10.56935,18.779649 42.924994 0 0 0.04393,0.11834 10.56935,18.779649 42.924994 0 0 0.04547,0.116787 10.56935,18.779649 42.924994 0 0 0.04754,0.115755 10.56935,18.779649 42.924994 0 0 0.04909,0.114208 10.56935,18.779649 42.924994 0 0 0.05064,0.112654 10.56935,18.779649 42.924994 0 0 0.05271,0.111104 10.56935,18.779649 42.924994 0 0 0.05426,0.110069 10.56935,18.779649 42.924994 0 0 0.05581,0.108006 10.56935,18.779649 42.924994 0 0 0.05788,0.106968 10.56935,18.779649 42.924994 0 0 0.05942,0.105421 10.56935,18.779649 42.924994 0 0 0.06098,0.10387 10.56935,18.779649 42.924994 0 0 0.06305,0.102319 10.56935,18.779649 42.924994 0 0 0.0646,0.10077 10.56935,18.779649 42.924994 0 0 0.06615,0.09922 10.56935,18.779649 42.924994 0 0 0.06821,0.09767 10.56935,18.779649 42.924994 0 0 0.06925,0.0956 10.56935,18.779649 42.924994 0 0 0.07131,0.09457 10.56935,18.779649 42.924994 0 0 0.07338,0.09302 10.56935,18.779649 42.924994 0 0 0.07441,0.09147 10.56935,18.779649 42.924994 0 0 0.07596,0.0894 10.56935,18.779649 42.924994 0 0 0.07803,0.08785 10.56935,18.779649 42.924994 0 0 0.07958,0.08682 10.56935,18.779649 42.924994 0 0 0.08062,0.08475 10.56935,18.779649 42.924994 0 0 0.08268,0.08268 10.56935,18.779649 42.924994 0 0 0.08423,0.08165 10.56935,18.779649 42.924994 0 0 0.08578,0.07958 10.56935,18.779649 42.924994 0 0 0.08733,0.07803 10.56935,18.779649 42.924994 0 0 0.0894,0.07648 10.56935,18.779649 42.924994 0 0 0.09043,0.07441 10.56935,18.779649 42.924994 0 0 0.09198,0.07286 10.56935,18.779649 42.924994 0 0 0.09354,0.07131 10.56935,18.779649 42.924994 0 0 0.09508,0.06925 10.56935,18.779649 42.924994 0 0 0.09612,0.0677 10.56935,18.779649 42.924994 0 0 0.09819,0.06563 10.56935,18.779649 42.924994 0 0 0.09922,0.0646 10.56935,18.779649 42.924994 0 0 0.101285,0.06201 10.56935,18.779649 42.924994 0 0 0.10232,0.06098 10.56935,18.779649 42.924994 0 0 0.10387,0.0584 10.56935,18.779649 42.924994 0 0 0.105418,0.05736 10.56935,18.779649 42.924994 0 0 0.106455,0.05478 10.56935,18.779649 42.924994 0 0 0.108003,0.05374 10.56935,18.779649 42.924994 0 0 0.109554,0.05168 10.56935,18.779649 42.924994 0 0 0.110587,0.04961 10.56935,18.779649 42.924994 0 0 0.112139,0.04806 10.56935,18.779649 42.924994 0 0 0.113689,0.04599 10.56935,18.779649 42.924994 0 0 0.11472,0.04393 10.56935,18.779649 42.924994 0 0 0.116271,0.04289 10.56935,18.779649 42.924994 0 0 0.117306,0.04031 10.56935,18.779649 42.924994 0 0 0.118856,0.03876 10.56935,18.779649 42.924994 0 0 0.120407,0.03669 10.56935,18.779649 42.924994 0 0 0.120922,0.03514 10.56935,18.779649 42.924994 0 0 0.122473,0.03307 10.56935,18.779649 42.924994 0 0 0.124024,0.03152 10.56935,18.779649 42.924994 0 0 0.125058,0.02894 10.56935,18.779649 42.924994 0 0 0.12609,0.02791 10.56935,18.779649 42.924994 0 0 0.127124,0.02532 10.56935,18.779649 42.924994 0 0 0.128675,0.02377 10.56935,18.779649 42.924994 0 0 0.129706,0.0217 10.56935,18.779649 42.924994 0 0 0.130742,0.02015 10.56935,18.779649 42.924994 0 0 0.131775,0.01809 10.56935,18.779649 42.924994 0 0 0.133327,0.01602 10.56935,18.779649 42.924994 0 0 0.133842,0.01447 10.56935,18.779649 42.924994 0 0 0.135392,0.0124 10.56935,18.779649 42.924994 0 0 0.135909,0.01033 10.56935,18.779649 42.924994 0 0 0.137459,0.0083 10.56935,18.779649 42.924994 0 0 0.137975,0.0067 10.56935,18.779649 42.924994 0 0 0.139528,0.0047 10.56935,18.779649 42.924994 0 0 0.140041,0.0031 10.56935,18.779649 42.924994 0 0 0.141594,0.001 10.56935,18.779649 42.924994 0 0 0.106453,-5.16e-4 10.56935,18.779649 42.924994 0 0 0.143145,-0.0026 10.56935,18.779649 42.924994 0 0 0.143661,-0.0041 10.56935,18.779649 42.924994 0 0 0.144694,-0.0062 10.56935,18.779649 42.924994 0 0 0.14573,-0.0083 10.56935,18.779649 42.924994 0 0 0.14625,-0.0098 10.56935,18.779649 42.924994 0 0 0.14727,-0.0124 10.56935,18.779649 42.924994 0 0 0.14832,-0.01344 10.56935,18.779649 42.924994 0 0 0.14882,-0.01602 10.56935,18.779649 42.924994 0 0 0.14986,-0.01757 10.56935,18.779649 42.924994 0 0 0.15038,-0.01964 10.56935,18.779649 42.924994 0 0 0.15142,-0.02119 10.56935,18.779649 42.924994 0 0 0.15192,-0.02326 10.56935,18.779649 42.924994 0 0 0.15245,-0.02532 10.56935,18.779649 42.924994 0 0 0.15348,-0.02687 10.56935,18.779649 42.924994 0 0 0.15451,-0.02894 10.56935,18.779649 42.924994 0 0 0.15451,-0.03101 10.56935,18.779649 42.924994 0 0 0.15555,-0.03255 10.56935,18.779649 42.924994 0 0 0.15606,-0.03462 10.56935,18.779649 42.924994 0 0 0.15658,-0.03617 10.56935,18.779649 42.924994 0 0 0.1571,-0.03876 10.56935,18.779649 42.924994 0 0 0.15813,-0.03979 10.56935,18.779649 42.924994 0 0 0.15813,-0.04237 10.56935,18.779649 42.924994 0 0 0.15916,-0.04341 10.56935,18.779649 42.924994 0 0 0.15916,-0.04599 10.56935,18.779649 42.924994 0 0 0.15969,-0.04754 10.56935,18.779649 42.924994 0 0 0.16071,-0.04909 10.56935,18.779649 42.924994 0 0 0.16071,-0.05116 10.56935,18.779649 42.924994 0 0 0.16123,-0.05323 10.56935,18.779649 42.924994 0 0 0.16175,-0.05478 10.56935,18.779649 42.924994 0 0 0.16175,-0.05633 10.56935,18.779649 42.924994 0 0 0.16226,-0.0584 10.56935,18.779649 42.924994 0 0 0.16278,-0.06046 10.56935,18.779649 42.924994 0 0 0.10284,-0.03927 12.378088,33.427117 44.440317 0 0 11.70936,-14.470433 h -9.11572 l 9.11882,-0.0052 a 12.378088,33.427117 44.440317 0 0 5.0922,-11.756903 10.56935,18.779649 42.924994 0 0 -0.009,-0.02067 10.56935,18.779649 42.924994 0 0 -0.0527,-0.111104 10.56935,18.779649 42.924994 0 0 -0.0543,-0.110072 10.56935,18.779649 42.924994 0 0 -0.0563,-0.108003 10.56935,18.779649 42.924994 0 0 -0.0579,-0.106971 10.56935,18.779649 42.924994 0 0 -0.0594,-0.105418 10.56935,18.779649 42.924994 0 0 -0.061,-0.10387 10.56935,18.779649 42.924994 0 0 -0.063,-0.10232 10.56935,18.779649 42.924994 0 0 -0.0646,-0.100769 10.56935,18.779649 42.924994 0 0 -0.0661,-0.0987 10.56935,18.779649 42.924994 0 0 -0.0682,-0.09767 10.56935,18.779649 42.924994 0 0 -0.0698,-0.09612 10.56935,18.779649 42.924994 0 0 -0.0713,-0.09457 10.56935,18.779649 42.924994 0 0 -0.0729,-0.09302 10.56935,18.779649 42.924994 0 0 -0.0744,-0.09095 10.56935,18.779649 42.924994 0 0 -0.0765,-0.08992 10.56935,18.779649 42.924994 0 0 -0.0563,-0.06356 L 96.667483,64.176364 Z" />
        <path
           id="path1515"
           style="fill:#9b632c;fill-opacity:1;stroke-width:0;stroke-dasharray:none"
           d="m 115.64358,38.797629 a 12.378088,33.427117 44.440317 0 0 -18.987466,8.85889 12.378088,33.427117 44.440317 0 0 -25.008808,35.801951 12.378088,33.427117 44.440317 0 0 25.020177,-2.733167 12.378088,33.427117 44.440317 0 0 7.947317,-6.97787 10.56935,18.779649 42.924994 0 1 -0.10283,0.03928 10.56935,18.779649 42.924994 0 1 -0.16279,0.06046 10.56935,18.779649 42.924994 0 1 -0.16226,0.0584 10.56935,18.779649 42.924994 0 1 -0.16175,0.05633 10.56935,18.779649 42.924994 0 1 -0.16174,0.05478 10.56935,18.779649 42.924994 0 1 -0.16123,0.05323 10.56935,18.779649 42.924994 0 1 -0.16072,0.05116 10.56935,18.779649 42.924994 0 1 -0.16071,0.04909 10.56935,18.779649 42.924994 0 1 -0.15968,0.04754 10.56935,18.779649 42.924994 0 1 -0.15917,0.04599 10.56935,18.779649 42.924994 0 1 -0.15916,0.04341 10.56935,18.779649 42.924994 0 1 -0.15813,0.04237 10.56935,18.779649 42.924994 0 1 -0.15813,0.03979 10.56935,18.779649 42.924994 0 1 -0.15709,0.03876 10.56935,18.779649 42.924994 0 1 -0.15658,0.03617 10.56935,18.779649 42.924994 0 1 -0.15607,0.03462 10.56935,18.779649 42.924994 0 1 -0.15554,0.03255 10.56935,18.779649 42.924994 0 1 -0.15452,0.03101 10.56935,18.779649 42.924994 0 1 -0.15451,0.02894 10.56935,18.779649 42.924994 0 1 -0.15348,0.02687 10.56935,18.779649 42.924994 0 1 -0.15244,0.02532 10.56935,18.779649 42.924994 0 1 -0.15193,0.02325 10.56935,18.779649 42.924994 0 1 -0.15141,0.02119 10.56935,18.779649 42.924994 0 1 -0.15038,0.01964 10.56935,18.779649 42.924994 0 1 -0.14986,0.01757 10.56935,18.779649 42.924994 0 1 -0.14883,0.01602 10.56935,18.779649 42.924994 0 1 -0.14831,0.01344 10.56935,18.779649 42.924994 0 1 -0.14728,0.0124 10.56935,18.779649 42.924994 0 1 -0.14625,0.0098 10.56935,18.779649 42.924994 0 1 -0.14572,0.0083 10.56935,18.779649 42.924994 0 1 -0.144696,0.0062 10.56935,18.779649 42.924994 0 1 -0.143661,0.0041 10.56935,18.779649 42.924994 0 1 -0.143144,0.0026 10.56935,18.779649 42.924994 0 1 -0.106453,5.16e-4 10.56935,18.779649 42.924994 0 1 -0.141594,-0.001 10.56935,18.779649 42.924994 0 1 -0.140042,-0.0031 10.56935,18.779649 42.924994 0 1 -0.139528,-0.0047 10.56935,18.779649 42.924994 0 1 -0.137975,-0.0067 10.56935,18.779649 42.924994 0 1 -0.137459,-0.0083 10.56935,18.779649 42.924994 0 1 -0.135908,-0.01033 10.56935,18.779649 42.924994 0 1 -0.135393,-0.0124 10.56935,18.779649 42.924994 0 1 -0.133842,-0.01447 10.56935,18.779649 42.924994 0 1 -0.133326,-0.01602 10.56935,18.779649 42.924994 0 1 -0.131776,-0.01809 10.56935,18.779649 42.924994 0 1 -0.130741,-0.02015 10.56935,18.779649 42.924994 0 1 -0.129707,-0.0217 10.56935,18.779649 42.924994 0 1 -0.128674,-0.02377 10.56935,18.779649 42.924994 0 1 -0.127125,-0.02532 10.56935,18.779649 42.924994 0 1 -0.12609,-0.0279 10.56935,18.779649 42.924994 0 1 -0.125058,-0.02894 10.56935,18.779649 42.924994 0 1 -0.124023,-0.03152 10.56935,18.779649 42.924994 0 1 -0.122473,-0.03307 10.56935,18.779649 42.924994 0 1 -0.120922,-0.03514 10.56935,18.779649 42.924994 0 1 -0.120407,-0.03669 10.56935,18.779649 42.924994 0 1 -0.118856,-0.03876 10.56935,18.779649 42.924994 0 1 -0.117306,-0.04031 10.56935,18.779649 42.924994 0 1 -0.116271,-0.04289 10.56935,18.779649 42.924994 0 1 -0.114721,-0.04393 10.56935,18.779649 42.924994 0 1 -0.113688,-0.04599 10.56935,18.779649 42.924994 0 1 -0.112139,-0.04806 10.56935,18.779649 42.924994 0 1 -0.110588,-0.04961 10.56935,18.779649 42.924994 0 1 -0.109553,-0.05168 10.56935,18.779649 42.924994 0 1 -0.108003,-0.05374 10.56935,18.779649 42.924994 0 1 -0.106455,-0.05478 10.56935,18.779649 42.924994 0 1 -0.105418,-0.05736 10.56935,18.779649 42.924994 0 1 -0.10387,-0.0584 10.56935,18.779649 42.924994 0 1 -0.10232,-0.06097 10.56935,18.779649 42.924994 0 1 -0.101285,-0.06201 10.56935,18.779649 42.924994 0 1 -0.09922,-0.0646 10.56935,18.779649 42.924994 0 1 -0.09819,-0.06563 10.56935,18.779649 42.924994 0 1 -0.09612,-0.0677 10.56935,18.779649 42.924994 0 1 -0.09508,-0.06925 10.56935,18.779649 42.924994 0 1 -0.09354,-0.07131 10.56935,18.779649 42.924994 0 1 -0.09198,-0.07286 10.56935,18.779649 42.924994 0 1 -0.09043,-0.07441 10.56935,18.779649 42.924994 0 1 -0.0894,-0.07648 10.56935,18.779649 42.924994 0 1 -0.08733,-0.07803 10.56935,18.779649 42.924994 0 1 -0.08578,-0.07958 10.56935,18.779649 42.924994 0 1 -0.08423,-0.08165 10.56935,18.779649 42.924994 0 1 -0.08268,-0.08268 10.56935,18.779649 42.924994 0 1 -0.08062,-0.08475 10.56935,18.779649 42.924994 0 1 -0.07958,-0.08682 10.56935,18.779649 42.924994 0 1 -0.07803,-0.08785 10.56935,18.779649 42.924994 0 1 -0.07596,-0.0894 10.56935,18.779649 42.924994 0 1 -0.07441,-0.09147 10.56935,18.779649 42.924994 0 1 -0.07338,-0.09302 10.56935,18.779649 42.924994 0 1 -0.07131,-0.09457 10.56935,18.779649 42.924994 0 1 -0.06925,-0.0956 10.56935,18.779649 42.924994 0 1 -0.06821,-0.09767 10.56935,18.779649 42.924994 0 1 -0.06615,-0.09922 A 10.56935,18.779649 42.924994 0 1 93.41033,71.80541 10.56935,18.779649 42.924994 0 1 93.34728,71.70309 10.56935,18.779649 42.924994 0 1 93.2863,71.59922 10.56935,18.779649 42.924994 0 1 93.22687,71.4938 10.56935,18.779649 42.924994 0 1 93.16899,71.386831 10.56935,18.779649 42.924994 0 1 93.11318,71.278826 10.56935,18.779649 42.924994 0 1 93.05892,71.168756 10.56935,18.779649 42.924994 0 1 93.00621,71.057653 10.56935,18.779649 42.924994 0 1 92.95557,70.944998 10.56935,18.779649 42.924994 0 1 92.90648,70.830791 10.56935,18.779649 42.924994 0 1 92.85894,70.715036 10.56935,18.779649 42.924994 0 1 92.81347,70.598249 10.56935,18.779649 42.924994 0 1 92.76954,70.479908 10.56935,18.779649 42.924994 0 1 92.72768,70.36002 10.56935,18.779649 42.924994 0 1 92.68737,70.239098 10.56935,18.779649 42.924994 0 1 92.64913,70.116625 10.56935,18.779649 42.924994 0 1 92.61244,69.993117 10.56935,18.779649 42.924994 0 1 92.5773,69.867543 10.56935,18.779649 42.924994 0 1 92.54423,69.741454 10.56935,18.779649 42.924994 0 1 92.51322,69.613811 10.56935,18.779649 42.924994 0 1 92.48376,69.48462 10.56935,18.779649 42.924994 0 1 92.45585,69.354397 10.56935,18.779649 42.924994 0 1 92.43001,69.223138 10.56935,18.779649 42.924994 0 1 92.40624,69.09033 10.56935,18.779649 42.924994 0 1 92.38402,68.956488 10.56935,18.779649 42.924994 0 1 92.36335,68.821611 10.56935,18.779649 42.924994 0 1 92.34475,68.685703 10.56935,18.779649 42.924994 0 1 92.32821,68.548244 10.56935,18.779649 42.924994 0 1 92.31322,68.40975 10.56935,18.779649 42.924994 0 1 92.3003,68.270225 a 10.56935,18.779649 42.924994 0 1 -0.01137,-0.141076 10.56935,18.779649 42.924994 0 1 -0.0098,-0.141594 10.56935,18.779649 42.924994 0 1 -0.0072,-0.143145 10.56935,18.779649 42.924994 0 1 -0.0057,-0.143658 10.56935,18.779649 42.924994 0 1 -0.0041,-0.145212 10.56935,18.779649 42.924994 0 1 -0.0021,-0.145727 10.56935,18.779649 42.924994 0 1 -5.16e-4,-0.147278 10.56935,18.779649 42.924994 0 1 0.0015,-0.147796 10.56935,18.779649 42.924994 0 1 0.0036,-0.148828 10.56935,18.779649 42.924994 0 1 0.0052,-0.14986 10.56935,18.779649 42.924994 0 1 0.0072,-0.150897 10.56935,18.779649 42.924994 0 1 0.0088,-0.151927 10.56935,18.779649 42.924994 0 1 0.01085,-0.152447 10.56935,18.779649 42.924994 0 1 0.0124,-0.15348 10.56935,18.779649 42.924994 0 1 0.01447,-0.153995 10.56935,18.779649 42.924994 0 1 0.01654,-0.155546 10.56935,18.779649 42.924994 0 1 0.01809,-0.155546 10.56935,18.779649 42.924994 0 1 0.01964,-0.157096 10.56935,18.779649 42.924994 0 1 0.0217,-0.157613 10.56935,18.779649 42.924994 0 1 0.02325,-0.15813 10.56935,18.779649 42.924994 0 1 0.02584,-0.159163 10.56935,18.779649 42.924994 0 1 0.02687,-0.159682 10.56935,18.779649 42.924994 0 1 0.02894,-0.160194 10.56935,18.779649 42.924994 0 1 0.031,-0.161232 10.56935,18.779649 42.924994 0 1 0.03256,-0.161748 10.56935,18.779649 42.924994 0 1 0.03411,-0.162263 10.56935,18.779649 42.924994 0 1 0.03617,-0.163298 10.56935,18.779649 42.924994 0 1 0.03772,-0.163296 10.56935,18.779649 42.924994 0 1 0.03979,-0.164333 10.56935,18.779649 42.924994 0 1 0.04186,-0.164846 10.56935,18.779649 42.924994 0 1 0.04289,-0.165364 10.56935,18.779649 42.924994 0 1 0.04547,-0.165365 10.56935,18.779649 42.924994 0 1 0.04651,-0.166399 10.56935,18.779649 42.924994 0 1 0.04858,-0.166915 10.56935,18.779649 42.924994 0 1 0.05064,-0.167431 10.56935,18.779649 42.924994 0 1 0.05168,-0.167431 10.56935,18.779649 42.924994 0 1 0.05374,-0.16795 10.56935,18.779649 42.924994 0 1 0.05581,-0.168465 10.56935,18.779649 42.924994 0 1 0.05736,-0.168981 10.56935,18.779649 42.924994 0 1 0.05891,-0.168982 10.56935,18.779649 42.924994 0 1 0.06046,-0.1695 10.56935,18.779649 42.924994 0 1 0.06253,-0.170016 10.56935,18.779649 42.924994 0 1 0.06408,-0.170013 10.56935,18.779649 42.924994 0 1 0.06563,-0.170535 10.56935,18.779649 42.924994 0 1 0.0677,-0.170532 10.56935,18.779649 42.924994 0 1 0.06925,-0.171047 10.56935,18.779649 42.924994 0 1 0.0708,-0.171051 10.56935,18.779649 42.924994 0 1 0.07234,-0.171048 10.56935,18.779649 42.924994 0 1 0.0739,-0.171566 10.56935,18.779649 42.924994 0 1 0.07596,-0.171564 10.56935,18.779649 42.924994 0 1 0.07752,-0.171566 10.56935,18.779649 42.924994 0 1 0.07855,-0.172083 10.56935,18.779649 42.924994 0 1 0.08062,-0.171566 10.56935,18.779649 42.924994 0 1 0.08217,-0.172083 10.56935,18.779649 42.924994 0 1 0.08423,-0.172082 10.56935,18.779649 42.924994 0 1 0.06356,-0.129191 10.56935,18.779649 42.924994 0 1 0.08682,-0.172082 10.56935,18.779649 42.924994 0 1 0.08785,-0.171566 10.56935,18.779649 42.924994 0 1 0.08992,-0.172083 10.56935,18.779649 42.924994 0 1 0.09095,-0.172082 10.56935,18.779649 42.924994 0 1 0.09302,-0.171566 10.56935,18.779649 42.924994 0 1 0.09405,-0.171567 10.56935,18.779649 42.924994 0 1 0.0956,-0.171564 10.56935,18.779649 42.924994 0 1 0.09715,-0.171566 10.56935,18.779649 42.924994 0 1 0.0987,-0.171051 10.56935,18.779649 42.924994 0 1 0.10025,-0.171047 10.56935,18.779649 42.924994 0 1 0.101804,-0.171051 10.56935,18.779649 42.924994 0 1 0.102836,-0.170532 10.56935,18.779649 42.924994 0 1 0.104386,-0.170532 10.56935,18.779649 42.924994 0 1 0.105936,-0.170016 10.56935,18.779649 42.924994 0 1 0.107487,-0.169497 10.56935,18.779649 42.924994 0 1 0.108522,-0.1695 10.56935,18.779649 42.924994 0 1 0.110069,-0.168981 10.56935,18.779649 42.924994 0 1 0.111623,-0.168982 10.56935,18.779649 42.924994 0 1 0.112654,-0.168465 10.56935,18.779649 42.924994 0 1 0.114205,-0.167947 10.56935,18.779649 42.924994 0 1 0.115755,-0.167434 10.56935,18.779649 42.924994 0 1 0.116789,-0.167431 10.56935,18.779649 42.924994 0 1 0.117822,-0.166396 10.56935,18.779649 42.924994 0 1 0.119372,-0.166399 10.56935,18.779649 42.924994 0 1 0.120923,-0.165365 10.56935,18.779649 42.924994 0 1 0.121441,-0.165365 10.56935,18.779649 42.924994 0 1 0.123505,-0.164848 10.56935,18.779649 42.924994 0 1 0.124023,-0.163814 10.56935,18.779649 42.924994 0 1 0.125574,-0.163814 10.56935,18.779649 42.924994 0 1 0.126608,-0.16278 10.56935,18.779649 42.924994 0 1 0.128157,-0.162266 10.56935,18.779649 42.924994 0 1 0.128674,-0.16123 10.56935,18.779649 42.924994 0 1 0.130226,-0.161229 10.56935,18.779649 42.924994 0 1 0.131775,-0.160197 10.56935,18.779649 42.924994 0 1 0.132292,-0.159681 10.56935,18.779649 42.924994 0 1 0.133324,-0.158647 10.56935,18.779649 42.924994 0 1 0.134876,-0.158131 10.56935,18.779649 42.924994 0 1 0.135393,-0.157612 10.56935,18.779649 42.924994 0 1 0.13694,-0.156581 10.56935,18.779649 42.924994 0 1 0.137462,-0.155546 10.56935,18.779649 42.924994 0 1 0.139009,-0.155027 10.56935,18.779649 42.924994 0 1 0.139526,-0.154514 10.56935,18.779649 42.924994 0 1 0.14056,-0.152961 10.56935,18.779649 42.924994 0 1 0.14211,-0.152445 10.56935,18.779649 42.924994 0 1 0.142626,-0.151413 10.56935,18.779649 42.924994 0 1 0.143145,-0.150894 10.56935,18.779649 42.924994 0 1 0.144693,-0.149347 10.56935,18.779649 42.924994 0 1 0.145214,-0.148828 10.56935,18.779649 42.924994 0 1 0.14624,-0.147794 10.56935,18.779649 42.924994 0 1 0.14728,-0.146762 10.56935,18.779649 42.924994 0 1 0.14779,-0.145727 10.56935,18.779649 42.924994 0 1 0.14883,-0.144692 10.56935,18.779649 42.924994 0 1 0.14935,-0.143661 10.56935,18.779649 42.924994 0 1 0.15037,-0.143145 10.56935,18.779649 42.924994 0 1 0.1509,-0.141592 10.56935,18.779649 42.924994 0 1 0.15193,-0.140044 10.56935,18.779649 42.924994 0 1 0.15244,-0.139525 10.56935,18.779649 42.924994 0 1 0.15348,-0.138494 10.56935,18.779649 42.924994 0 1 0.15348,-0.136943 10.56935,18.779649 42.924994 0 1 0.15503,-0.135908 10.56935,18.779649 42.924994 0 1 0.15503,-0.134877 10.56935,18.779649 42.924994 0 1 0.15606,-0.133842 10.56935,18.779649 42.924994 0 1 0.15607,-0.132292 10.56935,18.779649 42.924994 0 1 0.15709,-0.131257 10.56935,18.779649 42.924994 0 1 0.15813,-0.129709 10.56935,18.779649 42.924994 0 1 0.15813,-0.128672 10.56935,18.779649 42.924994 0 1 0.15865,-0.127125 10.56935,18.779649 42.924994 0 1 0.15916,-0.126608 10.56935,18.779649 42.924994 0 1 0.15968,-0.12454 10.56935,18.779649 42.924994 0 1 0.1602,-0.123507 10.56935,18.779649 42.924994 0 1 0.16071,-0.121954 10.56935,18.779649 42.924994 0 1 0.16123,-0.120926 10.56935,18.779649 42.924994 0 1 0.16123,-0.119372 10.56935,18.779649 42.924994 0 1 0.16227,-0.118337 10.56935,18.779649 42.924994 0 1 0.16226,-0.116274 10.56935,18.779649 42.924994 0 1 0.16278,-0.115755 10.56935,18.779649 42.924994 0 1 0.16279,-0.113686 10.56935,18.779649 42.924994 0 1 0.16329,-0.112139 10.56935,18.779649 42.924994 0 1 0.16382,-0.111104 10.56935,18.779649 42.924994 0 1 0.16381,-0.109556 10.56935,18.779649 42.924994 0 1 0.16382,-0.108002 10.56935,18.779649 42.924994 0 1 0.16484,-0.106453 10.56935,18.779649 42.924994 0 1 0.16433,-0.104905 10.56935,18.779649 42.924994 0 1 0.16485,-0.10387 10.56935,18.779649 42.924994 0 1 0.16485,-0.101801 10.56935,18.779649 42.924994 0 1 0.16536,-0.100253 10.56935,18.779649 42.924994 0 1 0.16537,-0.09922 10.56935,18.779649 42.924994 0 1 0.16536,-0.09715 10.56935,18.779649 42.924994 0 1 0.16537,-0.0956 10.56935,18.779649 42.924994 0 1 0.16536,-0.09405 10.56935,18.779649 42.924994 0 1 0.16588,-0.09302 10.56935,18.779649 42.924994 0 1 0.16537,-0.09095 10.56935,18.779649 42.924994 0 1 0.16588,-0.08888 10.56935,18.779649 42.924994 0 1 0.16537,-0.08785 10.56935,18.779649 42.924994 0 1 0.16588,-0.0863 10.56935,18.779649 42.924994 0 1 0.16536,-0.08423 10.56935,18.779649 42.924994 0 1 0.16536,-0.08268 10.56935,18.779649 42.924994 0 1 0.16537,-0.08113 10.56935,18.779649 42.924994 0 1 0.16536,-0.07906 10.56935,18.779649 42.924994 0 1 0.16537,-0.07803 10.56935,18.779649 42.924994 0 1 0.16485,-0.07596 10.56935,18.779649 42.924994 0 1 0.16484,-0.0739 10.56935,18.779649 42.924994 0 1 0.16485,-0.07286 10.56935,18.779649 42.924994 0 1 0.16433,-0.0708 10.56935,18.779649 42.924994 0 1 0.16433,-0.06873 10.56935,18.779649 42.924994 0 1 0.16382,-0.06718 10.56935,18.779649 42.924994 0 1 0.16381,-0.06563 10.56935,18.779649 42.924994 0 1 0.1633,-0.06408 10.56935,18.779649 42.924994 0 1 0.1633,-0.06201 10.56935,18.779649 42.924994 0 1 0.16278,-0.05994 10.56935,18.779649 42.924994 0 1 0.16226,-0.0584 10.56935,18.779649 42.924994 0 1 0.16175,-0.05684 10.56935,18.779649 42.924994 0 1 0.16175,-0.05478 10.56935,18.779649 42.924994 0 1 0.16123,-0.05323 10.56935,18.779649 42.924994 0 1 0.16071,-0.05116 10.56935,18.779649 42.924994 0 1 0.16071,-0.04909 10.56935,18.779649 42.924994 0 1 0.15968,-0.04754 10.56935,18.779649 42.924994 0 1 0.15969,-0.04599 10.56935,18.779649 42.924994 0 1 0.15864,-0.04392 10.56935,18.779649 42.924994 0 1 0.15865,-0.04186 10.56935,18.779649 42.924994 0 1 0.15761,-0.04031 10.56935,18.779649 42.924994 0 1 0.1571,-0.03824 10.56935,18.779649 42.924994 0 1 0.15709,-0.03617 10.56935,18.779649 42.924994 0 1 0.15607,-0.03462 10.56935,18.779649 42.924994 0 1 0.15503,-0.03307 10.56935,18.779649 42.924994 0 1 0.15503,-0.03049 10.56935,18.779649 42.924994 0 1 0.15399,-0.02946 10.56935,18.779649 42.924994 0 1 0.15348,-0.02687 10.56935,18.779649 42.924994 0 1 0.15296,-0.02532 10.56935,18.779649 42.924994 0 1 0.15193,-0.02325 10.56935,18.779649 42.924994 0 1 0.15141,-0.02119 10.56935,18.779649 42.924994 0 1 0.15038,-0.01963 10.56935,18.779649 42.924994 0 1 0.14986,-0.01757 10.56935,18.779649 42.924994 0 1 0.14883,-0.01602 10.56935,18.779649 42.924994 0 1 0.14831,-0.01395 10.56935,18.779649 42.924994 0 1 0.14728,-0.01188 10.56935,18.779649 42.924994 0 1 0.14624,-0.0098 10.56935,18.779649 42.924994 0 1 0.14573,-0.0083 10.56935,18.779649 42.924994 0 1 0.1447,-0.0062 10.56935,18.779649 42.924994 0 1 0.14366,-0.0047 10.56935,18.779649 42.924994 0 1 0.14314,-0.0021 10.56935,18.779649 42.924994 0 1 0.10645,-10e-4 10.56935,18.779649 42.924994 0 1 0.1416,10e-4 10.56935,18.779649 42.924994 0 1 0.14004,0.0031 10.56935,18.779649 42.924994 0 1 0.13953,0.0047 10.56935,18.779649 42.924994 0 1 0.13797,0.0062 10.56935,18.779649 42.924994 0 1 0.13746,0.0088 10.56935,18.779649 42.924994 0 1 0.13643,0.01033 10.56935,18.779649 42.924994 0 1 0.13487,0.0124 10.56935,18.779649 42.924994 0 1 0.13436,0.01395 10.56935,18.779649 42.924994 0 1 0.13281,0.01654 10.56935,18.779649 42.924994 0 1 0.13229,0.01757 10.56935,18.779649 42.924994 0 1 0.13074,0.02016 10.56935,18.779649 42.924994 0 1 0.12971,0.0217 10.56935,18.779649 42.924994 0 1 0.12816,0.02377 10.56935,18.779649 42.924994 0 1 0.12764,0.02532 10.56935,18.779649 42.924994 0 1 0.12609,0.0279 10.56935,18.779649 42.924994 0 1 0.12506,0.02894 10.56935,18.779649 42.924994 0 1 0.1235,0.03152 10.56935,18.779649 42.924994 0 1 0.12299,0.03307 10.56935,18.779649 42.924994 0 1 0.12093,0.03462 10.56935,18.779649 42.924994 0 1 0.1204,0.03721 10.56935,18.779649 42.924994 0 1 0.11834,0.03824 10.56935,18.779649 42.924994 0 1 0.11782,0.04082 10.56935,18.779649 42.924994 0 1 0.11628,0.04238 10.56935,18.779649 42.924994 0 1 0.11472,0.04392 10.56935,18.779649 42.924994 0 1 0.11369,0.04651 10.56935,18.779649 42.924994 0 1 0.11213,0.04754 10.56935,18.779649 42.924994 0 1 0.11059,0.04961 10.56935,18.779649 42.924994 0 1 0.10956,0.05168 10.56935,18.779649 42.924994 0 1 0.108,0.05323 10.56935,18.779649 42.924994 0 1 0.10697,0.05529 10.56935,18.779649 42.924994 0 1 0.10542,0.05684 10.56935,18.779649 42.924994 0 1 0.10387,0.05891 10.56935,18.779649 42.924994 0 1 0.10232,0.06046 10.56935,18.779649 42.924994 0 1 0.10077,0.06253 10.56935,18.779649 42.924994 0 1 0.0997,0.06408 10.56935,18.779649 42.924994 0 1 0.0977,0.06563 10.56935,18.779649 42.924994 0 1 0.0966,0.0677 10.56935,18.779649 42.924994 0 1 0.0951,0.06976 10.56935,18.779649 42.924994 0 1 0.0935,0.0708 10.56935,18.779649 42.924994 0 1 0.092,0.07286 10.56935,18.779649 42.924994 0 1 0.091,0.07441 10.56935,18.779649 42.924994 0 1 0.0889,0.07648 10.56935,18.779649 42.924994 0 1 0.0873,0.07803 10.56935,18.779649 42.924994 0 1 0.0858,0.07958 10.56935,18.779649 42.924994 0 1 0.0842,0.08113 10.56935,18.779649 42.924994 0 1 0.0827,0.0832 10.56935,18.779649 42.924994 0 1 0.0811,0.08475 10.56935,18.779649 42.924994 0 1 0.0796,0.0863 10.56935,18.779649 42.924994 0 1 0.0176,0.01964 l 1.30018,-1.001487 a 12.378088,33.427117 44.440317 0 0 -6.0384,-6.117458 z" />
      </g>
      <path
         id="path1519"
         style="fill:#c3762b;fill-opacity:1;stroke-width:0;stroke-dasharray:none"
         d="m 62.762116,122.65741 a 8.8190682,8.3985774 67.000132 0 0 -7.696442,1.91353 L 14.822876,148.23962 31.25452,144.57154 14.818535,158.1524 35.860233,150.06397 23.393139,166.44504 62.936576,139.6921 a 8.8190682,8.3985774 67.000132 0 0 6.20081,-6.26741 l -4.58971,-1.28067 -0.002,-0.002 4.59229,1.27872 a 8.8190682,8.3985774 67.000132 0 0 -6.30963,-10.74472 8.8190682,8.3985774 67.000132 0 0 -0.0665,-0.0186 z" />
      <g
         id="g1531"
         transform="translate(-44.271864,80.422855)">
        <g
           id="g1527">
          <path
             sodipodi:type="star"
             style="fill:#ffcc00;fill-opacity:1;stroke-width:0;stroke-dasharray:none"
             id="path1521"
             sodipodi:sides="3"
             sodipodi:cx="132.42259"
             sodipodi:cy="37.11174"
             sodipodi:r1="4.5877528"
             sodipodi:r2="2.2938764"
             sodipodi:arg1="-0.038123592"
             sodipodi:arg2="1.009074"
             inkscape:flatsided="true"
             inkscape:rounded="0"
             inkscape:randomized="0"
             inkscape:transform-center-x="-1.0703869"
             inkscape:transform-center-y="0.08742916"
             d="m 137.00701,36.936881 -6.72519,4.232512 -0.30287,-7.940447 z" />
          <circle
             style="fill:#4b777a;fill-opacity:1;stroke-width:0;stroke-dasharray:none"
             id="circle1523"
             sodipodi:type="arc"
             sodipodi:cx="123.77784"
             sodipodi:cy="37.133354"
             sodipodi:rx="8.6448021"
             sodipodi:ry="6.4836016"
             sodipodi:start="0"
             sodipodi:end="6.2789393"
             sodipodi:arc-type="arc"
             sodipodi:open="true"
             d="m 132.42264,37.133354 a 8.6448021,6.4836016 0 0 1 -8.63562,6.483598 8.6448021,6.4836016 0 0 1 -8.65396,-6.469833 8.6448021,6.4836016 0 0 1 8.61725,-6.497334 8.6448021,6.4836016 0 0 1 8.67225,6.45604" />
          <circle
             style="fill:#f0f7f8;fill-opacity:1;stroke-width:0;stroke-dasharray:none"
             id="circle1525"
             sodipodi:type="arc"
             sodipodi:cx="128.16574"
             sodipodi:cy="34.972153"
             sodipodi:rx="1.3753095"
             sodipodi:ry="1.0478548"
             sodipodi:start="0"
             sodipodi:end="6.2827141"
             sodipodi:arc-type="slice"
             d="m 129.54105,34.972153 a 1.3753095,1.0478548 0 0 1 -1.37515,1.047854 1.3753095,1.0478548 0 0 1 -1.37547,-1.047607 1.3753095,1.0478548 0 0 1 1.37482,-1.048102 1.3753095,1.0478548 0 0 1 1.3758,1.047361 l -1.37531,4.94e-4 z" />
        </g>
        <circle
           style="fill:#000000;fill-opacity:1;stroke-width:0;stroke-dasharray:none"
           id="circle1529"
           sodipodi:type="arc"
           sodipodi:cx="128.16574"
           sodipodi:cy="34.972153"
           sodipodi:rx="2.1284263"
           sodipodi:ry="1.0697938"
           sodipodi:start="0"
           sodipodi:end="6.2798517"
           sodipodi:arc-type="slice"
           d="m 130.29417,34.972153 a 2.1284263,1.0697938 0 0 1 -2.12666,1.069793 2.1284263,1.0697938 0 0 1 -2.13019,-1.06801 2.1284263,1.0697938 0 0 1 2.1231,-1.071574 2.1284263,1.0697938 0 0 1 2.13374,1.066224 l -2.12842,0.0036 z" />
      </g>
      <g
         id="g1537"
         transform="translate(-37.067863,72.95689)">
        <rect
           style="fill:#ffcc00;fill-opacity:1;fill-rule:evenodd;stroke-width:0.264583"
           id="rect1533"
           width="2.2266915"
           height="20.695131"
           x="88.41275"
           y="83.697403"
           ry="0.85349554" />
        <rect
           style="fill:#ffcc00;fill-opacity:1;fill-rule:evenodd;stroke-width:0.264583"
           id="rect1535"
           width="5.8941803"
           height="1.440801"
           x="87.037445"
           y="103.80311"
           ry="0.72040051" />
      </g>
    </g>
    <ellipse
       style="fill:#008000;fill-opacity:0.96;stroke-width:0;stroke-dasharray:none"
       id="path846"
       cx="21.873968"
       cy="24.231642"
       rx="5.1082926"
       ry="4.3224015" />
    <g
       id="g455"
       inkscape:export-filename="D:\github\personal-page\images\grassAndTrees.png"
       inkscape:export-xdpi="217.383"
       inkscape:export-ydpi="217.383"
       transform="translate(5.9744624)">
      <path
         id="rect2811"
         style="fill:#87542e;fill-opacity:1;fill-rule:evenodd;stroke-width:0.264583"
         d="m 16.743164,119.45544 h 7.881424 v 71.77806 l 3.970049,5.23926 H 12.77338 l 3.969784,-5.50123 z"
         sodipodi:nodetypes="ccccccc" />
      <path
         id="use3375"
         style="fill:#008000;fill-opacity:0.96;stroke-width:0;stroke-dasharray:none"
         d="m 57.357422,357.53906 a 19.306933,16.336636 0 0 0 -15.966797,7.15039 19.306933,16.336636 0 0 0 -17.5,16.26563 19.306933,16.336636 0 0 0 1.390625,6.08398 19.306933,16.336636 0 0 0 -4.939453,10.23047 19.306933,16.336636 0 0 0 -18.4101564,16.31836 19.306933,16.336636 0 0 0 1.0957032,5.42578 19.306933,16.336636 0 0 0 -6.1542969,11.95703 19.306933,16.336636 0 0 0 16.8769531,16.20703 19.306933,16.336636 0 0 0 -1.498047,6.30469 19.306933,16.336636 0 0 0 10.427735,14.50781 19.306933,16.336636 0 0 0 14.814453,13.95118 19.306933,16.336636 0 0 0 15.123047,6.18164 19.306933,16.336636 0 0 0 2.353515,-0.1211 19.306933,16.336636 0 0 0 14.068359,5.14649 19.306933,16.336636 0 0 0 9.492188,-2.10938 19.306933,16.336636 0 0 0 2.152344,0.10352 19.306933,16.336636 0 0 0 15.003906,-6.05664 19.306933,16.336636 0 0 0 2.451172,1.57226 19.306933,16.336636 0 0 0 12.958988,4.22852 19.306933,16.336636 0 0 0 14.90039,-5.95117 19.306933,16.336636 0 0 0 0.58984,0.008 19.306933,16.336636 0 0 0 19.30859,-16.33594 19.306933,16.336636 0 0 0 -0.65625,-4.21484 19.306933,16.336636 0 0 0 14.30469,-15.77735 19.306933,16.336636 0 0 0 -15.55078,-16.02539 19.306933,16.336636 0 0 0 -0.28125,-0.77148 19.306933,16.336636 0 0 0 0.63281,-4.14844 19.306933,16.336636 0 0 0 -0.0254,-0.83789 19.306933,16.336636 0 0 0 14.4375,-15.80664 19.306933,16.336636 0 0 0 -9.52343,-14.08398 19.306933,16.336636 0 0 0 -2.24805,-3.30664 19.306933,16.336636 0 0 0 -12.62891,-14.97852 19.306933,16.336636 0 0 0 -3.25976,-2.1582 19.306933,16.336636 0 0 0 -13.4668,-4.63086 19.306933,16.336636 0 0 0 -15.75781,6.89843 19.306933,16.336636 0 0 0 -17.445316,-14.0332 19.306933,16.336636 0 0 0 -1.464843,-0.61719 19.306933,16.336636 0 0 0 -10.095703,-2.41211 19.306933,16.336636 0 0 0 -2.457032,0.13282 19.306933,16.336636 0 0 0 -13.052734,-4.29688 z"
         transform="scale(0.26458333)" />
    </g>
    <path
       id="rect2070"
       style="fill:#008000;fill-opacity:0.960784;fill-rule:evenodd;stroke-width:0.265098"
       d="m 261.73267,191.74488 c -0.18311,-0.0176 -0.3789,0.0648 -0.58933,0.27441 -0.40036,0.39879 -1.51434,2.51143 -2.45953,4.45347 h -2.85691 c -0.0811,-0.26692 -0.15346,-0.47171 -0.20595,-0.524 -0.19378,-0.19303 -0.67746,0.14226 -1.14235,0.524 h -10.40979 c -0.44445,-1.70875 -0.92829,-3.04479 -2.91242,-0.786 -0.38334,0.4364 -0.53138,0.60049 -0.69672,0.786 h -1.561 c -0.58519,-1.62118 -1.56988,-3.53155 -3.52769,-2.88148 -1.9255,0.63934 -2.06432,1.64095 -1.90806,2.88148 h -8.96448 c 0.0735,-0.30455 0.0266,-0.65082 -0.17275,-1.048 -0.48044,-0.95713 -11.27858,0 -13.41248,0 -1.14297,0 -0.91056,-3.54323 -1.84062,-2.88148 -1.58525,1.12793 -3.53294,2.63195 -5.56908,3.92948 h -5.04252 c 0.12432,-0.32389 0.18251,-0.60633 0.0922,-0.786 -0.15971,-0.31817 -2.57712,0.28705 -4.90919,0.786 h -4.1165 c 0.43058,-0.80576 2.00997,-2.27302 1.66216,-2.61948 -0.94617,-0.9425 -2.22192,1.49939 -3.41874,2.09548 -0.34467,0.17166 -0.70938,0.34847 -1.06765,0.524 h -5.26559 c 0.56779,-0.90027 1.05058,-1.71434 0.81033,-1.834 -1.14162,-0.56859 -2.40916,0.9505 -3.68177,1.048 -3.96862,0.30406 -7.43945,0.262 -11.30831,0.262 -0.70787,0 -0.64118,-1.75814 -1.57812,-1.57148 -2.84506,0.5668 -2.13753,1.46126 -3.85141,2.09548 h -3.9811 c -1.14796,-1.12847 -1.85911,-3.66748 -3.47581,-3.66748 -0.0671,0 -0.1661,2.23797 -0.52604,2.35748 -1.55076,0.51492 -3.18008,0.92486 -4.82619,1.31 h -7.2053 c -0.0151,-0.34397 -0.13715,-0.58864 -0.59141,-0.524 -0.72767,0.10355 -1.60373,0.31501 -2.52592,0.524 h -6.15271 c -0.34237,-0.20462 -0.40941,-1.67909 -0.52604,-1.834 -0.49217,-0.65367 -4.01735,0.95252 -5.92755,1.834 h -1.4972 c 0.005,-0.61526 0.1999,-1.51007 -0.2018,-1.31 -1.37658,0.68561 -2.89805,1.00915 -4.4397,1.31 h -7.28364 c -0.19727,-0.47795 -0.4528,-0.89965 -0.89956,-1.048 -1.39862,-0.46438 -2.78271,0.29361 -4.0501,1.048 h -2.74485 c -0.26325,-1.0954 -0.35685,-2.67005 -0.5691,-2.88148 -0.71782,-0.71503 -4.726869,2.45429 -4.996345,2.61948 -0.155113,0.0951 -0.29175,0.17511 -0.43681,0.262 h -3.853998 c 0.314142,-1.20548 0.55205,-2.41986 -2.546682,-1.048 -0.316099,0.13995 -0.706117,0.55348 -1.127822,1.048 h -3.504861 c -0.06729,-0.21754 -0.179871,-0.4016 -0.364183,-0.524 -0.289302,-0.19212 -1.530714,0.14385 -2.742257,0.524 h -4.653956 c -0.539863,-0.77731 -0.425099,-1.80879 -1.019397,-1.572 -0.213002,0.0849 -1.434474,0.78242 -2.882329,1.572 h -5.669719 c 0.06551,-0.74541 0.114864,-1.49421 -0.126585,-2.09548 -0.172948,-0.4307 -3.778792,1.44969 -5.017098,2.09548 h -1.406923 c -0.990566,-0.97045 -2.020823,-3.64824 -5.147314,-1.572 -3.50948,2.33057 -0.128291,-1.0809 -2.366664,-0.52348 -2.585186,0.64379 -5.227263,1.45591 -7.874525,2.09548 h -4.038685 c -0.06838,-0.92608 -0.212127,-2.3714 -0.710207,-2.61948 -1.881566,-0.93713 -6.083298,1.58884 -7.62655,2.35748 -0.452413,0.22533 0.378287,-1.71867 0,-2.09548 -0.186847,-0.18613 -2.481392,-0.0739 -2.629684,0 -1.555009,0.77449 -3.282997,1.56096 -4.955882,2.35748 H 26.55566 c 0.04154,-0.96842 0.328744,-2.37741 -0.520334,-2.09548 -1.739435,0.57756 -3.732978,1.43199 -5.657789,2.09548 h -3.569191 c -0.213238,-0.9479 -0.04357,-2.42361 -0.240194,-2.61948 -0.327109,-0.32584 -1.837745,1.37689 -3.745055,2.61948 H 8.0275655 c -0.010632,-1.34079 0.5411849,-3.51493 0.1250254,-3.92948 -0.2102118,-0.20939 -3.8930654,2.98893 -6.3280499,3.92948 H -4.0350975e-8 v 13.62191 H 299.01307 598.02615 897.03922 v -13.62191 h -7.76143 c 1.00551,-3.31518 -2.73572,-1.72277 -5.63084,0 h -3.08673 c -1.19027,-1.3481 -4.17513,-4.31238 -4.82254,-3.66748 -0.56897,0.56675 2.02597,1.47656 0.26301,2.88148 -0.36856,0.29371 -0.75894,0.55209 -1.1636,0.786 h -5.07416 c 0.30036,-0.30334 0.40057,-0.57509 0.18882,-0.786 -0.54958,-0.54744 -2.05824,0.0886 -3.60342,0.786 h -4.47653 c -0.51673,-1.66653 -1.13072,-4.63345 -2.11299,-4.72788 -0.18311,-0.0176 -0.3789,0.0648 -0.58934,0.27441 -0.40036,0.39879 -1.51432,2.51143 -2.45951,4.45347 h -2.85692 c -0.0811,-0.26692 -0.15345,-0.47171 -0.20596,-0.524 -0.19376,-0.19303 -0.67745,0.14226 -1.14235,0.524 h -10.40979 c -0.44443,-1.70875 -0.92827,-3.04479 -2.91241,-0.786 -0.38333,0.4364 -0.53139,0.60049 -0.69673,0.786 h -1.56099 c -0.5852,-1.62118 -1.56988,-3.53155 -3.5277,-2.88148 -1.92549,0.63934 -2.0643,1.64095 -1.90804,2.88148 h -8.96448 c 0.0735,-0.30455 0.0266,-0.65082 -0.17275,-1.048 -0.48045,-0.95713 -11.27859,0 -13.41248,0 -1.14297,0 -0.91058,-3.54323 -1.84063,-2.88148 -1.58524,1.12793 -3.53293,2.63195 -5.56908,3.92948 h -5.04252 c 0.12433,-0.32389 0.1825,-0.60633 0.0924,-0.786 -0.15971,-0.31817 -2.57712,0.28705 -4.90921,0.786 h -4.11649 c 0.43059,-0.80576 2.00998,-2.27302 1.66216,-2.61948 -0.94617,-0.9425 -2.22192,1.49939 -3.41875,2.09548 -0.34466,0.17166 -0.70937,0.34847 -1.06763,0.524 h -5.26559 c 0.56777,-0.90027 1.05058,-1.71434 0.81031,-1.834 -1.14161,-0.56859 -2.40915,0.9505 -3.68176,1.048 -3.96862,0.30406 -7.43945,0.262 -11.30831,0.262 -0.70786,0 -0.64117,-1.75814 -1.57812,-1.57148 -2.84507,0.5668 -2.13753,1.46126 -3.85141,2.09548 h -3.9811 c -1.14796,-1.12847 -1.85911,-3.66748 -3.4758,-3.66748 -0.0671,0 -0.16612,2.23797 -0.52605,2.35748 -1.55076,0.51492 -3.18007,0.92486 -4.82618,1.31 h -7.20532 c -0.0151,-0.34397 -0.13714,-0.58864 -0.59139,-0.524 -0.72768,0.10355 -1.60372,0.31501 -2.52594,0.524 h -6.15271 c -0.34235,-0.20462 -0.40939,-1.67909 -0.52602,-1.834 -0.49218,-0.65367 -4.01736,0.95252 -5.92755,1.834 h -1.49722 c 0.005,-0.61526 0.1999,-1.51007 -0.20178,-1.31 -1.3766,0.68561 -2.89807,1.00915 -4.43972,1.31 h -7.28362 c -0.1973,-0.47795 -0.45282,-0.89965 -0.89958,-1.048 -1.39862,-0.46438 -2.78271,0.29361 -4.05008,1.048 h -2.74486 c -0.26325,-1.0954 -0.35685,-2.67005 -0.56911,-2.88148 -0.71782,-0.71503 -4.72687,2.45429 -4.99633,2.61948 -0.15512,0.0951 -0.29175,0.17511 -0.4368,0.262 h -3.85401 c 0.31414,-1.20548 0.55205,-2.41986 -2.54668,-1.048 -0.31611,0.13995 -0.70611,0.55348 -1.12783,1.048 h -3.50486 c -0.0673,-0.21754 -0.17987,-0.4016 -0.36418,-0.524 -0.28931,-0.19212 -1.53071,0.14385 -2.74225,0.524 h -4.65396 c -0.53986,-0.77731 -0.42512,-1.80879 -1.0194,-1.572 -0.213,0.0849 -1.43448,0.78242 -2.88234,1.572 h -5.66972 c 0.0656,-0.74541 0.11488,-1.49421 -0.12657,-2.09548 -0.17297,-0.4307 -3.77878,1.44969 -5.0171,2.09548 h -1.40694 c -0.99055,-0.97045 -2.02081,-3.64824 -5.14731,-1.572 -3.50948,2.33057 -0.12829,-1.0809 -2.36664,-0.52348 -2.5852,0.64379 -5.22726,1.45591 -7.87453,2.09548 h -4.03869 c -0.0684,-0.92608 -0.21212,-2.3714 -0.7102,-2.61948 -1.88159,-0.93713 -6.08331,1.58884 -7.62656,2.35748 -0.45242,0.22533 0.37829,-1.71867 0,-2.09548 -0.18686,-0.18613 -2.48138,-0.0739 -2.62968,0 -1.55501,0.77449 -3.28299,1.56096 -4.95589,2.35748 h -2.15033 c 0.0416,-0.96842 0.32875,-2.37741 -0.52034,-2.09548 -1.73942,0.57756 -3.73296,1.43199 -5.65779,2.09548 h -3.56919 c -0.21324,-0.9479 -0.0436,-2.42361 -0.2402,-2.61948 -0.3271,-0.32584 -1.83773,1.37689 -3.74505,2.61948 h -4.79558 c -0.0106,-1.34079 0.54119,-3.51493 0.12502,-3.92948 -0.21021,-0.20939 -3.89305,2.98893 -6.32804,3.92948 h -1.82453 -7.76144 c 1.00554,-3.31518 -2.73569,-1.72277 -5.6308,0 h -3.08673 c -1.1903,-1.3481 -4.17516,-4.31238 -4.82257,-3.66748 -0.56897,0.56675 2.02597,1.47656 0.26301,2.88148 -0.36857,0.29371 -0.75894,0.55209 -1.1636,0.786 h -5.07416 c 0.30035,-0.30334 0.40057,-0.57509 0.18882,-0.786 -0.54958,-0.54744 -2.05824,0.0886 -3.60343,0.786 h -4.47649 c -0.51669,-1.66653 -1.13071,-4.63345 -2.11298,-4.72788 -0.18312,-0.0176 -0.3789,0.0648 -0.58932,0.27441 -0.40039,0.39879 -1.51435,2.51143 -2.45953,4.45347 h -2.85692 c -0.0811,-0.26692 -0.15345,-0.47171 -0.20596,-0.524 -0.19377,-0.19303 -0.67745,0.14226 -1.14233,0.524 h -10.40979 c -0.44445,-1.70875 -0.92829,-3.04479 -2.91243,-0.786 -0.38334,0.4364 -0.53139,0.60049 -0.69671,0.786 h -1.56101 c -0.5852,-1.62118 -1.56989,-3.53155 -3.52768,-2.88148 -1.92551,0.63934 -2.06432,1.64095 -1.90806,2.88148 h -8.96448 c 0.0735,-0.30455 0.0267,-0.65082 -0.17276,-1.048 -0.48044,-0.95713 -11.27858,0 -13.41248,0 -1.14296,0 -0.91057,-3.54323 -1.84062,-2.88148 -1.58524,1.12793 -3.53294,2.63195 -5.56908,3.92948 h -5.04253 c 0.12434,-0.32389 0.18253,-0.60633 0.0924,-0.786 -0.15972,-0.31817 -2.57712,0.28705 -4.90919,0.786 h -4.11651 c 0.43058,-0.80576 2.00998,-2.27302 1.66216,-2.61948 -0.94618,-0.9425 -2.22192,1.49939 -3.41875,2.09548 -0.34466,0.17166 -0.70938,0.34847 -1.06764,0.524 h -5.26559 c 0.56778,-0.90027 1.05059,-1.71434 0.81034,-1.834 -1.14164,-0.56859 -2.40917,0.9505 -3.68178,1.048 -3.96862,0.30406 -7.43946,0.262 -11.30831,0.262 -0.70787,0 -0.64117,-1.75814 -1.57812,-1.57148 -2.84508,0.5668 -2.13753,1.46126 -3.85141,2.09548 h -3.9811 c -1.14796,-1.12847 -1.85909,-3.66748 -3.4758,-3.66748 -0.0671,0 -0.16612,2.23797 -0.52605,2.35748 -1.55077,0.51492 -3.18007,0.92486 -4.82619,1.31 h -7.20531 c -0.015,-0.34397 -0.13714,-0.58864 -0.59139,-0.524 -0.72768,0.10355 -1.60373,0.31501 -2.52594,0.524 h -6.15269 c -0.34237,-0.20462 -0.40941,-1.67909 -0.52604,-1.834 -0.49219,-0.65367 -4.01737,0.95252 -5.92756,1.834 h -1.49718 c 0.005,-0.61526 0.19987,-1.51007 -0.20182,-1.31 -1.37657,0.68561 -2.89803,1.00915 -4.43969,1.31 h -7.28364 c -0.19727,-0.47795 -0.45282,-0.89965 -0.89956,-1.048 -1.39861,-0.46438 -2.78273,0.29361 -4.05011,1.048 h -2.74485 c -0.26325,-1.0954 -0.35686,-2.67005 -0.56911,-2.88148 -0.71782,-0.71503 -4.72687,2.45429 -4.99633,2.61948 -0.15512,0.0951 -0.29175,0.17511 -0.43681,0.262 h -3.85401 c 0.31415,-1.20548 0.55206,-2.41986 -2.54668,-1.048 -0.31608,0.13995 -0.70611,0.55348 -1.12782,1.048 h -3.50486 c -0.0673,-0.21754 -0.17987,-0.4016 -0.36418,-0.524 -0.28931,-0.19212 -1.53071,0.14385 -2.74226,0.524 h -4.65396 c -0.53986,-0.77731 -0.42508,-1.80879 -1.0194,-1.572 -0.21299,0.0849 -1.43447,0.78242 -2.88231,1.572 h -5.66972 c 0.0656,-0.74541 0.11485,-1.49421 -0.12659,-2.09548 -0.17294,-0.4307 -3.77879,1.44969 -5.01711,2.09548 h -1.40693 c -0.99055,-0.97045 -2.02082,-3.64824 -5.14731,-1.572 -3.50948,2.33057 -0.12826,-1.0809 -2.36665,-0.52348 -2.58519,0.64379 -5.22726,1.45591 -7.87453,2.09548 h -4.03869 c -0.0684,-0.92608 -0.21212,-2.3714 -0.7102,-2.61948 -1.88158,-0.93713 -6.08328,1.58884 -7.62655,2.35748 -0.45239,0.22533 0.37829,-1.71867 0,-2.09548 -0.18683,-0.18613 -2.48139,-0.0739 -2.62969,0 -1.55501,0.77449 -3.28299,1.56096 -4.95588,2.35748 h -2.15033 c 0.0416,-0.96842 0.32875,-2.37741 -0.52034,-2.09548 -1.73943,0.57756 -3.73297,1.43199 -5.65779,2.09548 h -3.56919 c -0.21324,-0.9479 -0.0436,-2.42361 -0.2402,-2.61948 -0.3271,-0.32584 -1.83773,1.37689 -3.74505,2.61948 h -4.79559 c -0.0106,-1.34079 0.54122,-3.51493 0.12503,-3.92948 -0.21021,-0.20939 -3.89306,2.98893 -6.32805,3.92948 h -1.82453 -7.76143 c 1.00554,-3.31518 -2.73569,-1.72277 -5.63081,0 h -3.08673 c -1.19029,-1.3481 -4.17516,-4.31238 -4.82257,-3.66748 -0.56897,0.56675 2.026,1.47656 0.26304,2.88148 -0.36859,0.29371 -0.75896,0.55209 -1.16363,0.786 h -5.07416 c 0.30036,-0.30334 0.40058,-0.57509 0.18883,-0.786 -0.54958,-0.54744 -2.05825,0.0886 -3.60343,0.786 h -4.47653 c -0.51671,-1.66653 -1.13072,-4.63345 -2.11298,-4.72788 z"
       inkscape:export-filename="D:\github\personal-page\images\grassAndTrees.png"
       inkscape:export-xdpi="217.383"
       inkscape:export-ydpi="217.383" />
    <g
       id="g1260"
       inkscape:export-filename="D:\github\personal-page\images\grassAndTrees.png"
       inkscape:export-xdpi="217.383"
       inkscape:export-ydpi="217.383"
       transform="translate(-17.069892,-0.42674731)">
      <g
         id="g461"
         transform="matrix(0.87919385,0,0,1,855.49303,5.2392599)">
        <path
           id="path457"
           style="fill:#87542e;fill-opacity:1;fill-rule:evenodd;stroke-width:0.264583"
           d="m 16.743164,119.45544 h 7.881424 v 71.77806 l 3.970049,5.23926 H 12.77338 l 3.969784,-5.50123 z"
           sodipodi:nodetypes="ccccccc" />
        <path
           id="path459"
           style="fill:#008000;fill-opacity:0.96;stroke-width:0;stroke-dasharray:none"
           d="m 57.357422,357.53906 a 19.306933,16.336636 0 0 0 -15.966797,7.15039 19.306933,16.336636 0 0 0 -17.5,16.26563 19.306933,16.336636 0 0 0 1.390625,6.08398 19.306933,16.336636 0 0 0 -4.939453,10.23047 19.306933,16.336636 0 0 0 -18.4101564,16.31836 19.306933,16.336636 0 0 0 1.0957032,5.42578 19.306933,16.336636 0 0 0 -6.1542969,11.95703 19.306933,16.336636 0 0 0 16.8769531,16.20703 19.306933,16.336636 0 0 0 -1.498047,6.30469 19.306933,16.336636 0 0 0 10.427735,14.50781 19.306933,16.336636 0 0 0 14.814453,13.95118 19.306933,16.336636 0 0 0 15.123047,6.18164 19.306933,16.336636 0 0 0 2.353515,-0.1211 19.306933,16.336636 0 0 0 14.068359,5.14649 19.306933,16.336636 0 0 0 9.492188,-2.10938 19.306933,16.336636 0 0 0 2.152344,0.10352 19.306933,16.336636 0 0 0 15.003906,-6.05664 19.306933,16.336636 0 0 0 2.451172,1.57226 19.306933,16.336636 0 0 0 12.958988,4.22852 19.306933,16.336636 0 0 0 14.90039,-5.95117 19.306933,16.336636 0 0 0 0.58984,0.008 19.306933,16.336636 0 0 0 19.30859,-16.33594 19.306933,16.336636 0 0 0 -0.65625,-4.21484 19.306933,16.336636 0 0 0 14.30469,-15.77735 19.306933,16.336636 0 0 0 -15.55078,-16.02539 19.306933,16.336636 0 0 0 -0.28125,-0.77148 19.306933,16.336636 0 0 0 0.63281,-4.14844 19.306933,16.336636 0 0 0 -0.0254,-0.83789 19.306933,16.336636 0 0 0 14.4375,-15.80664 19.306933,16.336636 0 0 0 -9.52343,-14.08398 19.306933,16.336636 0 0 0 -2.24805,-3.30664 19.306933,16.336636 0 0 0 -12.62891,-14.97852 19.306933,16.336636 0 0 0 -3.25976,-2.1582 19.306933,16.336636 0 0 0 -13.4668,-4.63086 19.306933,16.336636 0 0 0 -15.75781,6.89843 19.306933,16.336636 0 0 0 -17.445316,-14.0332 19.306933,16.336636 0 0 0 -1.464843,-0.61719 19.306933,16.336636 0 0 0 -10.095703,-2.41211 19.306933,16.336636 0 0 0 -2.457032,0.13282 19.306933,16.336636 0 0 0 -13.052734,-4.29688 z"
           transform="scale(0.26458333)" />
      </g>
      <path
         id="use635"
         style="fill:#008000;fill-opacity:0.96;stroke-width:0;stroke-dasharray:none"
         d="m 3280.1172,366.14453 a 19.306933,16.336636 0 0 0 -16.791,8.27539 19.306933,16.336636 0 0 0 -13.3145,15.5293 19.306933,16.336636 0 0 0 3.4883,9.36719 19.306933,16.336636 0 0 0 -9.8711,14.25195 19.306933,16.336636 0 0 0 0.039,1.02734 19.306933,16.336636 0 0 0 -3.5782,-0.28515 19.306933,16.336636 0 0 0 -7.9199,1.43945 19.306933,16.336636 0 0 0 -15.0879,15.94336 19.306933,16.336636 0 0 0 0.1407,1.96875 19.306933,16.336636 0 0 0 -2.5743,8.14844 19.306933,16.336636 0 0 0 6.0567,11.88281 19.306933,16.336636 0 0 0 -1.2383,3.98828 19.306933,16.336636 0 0 0 -4.1211,10.08789 19.306933,16.336636 0 0 0 16.2637,16.13281 19.306933,16.336636 0 0 0 -0.031,0.94922 19.306933,16.336636 0 0 0 19.3067,16.33789 19.306933,16.336636 0 0 0 0.4199,-0.004 19.306933,16.336636 0 0 0 16.0566,12.21093 19.306933,16.336636 0 0 0 9.4239,2.08008 19.306933,16.336636 0 0 0 18.8945,-12.98437 19.306933,16.336636 0 0 0 1.0039,-0.13281 19.306933,16.336636 0 0 0 17.8008,10.01367 19.306933,16.336636 0 0 0 13.6797,-4.8086 19.306933,16.336636 0 0 0 2.1582,0.10352 19.306933,16.336636 0 0 0 17.1504,-8.83399 19.306933,16.336636 0 0 0 13.2304,4.43946 19.306933,16.336636 0 0 0 19.3067,-16.33789 19.306933,16.336636 0 0 0 -5.7149,-11.59961 19.306933,16.336636 0 0 0 0.043,-1.05469 19.306933,16.336636 0 0 0 -10.4863,-14.53125 19.306933,16.336636 0 0 0 -0.625,-2.6582 19.306933,16.336636 0 0 0 17.0351,8.65039 19.306933,16.336636 0 0 0 8.2285,-1.56055 19.306933,16.336636 0 0 0 11.5879,-14.97266 19.306933,16.336636 0 0 0 -7.7754,-13.10351 19.306933,16.336636 0 0 0 4.4102,-10.39258 19.306933,16.336636 0 0 0 -13.2266,-15.50391 19.306933,16.336636 0 0 0 -18.8242,-12.70703 19.306933,16.336636 0 0 0 -1.6484,0.0605 19.306933,16.336636 0 0 0 -0.6602,-1.57031 19.306933,16.336636 0 0 0 0,-0.0723 19.306933,16.336636 0 0 0 -19.3086,-16.33789 19.306933,16.336636 0 0 0 -7.1406,1.16016 19.306933,16.336636 0 0 0 -17.1602,-8.85157 19.306933,16.336636 0 0 0 -13.2129,4.42579 19.306933,16.336636 0 0 0 -13.3613,-6.59766 19.306933,16.336636 0 0 0 -12.0527,-3.57422 z m 44.2461,106.43164 a 19.306933,16.336636 0 0 0 5.834,2.21485 19.306933,16.336636 0 0 0 0.043,0.20312 19.306933,16.336636 0 0 0 -13.5957,4.80859 19.306933,16.336636 0 0 0 -2.1601,-0.10351 19.306933,16.336636 0 0 0 -3.5059,0.27344 19.306933,16.336636 0 0 0 -0.5234,-0.9668 19.306933,16.336636 0 0 0 9.7402,-5.39063 19.306933,16.336636 0 0 0 4.168,-1.03906 z"
         transform="scale(0.26458333)" />
      <g
         id="g998">
        <rect
           style="fill:#87542e;fill-opacity:1;fill-rule:evenodd;stroke-width:0.264583"
           id="rect793"
           width="19.63036"
           height="5.1209726"
           x="714.29596"
           y="527.05023"
           transform="rotate(-26.293533)" />
        <path
           id="use879"
           style="fill:#008000;fill-opacity:0.96;stroke-width:0;stroke-dasharray:none"
           d="m 3394.1484,527.38477 a 19.306933,16.336636 0 0 0 -14.7129,5.76171 19.306933,16.336636 0 0 0 -1.623,0.47461 19.306933,16.336636 0 0 0 -6.5605,-0.97265 19.306933,16.336636 0 0 0 -0.3418,0.002 19.306933,16.336636 0 0 0 -3.9122,-0.33984 19.306933,16.336636 0 0 0 -19.3066,16.33593 19.306933,16.336636 0 0 0 5.0898,11.05079 19.306933,16.336636 0 0 0 -0.01,0.36914 19.306933,16.336636 0 0 0 0.035,0.99218 19.306933,16.336636 0 0 0 -19.121,16.33399 19.306933,16.336636 0 0 0 18.9335,16.33398 19.306933,16.336636 0 0 0 16.752,8.21875 19.306933,16.336636 0 0 0 5.8203,-0.75976 19.306933,16.336636 0 0 0 16.4004,7.71484 19.306933,16.336636 0 0 0 18.0352,-10.50977 19.306933,16.336636 0 0 0 0.125,-0.0801 19.306933,16.336636 0 0 0 4.0234,0.35742 19.306933,16.336636 0 0 0 19.3066,-16.33594 19.306933,16.336636 0 0 0 -7.5117,-12.93359 19.306933,16.336636 0 0 0 6.418,-12.16211 19.306933,16.336636 0 0 0 -18.8262,-16.33203 19.306933,16.336636 0 0 0 -19.0176,-13.51953 z"
           transform="scale(0.26458333)" />
      </g>
      <use
         id="use889"
         inkscape:spray-origin="#path846"
         xlink:href="#path846"
         x="0"
         y="0"
         width="100%"
         height="100%"
         transform="translate(875.84939,118.40352)" />
      <rect
         style="fill:#87542e;fill-opacity:1;fill-rule:evenodd;stroke-width:0.315799"
         id="rect919"
         width="24.213144"
         height="5.9146309"
         x="-850.59528"
         y="-198.45451"
         transform="matrix(-0.91419789,-0.40526808,-0.4823856,0.87595898,0,0)" />
      <path
         id="use921"
         style="fill:#008000;fill-opacity:0.96;stroke-width:0;stroke-dasharray:none"
         d="m 847.92485,149.50828 a 5.1082926,4.3224016 19.95601 0 0 -3.77622,-0.061 5.1082926,4.3224016 19.95601 0 0 -0.22514,-0.0871 5.1082926,4.3224016 19.95601 0 0 -6.27684,2.31974 5.1082926,4.3224016 19.95601 0 0 -0.11565,0.38354 5.1082926,4.3224016 19.95601 0 0 -5.30673,2.58238 5.1082926,4.3224016 19.95601 0 0 1.32268,4.58654 5.1082926,4.3224016 19.95601 0 0 -3.12637,2.55821 5.1082926,4.3224016 19.95601 0 0 3.32634,5.80612 5.1082926,4.3224016 19.95601 0 0 3.7566,0.0682 5.1082926,4.3224016 19.95601 0 0 1.00309,0.87882 5.1082926,4.3224016 19.95601 0 0 3.32634,5.80612 5.1082926,4.3224016 19.95601 0 0 4.17302,-0.10056 5.1082926,4.3224016 19.95601 0 0 0.67134,1.17177 5.1082926,4.3224016 19.95601 0 0 4.94765,-1.82816 5.1082926,4.3224016 19.95601 0 0 1.20611,2.10486 5.1082926,4.3224016 19.95601 0 0 6.27715,-2.31909 5.1082926,4.3224016 19.95601 0 0 -1.40685,-2.45593 5.1082926,4.3224016 19.95601 0 0 0.83884,-0.31006 5.1082926,4.3224016 19.95601 0 0 -0.67509,-1.1781 5.1082926,4.3224016 19.95601 0 0 0.26101,-0.0966 5.1082926,4.3224016 19.95601 0 0 -0.75178,-1.31204 5.1082926,4.3224016 19.95601 0 0 3.36723,-1.2442 5.1082926,4.3224016 19.95601 0 0 -0.72444,-1.26474 5.1082926,4.3224016 19.95601 0 0 3.02005,-1.11625 5.1082926,4.3224016 19.95601 0 0 -3.32681,-5.8063 5.1082926,4.3224016 19.95601 0 0 -0.7563,0.27956 5.1082926,4.3224016 19.95601 0 0 -0.33167,-0.57949 5.1082926,4.3224016 19.95601 0 0 -1.18997,0.43986 5.1082926,4.3224016 19.95601 0 0 -1.69897,-0.955 5.1082926,4.3224016 19.95601 0 0 -0.0745,-0.0265 5.1082926,4.3224016 19.95601 0 0 -0.42292,-0.73852 5.1082926,4.3224016 19.95601 0 0 -0.4205,0.15574 5.1082926,4.3224016 19.95601 0 0 -3.18681,-3.37712 5.1082926,4.3224016 19.95601 0 0 -0.19595,-0.30371 5.1082926,4.3224016 19.95601 0 0 -3.50803,-3.98087 z"
         inkscape:transform-center-x="2.9872312"
         inkscape:transform-center-y="2.1337366" />
    </g>
  </g>
</svg>
