<?xml version="1.0" encoding="UTF-8" standalone="no"?>
<svg
   xmlns:dc="http://purl.org/dc/elements/1.1/"
   xmlns:cc="http://creativecommons.org/ns#"
   xmlns:rdf="http://www.w3.org/1999/02/22-rdf-syntax-ns#"
   xmlns:svg="http://www.w3.org/2000/svg"
   xmlns="http://www.w3.org/2000/svg"
   xmlns:sodipodi="http://sodipodi.sourceforge.net/DTD/sodipodi-0.dtd"
   xmlns:inkscape="http://www.inkscape.org/namespaces/inkscape"
   width="210mm"
   height="297mm"
   viewBox="0 0 210 297"
   version="1.1"
   id="svg854"
   inkscape:version="1.0.2-2 (e86c870879, 2021-01-15)"
   sodipodi:docname="robin.svg">
  <defs
     id="defs848" />
  <sodipodi:namedview
     id="base"
     pagecolor="#ffffff"
     bordercolor="#666666"
     borderopacity="1.0"
     inkscape:pageopacity="0.0"
     inkscape:pageshadow="2"
     inkscape:zoom="2.02"
     inkscape:cx="297.34435"
     inkscape:cy="515.07779"
     inkscape:document-units="mm"
     inkscape:current-layer="layer1"
     inkscape:document-rotation="0"
     showgrid="false"
     inkscape:snap-global="false"
     inkscape:window-width="1920"
     inkscape:window-height="1017"
     inkscape:window-x="-8"
     inkscape:window-y="-8"
     inkscape:window-maximized="1" />
  <metadata
     id="metadata851">
    <rdf:RDF>
      <cc:Work
         rdf:about="">
        <dc:format>image/svg+xml</dc:format>
        <dc:type
           rdf:resource="http://purl.org/dc/dcmitype/StillImage" />
        <dc:title></dc:title>
      </cc:Work>
    </rdf:RDF>
  </metadata>
  <g
     inkscape:label="Layer 1"
     inkscape:groupmode="layer"
     id="layer1">
    <g
       id="g1497"
       transform="translate(5.6322195,-7.2040017)">
      <rect
         style="fill:#ffb000;fill-opacity:1;fill-rule:evenodd;stroke-width:0.264583"
         id="rect1489"
         width="5.8941803"
         height="1.440801"
         x="81.339729"
         y="103.73762"
         ry="0.72040051" />
      <rect
         style="fill:#ffb000;fill-opacity:1;fill-rule:evenodd;stroke-width:0.264583"
         id="rect1485"
         width="2.2266915"
         height="20.695131"
         x="82.780533"
         y="83.566414"
         ry="0.85349554" />
    </g>
    <path
       id="path1463"
       style="fill:#83572c;fill-opacity:1;stroke-width:0;stroke-dasharray:none"
       d="m 109.39166,44.773369 a 11.293126,6.5586469 54.410817 0 0 -7.69645,-2.103904 L 61.452415,45.332003 77.884058,50.241 61.448074,55.242513 82.489771,58.137542 70.022677,68.01097 109.56612,61.899126 a 11.293126,6.5586469 54.410817 0 0 6.20081,-3.03068 l -4.58971,-3.676428 -0.002,-0.0031 4.59229,3.675827 a 11.293126,6.5586469 54.410817 0 0 -6.30963,-14.038262 11.293126,6.5586469 54.410817 0 0 -0.0665,-0.05327 z" />
    <path
       id="path856"
       style="fill:#727141;fill-opacity:1;stroke-width:0;stroke-dasharray:none"
       d="M 439.66211 223.99023 L 405.19727 224.00977 L 439.65039 224.00977 A 46.783326 126.33871 44.440317 0 0 439.66211 223.99023 z "
       transform="scale(0.26458333)" />
    <path
       id="path1442"
       style="fill:#727141;fill-opacity:1;stroke-width:0;stroke-dasharray:none"
       d="M 455 173.53125 A 39.947151 70.978201 42.924994 0 1 455.21289 173.77148 A 39.947151 70.978201 42.924994 0 1 455.50195 174.11133 A 39.947151 70.978201 42.924994 0 1 455.7832 174.45508 A 39.947151 70.978201 42.924994 0 1 456.05859 174.80664 A 39.947151 70.978201 42.924994 0 1 456.32812 175.16406 A 39.947151 70.978201 42.924994 0 1 456.5918 175.52734 A 39.947151 70.978201 42.924994 0 1 456.84961 175.89648 A 39.947151 70.978201 42.924994 0 1 457.09961 176.26953 A 39.947151 70.978201 42.924994 0 1 457.34375 176.65039 A 39.947151 70.978201 42.924994 0 1 457.58203 177.03711 A 39.947151 70.978201 42.924994 0 1 457.8125 177.42969 A 39.947151 70.978201 42.924994 0 1 458.03711 177.82812 A 39.947151 70.978201 42.924994 0 1 458.25586 178.23242 A 39.947151 70.978201 42.924994 0 1 458.46875 178.64062 A 39.947151 70.978201 42.924994 0 1 458.67383 179.05664 A 39.947151 70.978201 42.924994 0 1 458.87305 179.47656 A 39.947151 70.978201 42.924994 0 1 458.9082 179.55469 A 46.783326 126.33871 44.440317 0 0 459.90039 169.75781 L 455 173.53125 z "
       transform="scale(0.26458333)" />
    <g
       id="g1467"
       transform="matrix(0.87172672,0,0,0.93551755,15.608545,2.5017637)">
      <path
         id="path1440"
         style="fill:#bd3f35;fill-opacity:1;stroke-width:0;stroke-dasharray:none"
         d="m 120.3849,45.903578 a 10.56935,18.779649 42.924994 0 0 -0.0176,-0.01964 10.56935,18.779649 42.924994 0 0 -0.0796,-0.0863 10.56935,18.779649 42.924994 0 0 -0.0811,-0.08475 10.56935,18.779649 42.924994 0 0 -0.0827,-0.0832 10.56935,18.779649 42.924994 0 0 -0.0842,-0.08113 10.56935,18.779649 42.924994 0 0 -0.0858,-0.07958 10.56935,18.779649 42.924994 0 0 -0.0873,-0.07803 10.56935,18.779649 42.924994 0 0 -0.0889,-0.07648 10.56935,18.779649 42.924994 0 0 -0.091,-0.07441 10.56935,18.779649 42.924994 0 0 -0.092,-0.07286 10.56935,18.779649 42.924994 0 0 -0.0935,-0.0708 10.56935,18.779649 42.924994 0 0 -0.0951,-0.06976 10.56935,18.779649 42.924994 0 0 -0.0966,-0.0677 10.56935,18.779649 42.924994 0 0 -0.0977,-0.06563 10.56935,18.779649 42.924994 0 0 -0.0997,-0.06408 10.56935,18.779649 42.924994 0 0 -0.10077,-0.06253 10.56935,18.779649 42.924994 0 0 -0.10232,-0.06046 10.56935,18.779649 42.924994 0 0 -0.10387,-0.05891 10.56935,18.779649 42.924994 0 0 -0.10541,-0.05684 10.56935,18.779649 42.924994 0 0 -0.10697,-0.05529 10.56935,18.779649 42.924994 0 0 -0.10801,-0.05323 10.56935,18.779649 42.924994 0 0 -0.10955,-0.05168 10.56935,18.779649 42.924994 0 0 -0.11059,-0.04961 10.56935,18.779649 42.924994 0 0 -0.11214,-0.04754 10.56935,18.779649 42.924994 0 0 -0.11369,-0.04651 10.56935,18.779649 42.924994 0 0 -0.11472,-0.04392 10.56935,18.779649 42.924994 0 0 -0.11627,-0.04238 10.56935,18.779649 42.924994 0 0 -0.11782,-0.04082 10.56935,18.779649 42.924994 0 0 -0.11834,-0.03824 10.56935,18.779649 42.924994 0 0 -0.12041,-0.03721 10.56935,18.779649 42.924994 0 0 -0.12092,-0.03462 10.56935,18.779649 42.924994 0 0 -0.12299,-0.03307 10.56935,18.779649 42.924994 0 0 -0.12351,-0.03152 10.56935,18.779649 42.924994 0 0 -0.12505,-0.02894 10.56935,18.779649 42.924994 0 0 -0.12609,-0.0279 10.56935,18.779649 42.924994 0 0 -0.12765,-0.02532 10.56935,18.779649 42.924994 0 0 -0.12815,-0.02377 10.56935,18.779649 42.924994 0 0 -0.12971,-0.0217 10.56935,18.779649 42.924994 0 0 -0.13074,-0.02016 10.56935,18.779649 42.924994 0 0 -0.13229,-0.01757 10.56935,18.779649 42.924994 0 0 -0.13281,-0.01654 10.56935,18.779649 42.924994 0 0 -0.13436,-0.01395 10.56935,18.779649 42.924994 0 0 -0.13488,-0.0124 10.56935,18.779649 42.924994 0 0 -0.13642,-0.01033 10.56935,18.779649 42.924994 0 0 -0.13746,-0.0088 10.56935,18.779649 42.924994 0 0 -0.13798,-0.0062 10.56935,18.779649 42.924994 0 0 -0.13952,-0.0047 10.56935,18.779649 42.924994 0 0 -0.14005,-0.0031 10.56935,18.779649 42.924994 0 0 -0.14159,-10e-4 10.56935,18.779649 42.924994 0 0 -0.10645,10e-4 10.56935,18.779649 42.924994 0 0 -0.14315,0.0021 10.56935,18.779649 42.924994 0 0 -0.14366,0.0047 10.56935,18.779649 42.924994 0 0 -0.14469,0.0062 10.56935,18.779649 42.924994 0 0 -0.14573,0.0083 10.56935,18.779649 42.924994 0 0 -0.14624,0.0098 10.56935,18.779649 42.924994 0 0 -0.14728,0.01189 10.56935,18.779649 42.924994 0 0 -0.14831,0.01395 10.56935,18.779649 42.924994 0 0 -0.14883,0.01602 10.56935,18.779649 42.924994 0 0 -0.14986,0.01757 10.56935,18.779649 42.924994 0 0 -0.15038,0.01964 10.56935,18.779649 42.924994 0 0 -0.15141,0.02119 10.56935,18.779649 42.924994 0 0 -0.15193,0.02325 10.56935,18.779649 42.924994 0 0 -0.15296,0.02532 10.56935,18.779649 42.924994 0 0 -0.15348,0.02687 10.56935,18.779649 42.924994 0 0 -0.154,0.02946 10.56935,18.779649 42.924994 0 0 -0.15503,0.03049 10.56935,18.779649 42.924994 0 0 -0.15503,0.03307 10.56935,18.779649 42.924994 0 0 -0.15606,0.03462 10.56935,18.779649 42.924994 0 0 -0.1571,0.03617 10.56935,18.779649 42.924994 0 0 -0.15709,0.03824 10.56935,18.779649 42.924994 0 0 -0.15762,0.04031 10.56935,18.779649 42.924994 0 0 -0.15864,0.04186 10.56935,18.779649 42.924994 0 0 -0.15865,0.04392 10.56935,18.779649 42.924994 0 0 -0.15968,0.04599 10.56935,18.779649 42.924994 0 0 -0.15968,0.04754 10.56935,18.779649 42.924994 0 0 -0.16071,0.04909 10.56935,18.779649 42.924994 0 0 -0.16072,0.05116 10.56935,18.779649 42.924994 0 0 -0.16123,0.05323 10.56935,18.779649 42.924994 0 0 -0.16174,0.05478 10.56935,18.779649 42.924994 0 0 -0.16175,0.05684 10.56935,18.779649 42.924994 0 0 -0.16226,0.0584 10.56935,18.779649 42.924994 0 0 -0.16279,0.05994 10.56935,18.779649 42.924994 0 0 -0.16329,0.06201 10.56935,18.779649 42.924994 0 0 -0.1633,0.06408 10.56935,18.779649 42.924994 0 0 -0.16381,0.06563 10.56935,18.779649 42.924994 0 0 -0.16382,0.06718 10.56935,18.779649 42.924994 0 0 -0.16433,0.06873 10.56935,18.779649 42.924994 0 0 -0.16433,0.0708 10.56935,18.779649 42.924994 0 0 -0.16485,0.07286 10.56935,18.779649 42.924994 0 0 -0.16485,0.0739 10.56935,18.779649 42.924994 0 0 -0.16485,0.07596 10.56935,18.779649 42.924994 0 0 -0.16536,0.07803 10.56935,18.779649 42.924994 0 0 -0.16536,0.07906 10.56935,18.779649 42.924994 0 0 -0.16537,0.08113 10.56935,18.779649 42.924994 0 0 -0.16536,0.08268 10.56935,18.779649 42.924994 0 0 -0.16537,0.08423 10.56935,18.779649 42.924994 0 0 -0.16588,0.0863 10.56935,18.779649 42.924994 0 0 -0.16536,0.08785 10.56935,18.779649 42.924994 0 0 -0.16589,0.08888 10.56935,18.779649 42.924994 0 0 -0.16536,0.09095 10.56935,18.779649 42.924994 0 0 -0.16588,0.09302 10.56935,18.779649 42.924994 0 0 -0.16537,0.09405 10.56935,18.779649 42.924994 0 0 -0.16536,0.0956 10.56935,18.779649 42.924994 0 0 -0.16537,0.09715 10.56935,18.779649 42.924994 0 0 -0.16536,0.09922 10.56935,18.779649 42.924994 0 0 -0.16536,0.100254 10.56935,18.779649 42.924994 0 0 -0.16485,0.101801 10.56935,18.779649 42.924994 0 0 -0.16485,0.10387 10.56935,18.779649 42.924994 0 0 -0.16433,0.104904 10.56935,18.779649 42.924994 0 0 -0.16485,0.106453 10.56935,18.779649 42.924994 0 0 -0.16381,0.108003 10.56935,18.779649 42.924994 0 0 -0.16382,0.109556 10.56935,18.779649 42.924994 0 0 -0.16381,0.111104 10.56935,18.779649 42.924994 0 0 -0.1633,0.112138 10.56935,18.779649 42.924994 0 0 -0.16278,0.113686 10.56935,18.779649 42.924994 0 0 -0.16278,0.115755 10.56935,18.779649 42.924994 0 0 -0.16226,0.116274 10.56935,18.779649 42.924994 0 0 -0.16227,0.118338 10.56935,18.779649 42.924994 0 0 -0.16123,0.119372 10.56935,18.779649 42.924994 0 0 -0.16123,0.120925 10.56935,18.779649 42.924994 0 0 -0.16071,0.121954 10.56935,18.779649 42.924994 0 0 -0.1602,0.123508 10.56935,18.779649 42.924994 0 0 -0.15968,0.124539 10.56935,18.779649 42.924994 0 0 -0.15916,0.126609 10.56935,18.779649 42.924994 0 0 -0.15865,0.127124 10.56935,18.779649 42.924994 0 0 -0.15813,0.128672 10.56935,18.779649 42.924994 0 0 -0.15813,0.129709 10.56935,18.779649 42.924994 0 0 -0.1571,0.131258 10.56935,18.779649 42.924994 0 0 -0.15606,0.132291 10.56935,18.779649 42.924994 0 0 -0.15606,0.133842 10.56935,18.779649 42.924994 0 0 -0.15503,0.134877 10.56935,18.779649 42.924994 0 0 -0.15503,0.135909 10.56935,18.779649 42.924994 0 0 -0.15348,0.136943 10.56935,18.779649 42.924994 0 0 -0.15348,0.138493 10.56935,18.779649 42.924994 0 0 -0.15245,0.139525 10.56935,18.779649 42.924994 0 0 -0.15192,0.140044 10.56935,18.779649 42.924994 0 0 -0.1509,0.141592 10.56935,18.779649 42.924994 0 0 -0.15038,0.143145 10.56935,18.779649 42.924994 0 0 -0.14934,0.143661 10.56935,18.779649 42.924994 0 0 -0.14883,0.144693 10.56935,18.779649 42.924994 0 0 -0.14779,0.145727 10.56935,18.779649 42.924994 0 0 -0.14729,0.146762 10.56935,18.779649 42.924994 0 0 -0.14624,0.147793 10.56935,18.779649 42.924994 0 0 -0.145213,0.148828 10.56935,18.779649 42.924994 0 0 -0.144693,0.149347 10.56935,18.779649 42.924994 0 0 -0.143144,0.150894 10.56935,18.779649 42.924994 0 0 -0.142627,0.151414 10.56935,18.779649 42.924994 0 0 -0.14211,0.152445 10.56935,18.779649 42.924994 0 0 -0.14056,0.15296 10.56935,18.779649 42.924994 0 0 -0.139525,0.154514 10.56935,18.779649 42.924994 0 0 -0.13901,0.155028 10.56935,18.779649 42.924994 0 0 -0.137461,0.155546 10.56935,18.779649 42.924994 0 0 -0.136941,0.15658 10.56935,18.779649 42.924994 0 0 -0.135392,0.157612 10.56935,18.779649 42.924994 0 0 -0.134877,0.158131 10.56935,18.779649 42.924994 0 0 -0.133324,0.158647 10.56935,18.779649 42.924994 0 0 -0.132291,0.159681 10.56935,18.779649 42.924994 0 0 -0.131776,0.160198 10.56935,18.779649 42.924994 0 0 -0.130225,0.161229 10.56935,18.779649 42.924994 0 0 -0.128675,0.161229 10.56935,18.779649 42.924994 0 0 -0.128156,0.162266 10.56935,18.779649 42.924994 0 0 -0.126609,0.16278 10.56935,18.779649 42.924994 0 0 -0.125574,0.163814 10.56935,18.779649 42.924994 0 0 -0.124023,0.163814 10.56935,18.779649 42.924994 0 0 -0.123505,0.164849 10.56935,18.779649 42.924994 0 0 -0.121441,0.165364 10.56935,18.779649 42.924994 0 0 -0.120923,0.165365 10.56935,18.779649 42.924994 0 0 -0.119372,0.166399 10.56935,18.779649 42.924994 0 0 -0.117821,0.166396 10.56935,18.779649 42.924994 0 0 -0.11679,0.167431 10.56935,18.779649 42.924994 0 0 -0.115755,0.167434 10.56935,18.779649 42.924994 0 0 -0.114205,0.167947 10.56935,18.779649 42.924994 0 0 -0.112654,0.168465 10.56935,18.779649 42.924994 0 0 -0.111623,0.168982 10.56935,18.779649 42.924994 0 0 -0.110069,0.168981 10.56935,18.779649 42.924994 0 0 -0.108521,0.1695 10.56935,18.779649 42.924994 0 0 -0.107487,0.169498 10.56935,18.779649 42.924994 0 0 -0.105937,0.170016 10.56935,18.779649 42.924994 0 0 -0.104386,0.170532 10.56935,18.779649 42.924994 0 0 -0.102836,0.170531 10.56935,18.779649 42.924994 0 0 -0.101803,0.171051 10.56935,18.779649 42.924994 0 0 -0.100251,0.171048 10.56935,18.779649 42.924994 0 0 -0.0987,0.17105 10.56935,18.779649 42.924994 0 0 -0.09715,0.171567 10.56935,18.779649 42.924994 0 0 -0.0956,0.171563 10.56935,18.779649 42.924994 0 0 -0.09405,0.171567 10.56935,18.779649 42.924994 0 0 -0.09302,0.171566 10.56935,18.779649 42.924994 0 0 -0.09095,0.172083 10.56935,18.779649 42.924994 0 0 -0.08992,0.172082 10.56935,18.779649 42.924994 0 0 -0.08785,0.171566 10.56935,18.779649 42.924994 0 0 -0.08682,0.172083 10.56935,18.779649 42.924994 0 0 -0.06356,0.129191 10.56935,18.779649 42.924994 0 0 -0.08423,0.172082 10.56935,18.779649 42.924994 0 0 -0.08217,0.172082 10.56935,18.779649 42.924994 0 0 -0.08062,0.171567 10.56935,18.779649 42.924994 0 0 -0.07855,0.172082 10.56935,18.779649 42.924994 0 0 -0.07752,0.171566 10.56935,18.779649 42.924994 0 0 -0.07596,0.171564 10.56935,18.779649 42.924994 0 0 -0.0739,0.171567 10.56935,18.779649 42.924994 0 0 -0.07234,0.171047 10.56935,18.779649 42.924994 0 0 -0.0708,0.171051 10.56935,18.779649 42.924994 0 0 -0.06925,0.171048 10.56935,18.779649 42.924994 0 0 -0.0677,0.170532 10.56935,18.779649 42.924994 0 0 -0.06563,0.170534 10.56935,18.779649 42.924994 0 0 -0.06408,0.170013 10.56935,18.779649 42.924994 0 0 -0.06253,0.170016 10.56935,18.779649 42.924994 0 0 -0.06046,0.1695 10.56935,18.779649 42.924994 0 0 -0.05891,0.168982 10.56935,18.779649 42.924994 0 0 -0.05736,0.168981 10.56935,18.779649 42.924994 0 0 -0.05581,0.168466 10.56935,18.779649 42.924994 0 0 -0.05374,0.167949 10.56935,18.779649 42.924994 0 0 -0.05168,0.167431 10.56935,18.779649 42.924994 0 0 -0.05064,0.167431 10.56935,18.779649 42.924994 0 0 -0.04858,0.166915 10.56935,18.779649 42.924994 0 0 -0.04651,0.166399 10.56935,18.779649 42.924994 0 0 -0.04547,0.165365 10.56935,18.779649 42.924994 0 0 -0.04289,0.165365 10.56935,18.779649 42.924994 0 0 -0.04186,0.164846 10.56935,18.779649 42.924994 0 0 -0.03979,0.164332 10.56935,18.779649 42.924994 0 0 -0.03772,0.163296 10.56935,18.779649 42.924994 0 0 -0.03617,0.163298 10.56935,18.779649 42.924994 0 0 -0.03411,0.162264 10.56935,18.779649 42.924994 0 0 -0.03256,0.161747 10.56935,18.779649 42.924994 0 0 -0.031,0.161232 10.56935,18.779649 42.924994 0 0 -0.02894,0.160195 10.56935,18.779649 42.924994 0 0 -0.02687,0.159681 10.56935,18.779649 42.924994 0 0 -0.02584,0.159163 10.56935,18.779649 42.924994 0 0 -0.02325,0.158131 10.56935,18.779649 42.924994 0 0 -0.0217,0.157612 10.56935,18.779649 42.924994 0 0 -0.01964,0.157096 10.56935,18.779649 42.924994 0 0 -0.01809,0.155546 10.56935,18.779649 42.924994 0 0 -0.01654,0.155546 10.56935,18.779649 42.924994 0 0 -0.01447,0.153996 10.56935,18.779649 42.924994 0 0 -0.0124,0.153479 10.56935,18.779649 42.924994 0 0 -0.01085,0.152448 10.56935,18.779649 42.924994 0 0 -0.0088,0.151926 10.56935,18.779649 42.924994 0 0 -0.0072,0.150897 10.56935,18.779649 42.924994 0 0 -0.0052,0.14986 10.56935,18.779649 42.924994 0 0 -0.0036,0.148828 10.56935,18.779649 42.924994 0 0 -0.0015,0.147797 10.56935,18.779649 42.924994 0 0 5.16e-4,0.147277 10.56935,18.779649 42.924994 0 0 0.0021,0.145728 10.56935,18.779649 42.924994 0 0 0.0041,0.145211 10.56935,18.779649 42.924994 0 0 0.0057,0.143658 10.56935,18.779649 42.924994 0 0 0.0072,0.143145 10.56935,18.779649 42.924994 0 0 0.0098,0.141594 10.56935,18.779649 42.924994 0 0 0.01137,0.141076 10.56935,18.779649 42.924994 0 0 0.01292,0.139526 10.56935,18.779649 42.924994 0 0 0.01499,0.138493 10.56935,18.779649 42.924994 0 0 0.01654,0.137459 10.56935,18.779649 42.924994 0 0 0.0186,0.135909 10.56935,18.779649 42.924994 0 0 0.02067,0.134876 10.56935,18.779649 42.924994 0 0 0.02222,0.133842 10.56935,18.779649 42.924994 0 0 0.02377,0.132808 10.56935,18.779649 42.924994 0 0 0.02584,0.13126 10.56935,18.779649 42.924994 0 0 0.02791,0.130222 10.56935,18.779649 42.924994 0 0 0.02946,0.129191 10.56935,18.779649 42.924994 0 0 0.03101,0.127643 10.56935,18.779649 42.924994 0 0 0.03307,0.12609 10.56935,18.779649 42.924994 0 0 0.03514,0.125574 10.56935,18.779649 42.924994 0 0 0.03669,0.123507 10.56935,18.779649 42.924994 0 0 0.03824,0.122473 10.56935,18.779649 42.924994 0 0 0.04031,0.120923 10.56935,18.779649 42.924994 0 0 0.04186,0.119888 10.56935,18.779649 42.924994 0 0 0.04393,0.11834 10.56935,18.779649 42.924994 0 0 0.04547,0.116787 10.56935,18.779649 42.924994 0 0 0.04754,0.115755 10.56935,18.779649 42.924994 0 0 0.04909,0.114208 10.56935,18.779649 42.924994 0 0 0.05064,0.112654 10.56935,18.779649 42.924994 0 0 0.05271,0.111104 10.56935,18.779649 42.924994 0 0 0.05426,0.110069 10.56935,18.779649 42.924994 0 0 0.05581,0.108006 10.56935,18.779649 42.924994 0 0 0.05788,0.106968 10.56935,18.779649 42.924994 0 0 0.05942,0.105421 10.56935,18.779649 42.924994 0 0 0.06098,0.10387 10.56935,18.779649 42.924994 0 0 0.06305,0.102319 10.56935,18.779649 42.924994 0 0 0.0646,0.10077 10.56935,18.779649 42.924994 0 0 0.06615,0.09922 10.56935,18.779649 42.924994 0 0 0.06821,0.09767 10.56935,18.779649 42.924994 0 0 0.06925,0.0956 10.56935,18.779649 42.924994 0 0 0.07131,0.09457 10.56935,18.779649 42.924994 0 0 0.07338,0.09302 10.56935,18.779649 42.924994 0 0 0.07441,0.09147 10.56935,18.779649 42.924994 0 0 0.07596,0.0894 10.56935,18.779649 42.924994 0 0 0.07803,0.08785 10.56935,18.779649 42.924994 0 0 0.07958,0.08682 10.56935,18.779649 42.924994 0 0 0.08062,0.08475 10.56935,18.779649 42.924994 0 0 0.08268,0.08268 10.56935,18.779649 42.924994 0 0 0.08423,0.08165 10.56935,18.779649 42.924994 0 0 0.08578,0.07958 10.56935,18.779649 42.924994 0 0 0.08733,0.07803 10.56935,18.779649 42.924994 0 0 0.0894,0.07648 10.56935,18.779649 42.924994 0 0 0.09043,0.07441 10.56935,18.779649 42.924994 0 0 0.09198,0.07286 10.56935,18.779649 42.924994 0 0 0.09354,0.07131 10.56935,18.779649 42.924994 0 0 0.09508,0.06925 10.56935,18.779649 42.924994 0 0 0.09612,0.0677 10.56935,18.779649 42.924994 0 0 0.09819,0.06563 10.56935,18.779649 42.924994 0 0 0.09922,0.0646 10.56935,18.779649 42.924994 0 0 0.101285,0.06201 10.56935,18.779649 42.924994 0 0 0.10232,0.06098 10.56935,18.779649 42.924994 0 0 0.10387,0.0584 10.56935,18.779649 42.924994 0 0 0.105418,0.05736 10.56935,18.779649 42.924994 0 0 0.106455,0.05478 10.56935,18.779649 42.924994 0 0 0.108003,0.05374 10.56935,18.779649 42.924994 0 0 0.109554,0.05168 10.56935,18.779649 42.924994 0 0 0.110587,0.04961 10.56935,18.779649 42.924994 0 0 0.112139,0.04806 10.56935,18.779649 42.924994 0 0 0.113689,0.04599 10.56935,18.779649 42.924994 0 0 0.11472,0.04393 10.56935,18.779649 42.924994 0 0 0.116271,0.04289 10.56935,18.779649 42.924994 0 0 0.117306,0.04031 10.56935,18.779649 42.924994 0 0 0.118856,0.03876 10.56935,18.779649 42.924994 0 0 0.120407,0.03669 10.56935,18.779649 42.924994 0 0 0.120922,0.03514 10.56935,18.779649 42.924994 0 0 0.122473,0.03307 10.56935,18.779649 42.924994 0 0 0.124024,0.03152 10.56935,18.779649 42.924994 0 0 0.125058,0.02894 10.56935,18.779649 42.924994 0 0 0.12609,0.02791 10.56935,18.779649 42.924994 0 0 0.127124,0.02532 10.56935,18.779649 42.924994 0 0 0.128675,0.02377 10.56935,18.779649 42.924994 0 0 0.129706,0.0217 10.56935,18.779649 42.924994 0 0 0.130742,0.02015 10.56935,18.779649 42.924994 0 0 0.131775,0.01809 10.56935,18.779649 42.924994 0 0 0.133327,0.01602 10.56935,18.779649 42.924994 0 0 0.133842,0.01447 10.56935,18.779649 42.924994 0 0 0.135392,0.0124 10.56935,18.779649 42.924994 0 0 0.135909,0.01033 10.56935,18.779649 42.924994 0 0 0.137459,0.0083 10.56935,18.779649 42.924994 0 0 0.137975,0.0067 10.56935,18.779649 42.924994 0 0 0.139528,0.0047 10.56935,18.779649 42.924994 0 0 0.140041,0.0031 10.56935,18.779649 42.924994 0 0 0.141594,0.001 10.56935,18.779649 42.924994 0 0 0.106453,-5.16e-4 10.56935,18.779649 42.924994 0 0 0.143145,-0.0026 10.56935,18.779649 42.924994 0 0 0.143661,-0.0041 10.56935,18.779649 42.924994 0 0 0.144694,-0.0062 10.56935,18.779649 42.924994 0 0 0.14573,-0.0083 10.56935,18.779649 42.924994 0 0 0.14625,-0.0098 10.56935,18.779649 42.924994 0 0 0.14727,-0.0124 10.56935,18.779649 42.924994 0 0 0.14832,-0.01344 10.56935,18.779649 42.924994 0 0 0.14882,-0.01602 10.56935,18.779649 42.924994 0 0 0.14986,-0.01757 10.56935,18.779649 42.924994 0 0 0.15038,-0.01964 10.56935,18.779649 42.924994 0 0 0.15142,-0.02119 10.56935,18.779649 42.924994 0 0 0.15192,-0.02326 10.56935,18.779649 42.924994 0 0 0.15245,-0.02532 10.56935,18.779649 42.924994 0 0 0.15348,-0.02687 10.56935,18.779649 42.924994 0 0 0.15451,-0.02894 10.56935,18.779649 42.924994 0 0 0.15451,-0.03101 10.56935,18.779649 42.924994 0 0 0.15555,-0.03255 10.56935,18.779649 42.924994 0 0 0.15606,-0.03462 10.56935,18.779649 42.924994 0 0 0.15658,-0.03617 10.56935,18.779649 42.924994 0 0 0.1571,-0.03876 10.56935,18.779649 42.924994 0 0 0.15813,-0.03979 10.56935,18.779649 42.924994 0 0 0.15813,-0.04237 10.56935,18.779649 42.924994 0 0 0.15916,-0.04341 10.56935,18.779649 42.924994 0 0 0.15916,-0.04599 10.56935,18.779649 42.924994 0 0 0.15969,-0.04754 10.56935,18.779649 42.924994 0 0 0.16071,-0.04909 10.56935,18.779649 42.924994 0 0 0.16071,-0.05116 10.56935,18.779649 42.924994 0 0 0.16123,-0.05323 10.56935,18.779649 42.924994 0 0 0.16175,-0.05478 10.56935,18.779649 42.924994 0 0 0.16175,-0.05633 10.56935,18.779649 42.924994 0 0 0.16226,-0.0584 10.56935,18.779649 42.924994 0 0 0.16278,-0.06046 10.56935,18.779649 42.924994 0 0 0.10284,-0.03927 12.378088,33.427117 44.440317 0 0 11.70936,-14.470433 h -9.11572 l 9.11882,-0.0052 a 12.378088,33.427117 44.440317 0 0 5.0922,-11.756903 10.56935,18.779649 42.924994 0 0 -0.009,-0.02067 10.56935,18.779649 42.924994 0 0 -0.0527,-0.111104 10.56935,18.779649 42.924994 0 0 -0.0543,-0.110072 10.56935,18.779649 42.924994 0 0 -0.0563,-0.108003 10.56935,18.779649 42.924994 0 0 -0.0579,-0.106971 10.56935,18.779649 42.924994 0 0 -0.0594,-0.105418 10.56935,18.779649 42.924994 0 0 -0.061,-0.10387 10.56935,18.779649 42.924994 0 0 -0.063,-0.10232 10.56935,18.779649 42.924994 0 0 -0.0646,-0.100769 10.56935,18.779649 42.924994 0 0 -0.0661,-0.0987 10.56935,18.779649 42.924994 0 0 -0.0682,-0.09767 10.56935,18.779649 42.924994 0 0 -0.0698,-0.09612 10.56935,18.779649 42.924994 0 0 -0.0713,-0.09457 10.56935,18.779649 42.924994 0 0 -0.0729,-0.09302 10.56935,18.779649 42.924994 0 0 -0.0744,-0.09095 10.56935,18.779649 42.924994 0 0 -0.0765,-0.08992 10.56935,18.779649 42.924994 0 0 -0.0563,-0.06356 L 96.667483,64.176364 Z" />
      <path
         id="path1438"
         style="fill:#9b632c;fill-opacity:1;stroke-width:0;stroke-dasharray:none"
         d="m 115.64358,38.797629 a 12.378088,33.427117 44.440317 0 0 -18.987466,8.85889 12.378088,33.427117 44.440317 0 0 -25.008808,35.801951 12.378088,33.427117 44.440317 0 0 25.020177,-2.733167 12.378088,33.427117 44.440317 0 0 7.947317,-6.97787 10.56935,18.779649 42.924994 0 1 -0.10283,0.03928 10.56935,18.779649 42.924994 0 1 -0.16279,0.06046 10.56935,18.779649 42.924994 0 1 -0.16226,0.0584 10.56935,18.779649 42.924994 0 1 -0.16175,0.05633 10.56935,18.779649 42.924994 0 1 -0.16174,0.05478 10.56935,18.779649 42.924994 0 1 -0.16123,0.05323 10.56935,18.779649 42.924994 0 1 -0.16072,0.05116 10.56935,18.779649 42.924994 0 1 -0.16071,0.04909 10.56935,18.779649 42.924994 0 1 -0.15968,0.04754 10.56935,18.779649 42.924994 0 1 -0.15917,0.04599 10.56935,18.779649 42.924994 0 1 -0.15916,0.04341 10.56935,18.779649 42.924994 0 1 -0.15813,0.04237 10.56935,18.779649 42.924994 0 1 -0.15813,0.03979 10.56935,18.779649 42.924994 0 1 -0.15709,0.03876 10.56935,18.779649 42.924994 0 1 -0.15658,0.03617 10.56935,18.779649 42.924994 0 1 -0.15607,0.03462 10.56935,18.779649 42.924994 0 1 -0.15554,0.03255 10.56935,18.779649 42.924994 0 1 -0.15452,0.03101 10.56935,18.779649 42.924994 0 1 -0.15451,0.02894 10.56935,18.779649 42.924994 0 1 -0.15348,0.02687 10.56935,18.779649 42.924994 0 1 -0.15244,0.02532 10.56935,18.779649 42.924994 0 1 -0.15193,0.02325 10.56935,18.779649 42.924994 0 1 -0.15141,0.02119 10.56935,18.779649 42.924994 0 1 -0.15038,0.01964 10.56935,18.779649 42.924994 0 1 -0.14986,0.01757 10.56935,18.779649 42.924994 0 1 -0.14883,0.01602 10.56935,18.779649 42.924994 0 1 -0.14831,0.01344 10.56935,18.779649 42.924994 0 1 -0.14728,0.0124 10.56935,18.779649 42.924994 0 1 -0.14625,0.0098 10.56935,18.779649 42.924994 0 1 -0.14572,0.0083 10.56935,18.779649 42.924994 0 1 -0.144696,0.0062 10.56935,18.779649 42.924994 0 1 -0.143661,0.0041 10.56935,18.779649 42.924994 0 1 -0.143144,0.0026 10.56935,18.779649 42.924994 0 1 -0.106453,5.16e-4 10.56935,18.779649 42.924994 0 1 -0.141594,-0.001 10.56935,18.779649 42.924994 0 1 -0.140042,-0.0031 10.56935,18.779649 42.924994 0 1 -0.139528,-0.0047 10.56935,18.779649 42.924994 0 1 -0.137975,-0.0067 10.56935,18.779649 42.924994 0 1 -0.137459,-0.0083 10.56935,18.779649 42.924994 0 1 -0.135908,-0.01033 10.56935,18.779649 42.924994 0 1 -0.135393,-0.0124 10.56935,18.779649 42.924994 0 1 -0.133842,-0.01447 10.56935,18.779649 42.924994 0 1 -0.133326,-0.01602 10.56935,18.779649 42.924994 0 1 -0.131776,-0.01809 10.56935,18.779649 42.924994 0 1 -0.130741,-0.02015 10.56935,18.779649 42.924994 0 1 -0.129707,-0.0217 10.56935,18.779649 42.924994 0 1 -0.128674,-0.02377 10.56935,18.779649 42.924994 0 1 -0.127125,-0.02532 10.56935,18.779649 42.924994 0 1 -0.12609,-0.0279 10.56935,18.779649 42.924994 0 1 -0.125058,-0.02894 10.56935,18.779649 42.924994 0 1 -0.124023,-0.03152 10.56935,18.779649 42.924994 0 1 -0.122473,-0.03307 10.56935,18.779649 42.924994 0 1 -0.120922,-0.03514 10.56935,18.779649 42.924994 0 1 -0.120407,-0.03669 10.56935,18.779649 42.924994 0 1 -0.118856,-0.03876 10.56935,18.779649 42.924994 0 1 -0.117306,-0.04031 10.56935,18.779649 42.924994 0 1 -0.116271,-0.04289 10.56935,18.779649 42.924994 0 1 -0.114721,-0.04393 10.56935,18.779649 42.924994 0 1 -0.113688,-0.04599 10.56935,18.779649 42.924994 0 1 -0.112139,-0.04806 10.56935,18.779649 42.924994 0 1 -0.110588,-0.04961 10.56935,18.779649 42.924994 0 1 -0.109553,-0.05168 10.56935,18.779649 42.924994 0 1 -0.108003,-0.05374 10.56935,18.779649 42.924994 0 1 -0.106455,-0.05478 10.56935,18.779649 42.924994 0 1 -0.105418,-0.05736 10.56935,18.779649 42.924994 0 1 -0.10387,-0.0584 10.56935,18.779649 42.924994 0 1 -0.10232,-0.06097 10.56935,18.779649 42.924994 0 1 -0.101285,-0.06201 10.56935,18.779649 42.924994 0 1 -0.09922,-0.0646 10.56935,18.779649 42.924994 0 1 -0.09819,-0.06563 10.56935,18.779649 42.924994 0 1 -0.09612,-0.0677 10.56935,18.779649 42.924994 0 1 -0.09508,-0.06925 10.56935,18.779649 42.924994 0 1 -0.09354,-0.07131 10.56935,18.779649 42.924994 0 1 -0.09198,-0.07286 10.56935,18.779649 42.924994 0 1 -0.09043,-0.07441 10.56935,18.779649 42.924994 0 1 -0.0894,-0.07648 10.56935,18.779649 42.924994 0 1 -0.08733,-0.07803 10.56935,18.779649 42.924994 0 1 -0.08578,-0.07958 10.56935,18.779649 42.924994 0 1 -0.08423,-0.08165 10.56935,18.779649 42.924994 0 1 -0.08268,-0.08268 10.56935,18.779649 42.924994 0 1 -0.08062,-0.08475 10.56935,18.779649 42.924994 0 1 -0.07958,-0.08682 10.56935,18.779649 42.924994 0 1 -0.07803,-0.08785 10.56935,18.779649 42.924994 0 1 -0.07596,-0.0894 10.56935,18.779649 42.924994 0 1 -0.07441,-0.09147 10.56935,18.779649 42.924994 0 1 -0.07338,-0.09302 10.56935,18.779649 42.924994 0 1 -0.07131,-0.09457 10.56935,18.779649 42.924994 0 1 -0.06925,-0.0956 10.56935,18.779649 42.924994 0 1 -0.06821,-0.09767 10.56935,18.779649 42.924994 0 1 -0.06615,-0.09922 A 10.56935,18.779649 42.924994 0 1 93.41033,71.80541 10.56935,18.779649 42.924994 0 1 93.34728,71.70309 10.56935,18.779649 42.924994 0 1 93.2863,71.59922 10.56935,18.779649 42.924994 0 1 93.22687,71.4938 10.56935,18.779649 42.924994 0 1 93.16899,71.386831 10.56935,18.779649 42.924994 0 1 93.11318,71.278826 10.56935,18.779649 42.924994 0 1 93.05892,71.168756 10.56935,18.779649 42.924994 0 1 93.00621,71.057653 10.56935,18.779649 42.924994 0 1 92.95557,70.944998 10.56935,18.779649 42.924994 0 1 92.90648,70.830791 10.56935,18.779649 42.924994 0 1 92.85894,70.715036 10.56935,18.779649 42.924994 0 1 92.81347,70.598249 10.56935,18.779649 42.924994 0 1 92.76954,70.479908 10.56935,18.779649 42.924994 0 1 92.72768,70.36002 10.56935,18.779649 42.924994 0 1 92.68737,70.239098 10.56935,18.779649 42.924994 0 1 92.64913,70.116625 10.56935,18.779649 42.924994 0 1 92.61244,69.993117 10.56935,18.779649 42.924994 0 1 92.5773,69.867543 10.56935,18.779649 42.924994 0 1 92.54423,69.741454 10.56935,18.779649 42.924994 0 1 92.51322,69.613811 10.56935,18.779649 42.924994 0 1 92.48376,69.48462 10.56935,18.779649 42.924994 0 1 92.45585,69.354397 10.56935,18.779649 42.924994 0 1 92.43001,69.223138 10.56935,18.779649 42.924994 0 1 92.40624,69.09033 10.56935,18.779649 42.924994 0 1 92.38402,68.956488 10.56935,18.779649 42.924994 0 1 92.36335,68.821611 10.56935,18.779649 42.924994 0 1 92.34475,68.685703 10.56935,18.779649 42.924994 0 1 92.32821,68.548244 10.56935,18.779649 42.924994 0 1 92.31322,68.40975 10.56935,18.779649 42.924994 0 1 92.3003,68.270225 a 10.56935,18.779649 42.924994 0 1 -0.01137,-0.141076 10.56935,18.779649 42.924994 0 1 -0.0098,-0.141594 10.56935,18.779649 42.924994 0 1 -0.0072,-0.143145 10.56935,18.779649 42.924994 0 1 -0.0057,-0.143658 10.56935,18.779649 42.924994 0 1 -0.0041,-0.145212 10.56935,18.779649 42.924994 0 1 -0.0021,-0.145727 10.56935,18.779649 42.924994 0 1 -5.16e-4,-0.147278 10.56935,18.779649 42.924994 0 1 0.0015,-0.147796 10.56935,18.779649 42.924994 0 1 0.0036,-0.148828 10.56935,18.779649 42.924994 0 1 0.0052,-0.14986 10.56935,18.779649 42.924994 0 1 0.0072,-0.150897 10.56935,18.779649 42.924994 0 1 0.0088,-0.151927 10.56935,18.779649 42.924994 0 1 0.01085,-0.152447 10.56935,18.779649 42.924994 0 1 0.0124,-0.15348 10.56935,18.779649 42.924994 0 1 0.01447,-0.153995 10.56935,18.779649 42.924994 0 1 0.01654,-0.155546 10.56935,18.779649 42.924994 0 1 0.01809,-0.155546 10.56935,18.779649 42.924994 0 1 0.01964,-0.157096 10.56935,18.779649 42.924994 0 1 0.0217,-0.157613 10.56935,18.779649 42.924994 0 1 0.02325,-0.15813 10.56935,18.779649 42.924994 0 1 0.02584,-0.159163 10.56935,18.779649 42.924994 0 1 0.02687,-0.159682 10.56935,18.779649 42.924994 0 1 0.02894,-0.160194 10.56935,18.779649 42.924994 0 1 0.031,-0.161232 10.56935,18.779649 42.924994 0 1 0.03256,-0.161748 10.56935,18.779649 42.924994 0 1 0.03411,-0.162263 10.56935,18.779649 42.924994 0 1 0.03617,-0.163298 10.56935,18.779649 42.924994 0 1 0.03772,-0.163296 10.56935,18.779649 42.924994 0 1 0.03979,-0.164333 10.56935,18.779649 42.924994 0 1 0.04186,-0.164846 10.56935,18.779649 42.924994 0 1 0.04289,-0.165364 10.56935,18.779649 42.924994 0 1 0.04547,-0.165365 10.56935,18.779649 42.924994 0 1 0.04651,-0.166399 10.56935,18.779649 42.924994 0 1 0.04858,-0.166915 10.56935,18.779649 42.924994 0 1 0.05064,-0.167431 10.56935,18.779649 42.924994 0 1 0.05168,-0.167431 10.56935,18.779649 42.924994 0 1 0.05374,-0.16795 10.56935,18.779649 42.924994 0 1 0.05581,-0.168465 10.56935,18.779649 42.924994 0 1 0.05736,-0.168981 10.56935,18.779649 42.924994 0 1 0.05891,-0.168982 10.56935,18.779649 42.924994 0 1 0.06046,-0.1695 10.56935,18.779649 42.924994 0 1 0.06253,-0.170016 10.56935,18.779649 42.924994 0 1 0.06408,-0.170013 10.56935,18.779649 42.924994 0 1 0.06563,-0.170535 10.56935,18.779649 42.924994 0 1 0.0677,-0.170532 10.56935,18.779649 42.924994 0 1 0.06925,-0.171047 10.56935,18.779649 42.924994 0 1 0.0708,-0.171051 10.56935,18.779649 42.924994 0 1 0.07234,-0.171048 10.56935,18.779649 42.924994 0 1 0.0739,-0.171566 10.56935,18.779649 42.924994 0 1 0.07596,-0.171564 10.56935,18.779649 42.924994 0 1 0.07752,-0.171566 10.56935,18.779649 42.924994 0 1 0.07855,-0.172083 10.56935,18.779649 42.924994 0 1 0.08062,-0.171566 10.56935,18.779649 42.924994 0 1 0.08217,-0.172083 10.56935,18.779649 42.924994 0 1 0.08423,-0.172082 10.56935,18.779649 42.924994 0 1 0.06356,-0.129191 10.56935,18.779649 42.924994 0 1 0.08682,-0.172082 10.56935,18.779649 42.924994 0 1 0.08785,-0.171566 10.56935,18.779649 42.924994 0 1 0.08992,-0.172083 10.56935,18.779649 42.924994 0 1 0.09095,-0.172082 10.56935,18.779649 42.924994 0 1 0.09302,-0.171566 10.56935,18.779649 42.924994 0 1 0.09405,-0.171567 10.56935,18.779649 42.924994 0 1 0.0956,-0.171564 10.56935,18.779649 42.924994 0 1 0.09715,-0.171566 10.56935,18.779649 42.924994 0 1 0.0987,-0.171051 10.56935,18.779649 42.924994 0 1 0.10025,-0.171047 10.56935,18.779649 42.924994 0 1 0.101804,-0.171051 10.56935,18.779649 42.924994 0 1 0.102836,-0.170532 10.56935,18.779649 42.924994 0 1 0.104386,-0.170532 10.56935,18.779649 42.924994 0 1 0.105936,-0.170016 10.56935,18.779649 42.924994 0 1 0.107487,-0.169497 10.56935,18.779649 42.924994 0 1 0.108522,-0.1695 10.56935,18.779649 42.924994 0 1 0.110069,-0.168981 10.56935,18.779649 42.924994 0 1 0.111623,-0.168982 10.56935,18.779649 42.924994 0 1 0.112654,-0.168465 10.56935,18.779649 42.924994 0 1 0.114205,-0.167947 10.56935,18.779649 42.924994 0 1 0.115755,-0.167434 10.56935,18.779649 42.924994 0 1 0.116789,-0.167431 10.56935,18.779649 42.924994 0 1 0.117822,-0.166396 10.56935,18.779649 42.924994 0 1 0.119372,-0.166399 10.56935,18.779649 42.924994 0 1 0.120923,-0.165365 10.56935,18.779649 42.924994 0 1 0.121441,-0.165365 10.56935,18.779649 42.924994 0 1 0.123505,-0.164848 10.56935,18.779649 42.924994 0 1 0.124023,-0.163814 10.56935,18.779649 42.924994 0 1 0.125574,-0.163814 10.56935,18.779649 42.924994 0 1 0.126608,-0.16278 10.56935,18.779649 42.924994 0 1 0.128157,-0.162266 10.56935,18.779649 42.924994 0 1 0.128674,-0.16123 10.56935,18.779649 42.924994 0 1 0.130226,-0.161229 10.56935,18.779649 42.924994 0 1 0.131775,-0.160197 10.56935,18.779649 42.924994 0 1 0.132292,-0.159681 10.56935,18.779649 42.924994 0 1 0.133324,-0.158647 10.56935,18.779649 42.924994 0 1 0.134876,-0.158131 10.56935,18.779649 42.924994 0 1 0.135393,-0.157612 10.56935,18.779649 42.924994 0 1 0.13694,-0.156581 10.56935,18.779649 42.924994 0 1 0.137462,-0.155546 10.56935,18.779649 42.924994 0 1 0.139009,-0.155027 10.56935,18.779649 42.924994 0 1 0.139526,-0.154514 10.56935,18.779649 42.924994 0 1 0.14056,-0.152961 10.56935,18.779649 42.924994 0 1 0.14211,-0.152445 10.56935,18.779649 42.924994 0 1 0.142626,-0.151413 10.56935,18.779649 42.924994 0 1 0.143145,-0.150894 10.56935,18.779649 42.924994 0 1 0.144693,-0.149347 10.56935,18.779649 42.924994 0 1 0.145214,-0.148828 10.56935,18.779649 42.924994 0 1 0.14624,-0.147794 10.56935,18.779649 42.924994 0 1 0.14728,-0.146762 10.56935,18.779649 42.924994 0 1 0.14779,-0.145727 10.56935,18.779649 42.924994 0 1 0.14883,-0.144692 10.56935,18.779649 42.924994 0 1 0.14935,-0.143661 10.56935,18.779649 42.924994 0 1 0.15037,-0.143145 10.56935,18.779649 42.924994 0 1 0.1509,-0.141592 10.56935,18.779649 42.924994 0 1 0.15193,-0.140044 10.56935,18.779649 42.924994 0 1 0.15244,-0.139525 10.56935,18.779649 42.924994 0 1 0.15348,-0.138494 10.56935,18.779649 42.924994 0 1 0.15348,-0.136943 10.56935,18.779649 42.924994 0 1 0.15503,-0.135908 10.56935,18.779649 42.924994 0 1 0.15503,-0.134877 10.56935,18.779649 42.924994 0 1 0.15606,-0.133842 10.56935,18.779649 42.924994 0 1 0.15607,-0.132292 10.56935,18.779649 42.924994 0 1 0.15709,-0.131257 10.56935,18.779649 42.924994 0 1 0.15813,-0.129709 10.56935,18.779649 42.924994 0 1 0.15813,-0.128672 10.56935,18.779649 42.924994 0 1 0.15865,-0.127125 10.56935,18.779649 42.924994 0 1 0.15916,-0.126608 10.56935,18.779649 42.924994 0 1 0.15968,-0.12454 10.56935,18.779649 42.924994 0 1 0.1602,-0.123507 10.56935,18.779649 42.924994 0 1 0.16071,-0.121954 10.56935,18.779649 42.924994 0 1 0.16123,-0.120926 10.56935,18.779649 42.924994 0 1 0.16123,-0.119372 10.56935,18.779649 42.924994 0 1 0.16227,-0.118337 10.56935,18.779649 42.924994 0 1 0.16226,-0.116274 10.56935,18.779649 42.924994 0 1 0.16278,-0.115755 10.56935,18.779649 42.924994 0 1 0.16279,-0.113686 10.56935,18.779649 42.924994 0 1 0.16329,-0.112139 10.56935,18.779649 42.924994 0 1 0.16382,-0.111104 10.56935,18.779649 42.924994 0 1 0.16381,-0.109556 10.56935,18.779649 42.924994 0 1 0.16382,-0.108002 10.56935,18.779649 42.924994 0 1 0.16484,-0.106453 10.56935,18.779649 42.924994 0 1 0.16433,-0.104905 10.56935,18.779649 42.924994 0 1 0.16485,-0.10387 10.56935,18.779649 42.924994 0 1 0.16485,-0.101801 10.56935,18.779649 42.924994 0 1 0.16536,-0.100253 10.56935,18.779649 42.924994 0 1 0.16537,-0.09922 10.56935,18.779649 42.924994 0 1 0.16536,-0.09715 10.56935,18.779649 42.924994 0 1 0.16537,-0.0956 10.56935,18.779649 42.924994 0 1 0.16536,-0.09405 10.56935,18.779649 42.924994 0 1 0.16588,-0.09302 10.56935,18.779649 42.924994 0 1 0.16537,-0.09095 10.56935,18.779649 42.924994 0 1 0.16588,-0.08888 10.56935,18.779649 42.924994 0 1 0.16537,-0.08785 10.56935,18.779649 42.924994 0 1 0.16588,-0.0863 10.56935,18.779649 42.924994 0 1 0.16536,-0.08423 10.56935,18.779649 42.924994 0 1 0.16536,-0.08268 10.56935,18.779649 42.924994 0 1 0.16537,-0.08113 10.56935,18.779649 42.924994 0 1 0.16536,-0.07906 10.56935,18.779649 42.924994 0 1 0.16537,-0.07803 10.56935,18.779649 42.924994 0 1 0.16485,-0.07596 10.56935,18.779649 42.924994 0 1 0.16484,-0.0739 10.56935,18.779649 42.924994 0 1 0.16485,-0.07286 10.56935,18.779649 42.924994 0 1 0.16433,-0.0708 10.56935,18.779649 42.924994 0 1 0.16433,-0.06873 10.56935,18.779649 42.924994 0 1 0.16382,-0.06718 10.56935,18.779649 42.924994 0 1 0.16381,-0.06563 10.56935,18.779649 42.924994 0 1 0.1633,-0.06408 10.56935,18.779649 42.924994 0 1 0.1633,-0.06201 10.56935,18.779649 42.924994 0 1 0.16278,-0.05994 10.56935,18.779649 42.924994 0 1 0.16226,-0.0584 10.56935,18.779649 42.924994 0 1 0.16175,-0.05684 10.56935,18.779649 42.924994 0 1 0.16175,-0.05478 10.56935,18.779649 42.924994 0 1 0.16123,-0.05323 10.56935,18.779649 42.924994 0 1 0.16071,-0.05116 10.56935,18.779649 42.924994 0 1 0.16071,-0.04909 10.56935,18.779649 42.924994 0 1 0.15968,-0.04754 10.56935,18.779649 42.924994 0 1 0.15969,-0.04599 10.56935,18.779649 42.924994 0 1 0.15864,-0.04392 10.56935,18.779649 42.924994 0 1 0.15865,-0.04186 10.56935,18.779649 42.924994 0 1 0.15761,-0.04031 10.56935,18.779649 42.924994 0 1 0.1571,-0.03824 10.56935,18.779649 42.924994 0 1 0.15709,-0.03617 10.56935,18.779649 42.924994 0 1 0.15607,-0.03462 10.56935,18.779649 42.924994 0 1 0.15503,-0.03307 10.56935,18.779649 42.924994 0 1 0.15503,-0.03049 10.56935,18.779649 42.924994 0 1 0.15399,-0.02946 10.56935,18.779649 42.924994 0 1 0.15348,-0.02687 10.56935,18.779649 42.924994 0 1 0.15296,-0.02532 10.56935,18.779649 42.924994 0 1 0.15193,-0.02325 10.56935,18.779649 42.924994 0 1 0.15141,-0.02119 10.56935,18.779649 42.924994 0 1 0.15038,-0.01963 10.56935,18.779649 42.924994 0 1 0.14986,-0.01757 10.56935,18.779649 42.924994 0 1 0.14883,-0.01602 10.56935,18.779649 42.924994 0 1 0.14831,-0.01395 10.56935,18.779649 42.924994 0 1 0.14728,-0.01188 10.56935,18.779649 42.924994 0 1 0.14624,-0.0098 10.56935,18.779649 42.924994 0 1 0.14573,-0.0083 10.56935,18.779649 42.924994 0 1 0.1447,-0.0062 10.56935,18.779649 42.924994 0 1 0.14366,-0.0047 10.56935,18.779649 42.924994 0 1 0.14314,-0.0021 10.56935,18.779649 42.924994 0 1 0.10645,-10e-4 10.56935,18.779649 42.924994 0 1 0.1416,10e-4 10.56935,18.779649 42.924994 0 1 0.14004,0.0031 10.56935,18.779649 42.924994 0 1 0.13953,0.0047 10.56935,18.779649 42.924994 0 1 0.13797,0.0062 10.56935,18.779649 42.924994 0 1 0.13746,0.0088 10.56935,18.779649 42.924994 0 1 0.13643,0.01033 10.56935,18.779649 42.924994 0 1 0.13487,0.0124 10.56935,18.779649 42.924994 0 1 0.13436,0.01395 10.56935,18.779649 42.924994 0 1 0.13281,0.01654 10.56935,18.779649 42.924994 0 1 0.13229,0.01757 10.56935,18.779649 42.924994 0 1 0.13074,0.02016 10.56935,18.779649 42.924994 0 1 0.12971,0.0217 10.56935,18.779649 42.924994 0 1 0.12816,0.02377 10.56935,18.779649 42.924994 0 1 0.12764,0.02532 10.56935,18.779649 42.924994 0 1 0.12609,0.0279 10.56935,18.779649 42.924994 0 1 0.12506,0.02894 10.56935,18.779649 42.924994 0 1 0.1235,0.03152 10.56935,18.779649 42.924994 0 1 0.12299,0.03307 10.56935,18.779649 42.924994 0 1 0.12093,0.03462 10.56935,18.779649 42.924994 0 1 0.1204,0.03721 10.56935,18.779649 42.924994 0 1 0.11834,0.03824 10.56935,18.779649 42.924994 0 1 0.11782,0.04082 10.56935,18.779649 42.924994 0 1 0.11628,0.04238 10.56935,18.779649 42.924994 0 1 0.11472,0.04392 10.56935,18.779649 42.924994 0 1 0.11369,0.04651 10.56935,18.779649 42.924994 0 1 0.11213,0.04754 10.56935,18.779649 42.924994 0 1 0.11059,0.04961 10.56935,18.779649 42.924994 0 1 0.10956,0.05168 10.56935,18.779649 42.924994 0 1 0.108,0.05323 10.56935,18.779649 42.924994 0 1 0.10697,0.05529 10.56935,18.779649 42.924994 0 1 0.10542,0.05684 10.56935,18.779649 42.924994 0 1 0.10387,0.05891 10.56935,18.779649 42.924994 0 1 0.10232,0.06046 10.56935,18.779649 42.924994 0 1 0.10077,0.06253 10.56935,18.779649 42.924994 0 1 0.0997,0.06408 10.56935,18.779649 42.924994 0 1 0.0977,0.06563 10.56935,18.779649 42.924994 0 1 0.0966,0.0677 10.56935,18.779649 42.924994 0 1 0.0951,0.06976 10.56935,18.779649 42.924994 0 1 0.0935,0.0708 10.56935,18.779649 42.924994 0 1 0.092,0.07286 10.56935,18.779649 42.924994 0 1 0.091,0.07441 10.56935,18.779649 42.924994 0 1 0.0889,0.07648 10.56935,18.779649 42.924994 0 1 0.0873,0.07803 10.56935,18.779649 42.924994 0 1 0.0858,0.07958 10.56935,18.779649 42.924994 0 1 0.0842,0.08113 10.56935,18.779649 42.924994 0 1 0.0827,0.0832 10.56935,18.779649 42.924994 0 1 0.0811,0.08475 10.56935,18.779649 42.924994 0 1 0.0796,0.0863 10.56935,18.779649 42.924994 0 1 0.0176,0.01964 l 1.30018,-1.001487 a 12.378088,33.427117 44.440317 0 0 -6.0384,-6.117458 z" />
    </g>
    <path
       id="path1445"
       style="fill:#c3762b;fill-opacity:1;stroke-width:0;stroke-dasharray:none"
       d="m 107.03398,42.234558 a 8.8190682,8.3985774 67.000132 0 0 -7.696442,1.913526 L 59.094741,67.81677 75.526384,64.148691 59.0904,77.729545 80.132097,69.641119 67.665003,86.022186 107.20844,59.269251 a 8.8190682,8.3985774 67.000132 0 0 6.20081,-6.267414 l -4.58971,-1.280666 -0.002,-0.0021 4.59229,1.27872 a 8.8190682,8.3985774 67.000132 0 0 -6.30963,-10.744728 8.8190682,8.3985774 67.000132 0 0 -0.0665,-0.01856 z" />
    <g
       id="g1481">
      <g
         id="g1472">
        <path
           sodipodi:type="star"
           style="fill:#ffcc00;stroke-width:0;stroke-dasharray:none;fill-opacity:1"
           id="path862"
           sodipodi:sides="3"
           sodipodi:cx="132.42259"
           sodipodi:cy="37.11174"
           sodipodi:r1="4.5877528"
           sodipodi:r2="2.2938764"
           sodipodi:arg1="-0.038123592"
           sodipodi:arg2="1.009074"
           inkscape:flatsided="true"
           inkscape:rounded="0"
           inkscape:randomized="0"
           d="m 137.00701,36.936881 -6.72519,4.232512 -0.30287,-7.940447 z"
           inkscape:transform-center-x="-1.0703869"
           inkscape:transform-center-y="0.08742916" />
        <circle
           style="fill:#4b777a;fill-opacity:1;stroke-width:0;stroke-dasharray:none"
           id="path858"
           sodipodi:type="arc"
           sodipodi:cx="123.77784"
           sodipodi:cy="37.133354"
           sodipodi:rx="8.6448021"
           sodipodi:ry="6.4836016"
           sodipodi:start="0"
           sodipodi:end="6.2789393"
           sodipodi:arc-type="arc"
           d="m 132.42264,37.133354 a 8.6448021,6.4836016 0 0 1 -8.63562,6.483598 8.6448021,6.4836016 0 0 1 -8.65396,-6.469833 8.6448021,6.4836016 0 0 1 8.61725,-6.497334 8.6448021,6.4836016 0 0 1 8.67225,6.45604"
           sodipodi:open="true" />
        <circle
           style="fill:#f0f7f8;fill-opacity:1;stroke-width:0;stroke-dasharray:none"
           id="path1425"
           sodipodi:type="arc"
           sodipodi:cx="128.16574"
           sodipodi:cy="34.972153"
           sodipodi:rx="1.3753095"
           sodipodi:ry="1.0478548"
           sodipodi:start="0"
           sodipodi:end="6.2827141"
           sodipodi:arc-type="slice"
           d="m 129.54105,34.972153 a 1.3753095,1.0478548 0 0 1 -1.37515,1.047854 1.3753095,1.0478548 0 0 1 -1.37547,-1.047607 1.3753095,1.0478548 0 0 1 1.37482,-1.048102 1.3753095,1.0478548 0 0 1 1.3758,1.047361 l -1.37531,4.94e-4 z" />
      </g>
      <circle
         style="fill:#000000;fill-opacity:1;stroke-width:0;stroke-dasharray:none"
         id="path1474"
         sodipodi:type="arc"
         sodipodi:cx="128.16574"
         sodipodi:cy="34.972153"
         sodipodi:rx="2.1284263"
         sodipodi:ry="1.0697938"
         sodipodi:start="0"
         sodipodi:end="6.2798517"
         sodipodi:arc-type="slice"
         d="m 130.29417,34.972153 a 2.1284263,1.0697938 0 0 1 -2.12666,1.069793 2.1284263,1.0697938 0 0 1 -2.13019,-1.06801 2.1284263,1.0697938 0 0 1 2.1231,-1.071574 2.1284263,1.0697938 0 0 1 2.13374,1.066224 l -2.12842,0.0036 z" />
    </g>
    <g
       id="g1493"
       transform="translate(7.2040017,-7.4659653)">
      <rect
         style="fill:#ffcc00;fill-opacity:1;fill-rule:evenodd;stroke-width:0.264583"
         id="rect1483"
         width="2.2266915"
         height="20.695131"
         x="88.41275"
         y="83.697403"
         ry="0.85349554" />
      <rect
         style="fill:#ffcc00;fill-opacity:1;fill-rule:evenodd;stroke-width:0.264583"
         id="rect1487"
         width="5.8941803"
         height="1.440801"
         x="87.037445"
         y="103.80311"
         ry="0.72040051" />
    </g>
    <circle
       style="fill:#3a5a61;fill-opacity:1;stroke-width:0;stroke-dasharray:none"
       id="path1499"
       sodipodi:type="arc"
       sodipodi:cx="30.715244"
       sodipodi:cy="33.334881"
       sodipodi:rx="7.6624379"
       sodipodi:ry="7.1385107"
       sodipodi:start="0"
       sodipodi:end="6.2798517"
       sodipodi:arc-type="slice"
       d="m 38.377682,33.334881 a 7.6624379,7.1385107 0 0 1 -7.656052,7.138508 7.6624379,7.1385107 0 0 1 -7.668813,-7.12661 7.6624379,7.1385107 0 0 1 7.64327,-7.150387 7.6624379,7.1385107 0 0 1 7.681553,7.114692 l -7.662396,0.0238 z" />
    <g
       id="g1558">
      <g
         id="g1505"
         transform="translate(-38.639645,73.218853)">
        <rect
           style="fill:#ffb000;fill-opacity:1;fill-rule:evenodd;stroke-width:0.264583"
           id="rect1501"
           width="5.8941803"
           height="1.440801"
           x="81.339729"
           y="103.73762"
           ry="0.72040051" />
        <rect
           style="fill:#ffb000;fill-opacity:1;fill-rule:evenodd;stroke-width:0.264583"
           id="rect1503"
           width="2.2266915"
           height="20.695131"
           x="82.780533"
           y="83.566414"
           ry="0.85349554" />
      </g>
      <path
         id="path1507"
         style="fill:#83572c;fill-opacity:1;stroke-width:0;stroke-dasharray:none"
         d="m 65.119796,125.19622 a 11.293126,6.5586469 54.410817 0 0 -7.69645,-2.1039 l -40.242796,2.66254 16.431644,4.90899 -16.435985,5.00152 21.041698,2.89503 -12.467094,9.87342 39.543443,-6.11184 a 11.293126,6.5586469 54.410817 0 0 6.20081,-3.03068 l -4.58971,-3.67643 -0.002,-0.003 4.59229,3.67583 a 11.293126,6.5586469 54.410817 0 0 -6.30963,-14.03826 11.293126,6.5586469 54.410817 0 0 -0.0665,-0.0533 z" />
      <path
         id="path1509"
         style="fill:#727141;fill-opacity:1;stroke-width:0;stroke-dasharray:none"
         d="m 72.055401,139.68693 -9.118822,0.005 H 72.0523 a 12.378088,33.427117 44.440317 0 0 0.0031,-0.005 z" />
      <path
         id="path1511"
         style="fill:#727141;fill-opacity:1;stroke-width:0;stroke-dasharray:none"
         d="m 76.113551,126.33633 a 10.56935,18.779649 42.924994 0 1 0.05633,0.0636 10.56935,18.779649 42.924994 0 1 0.07648,0.0899 10.56935,18.779649 42.924994 0 1 0.07441,0.091 10.56935,18.779649 42.924994 0 1 0.07286,0.093 10.56935,18.779649 42.924994 0 1 0.07131,0.0946 10.56935,18.779649 42.924994 0 1 0.06977,0.0961 10.56935,18.779649 42.924994 0 1 0.06821,0.0977 10.56935,18.779649 42.924994 0 1 0.06615,0.0987 10.56935,18.779649 42.924994 0 1 0.06459,0.10077 10.56935,18.779649 42.924994 0 1 0.06305,0.10232 10.56935,18.779649 42.924994 0 1 0.06098,0.10387 10.56935,18.779649 42.924994 0 1 0.05943,0.10542 10.56935,18.779649 42.924994 0 1 0.05788,0.10697 10.56935,18.779649 42.924994 0 1 0.05633,0.108 10.56935,18.779649 42.924994 0 1 0.05426,0.11008 10.56935,18.779649 42.924994 0 1 0.05271,0.1111 10.56935,18.779649 42.924994 0 1 0.0093,0.0207 12.378088,33.427117 44.440317 0 0 0.262517,-2.59209 z" />
      <g
         id="g1517"
         transform="matrix(0.87172672,0,0,0.93551755,-28.663319,82.924619)">
        <path
           id="path1513"
           style="fill:#bd3f35;fill-opacity:1;stroke-width:0;stroke-dasharray:none"
           d="m 120.3849,45.903578 a 10.56935,18.779649 42.924994 0 0 -0.0176,-0.01964 10.56935,18.779649 42.924994 0 0 -0.0796,-0.0863 10.56935,18.779649 42.924994 0 0 -0.0811,-0.08475 10.56935,18.779649 42.924994 0 0 -0.0827,-0.0832 10.56935,18.779649 42.924994 0 0 -0.0842,-0.08113 10.56935,18.779649 42.924994 0 0 -0.0858,-0.07958 10.56935,18.779649 42.924994 0 0 -0.0873,-0.07803 10.56935,18.779649 42.924994 0 0 -0.0889,-0.07648 10.56935,18.779649 42.924994 0 0 -0.091,-0.07441 10.56935,18.779649 42.924994 0 0 -0.092,-0.07286 10.56935,18.779649 42.924994 0 0 -0.0935,-0.0708 10.56935,18.779649 42.924994 0 0 -0.0951,-0.06976 10.56935,18.779649 42.924994 0 0 -0.0966,-0.0677 10.56935,18.779649 42.924994 0 0 -0.0977,-0.06563 10.56935,18.779649 42.924994 0 0 -0.0997,-0.06408 10.56935,18.779649 42.924994 0 0 -0.10077,-0.06253 10.56935,18.779649 42.924994 0 0 -0.10232,-0.06046 10.56935,18.779649 42.924994 0 0 -0.10387,-0.05891 10.56935,18.779649 42.924994 0 0 -0.10541,-0.05684 10.56935,18.779649 42.924994 0 0 -0.10697,-0.05529 10.56935,18.779649 42.924994 0 0 -0.10801,-0.05323 10.56935,18.779649 42.924994 0 0 -0.10955,-0.05168 10.56935,18.779649 42.924994 0 0 -0.11059,-0.04961 10.56935,18.779649 42.924994 0 0 -0.11214,-0.04754 10.56935,18.779649 42.924994 0 0 -0.11369,-0.04651 10.56935,18.779649 42.924994 0 0 -0.11472,-0.04392 10.56935,18.779649 42.924994 0 0 -0.11627,-0.04238 10.56935,18.779649 42.924994 0 0 -0.11782,-0.04082 10.56935,18.779649 42.924994 0 0 -0.11834,-0.03824 10.56935,18.779649 42.924994 0 0 -0.12041,-0.03721 10.56935,18.779649 42.924994 0 0 -0.12092,-0.03462 10.56935,18.779649 42.924994 0 0 -0.12299,-0.03307 10.56935,18.779649 42.924994 0 0 -0.12351,-0.03152 10.56935,18.779649 42.924994 0 0 -0.12505,-0.02894 10.56935,18.779649 42.924994 0 0 -0.12609,-0.0279 10.56935,18.779649 42.924994 0 0 -0.12765,-0.02532 10.56935,18.779649 42.924994 0 0 -0.12815,-0.02377 10.56935,18.779649 42.924994 0 0 -0.12971,-0.0217 10.56935,18.779649 42.924994 0 0 -0.13074,-0.02016 10.56935,18.779649 42.924994 0 0 -0.13229,-0.01757 10.56935,18.779649 42.924994 0 0 -0.13281,-0.01654 10.56935,18.779649 42.924994 0 0 -0.13436,-0.01395 10.56935,18.779649 42.924994 0 0 -0.13488,-0.0124 10.56935,18.779649 42.924994 0 0 -0.13642,-0.01033 10.56935,18.779649 42.924994 0 0 -0.13746,-0.0088 10.56935,18.779649 42.924994 0 0 -0.13798,-0.0062 10.56935,18.779649 42.924994 0 0 -0.13952,-0.0047 10.56935,18.779649 42.924994 0 0 -0.14005,-0.0031 10.56935,18.779649 42.924994 0 0 -0.14159,-10e-4 10.56935,18.779649 42.924994 0 0 -0.10645,10e-4 10.56935,18.779649 42.924994 0 0 -0.14315,0.0021 10.56935,18.779649 42.924994 0 0 -0.14366,0.0047 10.56935,18.779649 42.924994 0 0 -0.14469,0.0062 10.56935,18.779649 42.924994 0 0 -0.14573,0.0083 10.56935,18.779649 42.924994 0 0 -0.14624,0.0098 10.56935,18.779649 42.924994 0 0 -0.14728,0.01189 10.56935,18.779649 42.924994 0 0 -0.14831,0.01395 10.56935,18.779649 42.924994 0 0 -0.14883,0.01602 10.56935,18.779649 42.924994 0 0 -0.14986,0.01757 10.56935,18.779649 42.924994 0 0 -0.15038,0.01964 10.56935,18.779649 42.924994 0 0 -0.15141,0.02119 10.56935,18.779649 42.924994 0 0 -0.15193,0.02325 10.56935,18.779649 42.924994 0 0 -0.15296,0.02532 10.56935,18.779649 42.924994 0 0 -0.15348,0.02687 10.56935,18.779649 42.924994 0 0 -0.154,0.02946 10.56935,18.779649 42.924994 0 0 -0.15503,0.03049 10.56935,18.779649 42.924994 0 0 -0.15503,0.03307 10.56935,18.779649 42.924994 0 0 -0.15606,0.03462 10.56935,18.779649 42.924994 0 0 -0.1571,0.03617 10.56935,18.779649 42.924994 0 0 -0.15709,0.03824 10.56935,18.779649 42.924994 0 0 -0.15762,0.04031 10.56935,18.779649 42.924994 0 0 -0.15864,0.04186 10.56935,18.779649 42.924994 0 0 -0.15865,0.04392 10.56935,18.779649 42.924994 0 0 -0.15968,0.04599 10.56935,18.779649 42.924994 0 0 -0.15968,0.04754 10.56935,18.779649 42.924994 0 0 -0.16071,0.04909 10.56935,18.779649 42.924994 0 0 -0.16072,0.05116 10.56935,18.779649 42.924994 0 0 -0.16123,0.05323 10.56935,18.779649 42.924994 0 0 -0.16174,0.05478 10.56935,18.779649 42.924994 0 0 -0.16175,0.05684 10.56935,18.779649 42.924994 0 0 -0.16226,0.0584 10.56935,18.779649 42.924994 0 0 -0.16279,0.05994 10.56935,18.779649 42.924994 0 0 -0.16329,0.06201 10.56935,18.779649 42.924994 0 0 -0.1633,0.06408 10.56935,18.779649 42.924994 0 0 -0.16381,0.06563 10.56935,18.779649 42.924994 0 0 -0.16382,0.06718 10.56935,18.779649 42.924994 0 0 -0.16433,0.06873 10.56935,18.779649 42.924994 0 0 -0.16433,0.0708 10.56935,18.779649 42.924994 0 0 -0.16485,0.07286 10.56935,18.779649 42.924994 0 0 -0.16485,0.0739 10.56935,18.779649 42.924994 0 0 -0.16485,0.07596 10.56935,18.779649 42.924994 0 0 -0.16536,0.07803 10.56935,18.779649 42.924994 0 0 -0.16536,0.07906 10.56935,18.779649 42.924994 0 0 -0.16537,0.08113 10.56935,18.779649 42.924994 0 0 -0.16536,0.08268 10.56935,18.779649 42.924994 0 0 -0.16537,0.08423 10.56935,18.779649 42.924994 0 0 -0.16588,0.0863 10.56935,18.779649 42.924994 0 0 -0.16536,0.08785 10.56935,18.779649 42.924994 0 0 -0.16589,0.08888 10.56935,18.779649 42.924994 0 0 -0.16536,0.09095 10.56935,18.779649 42.924994 0 0 -0.16588,0.09302 10.56935,18.779649 42.924994 0 0 -0.16537,0.09405 10.56935,18.779649 42.924994 0 0 -0.16536,0.0956 10.56935,18.779649 42.924994 0 0 -0.16537,0.09715 10.56935,18.779649 42.924994 0 0 -0.16536,0.09922 10.56935,18.779649 42.924994 0 0 -0.16536,0.100254 10.56935,18.779649 42.924994 0 0 -0.16485,0.101801 10.56935,18.779649 42.924994 0 0 -0.16485,0.10387 10.56935,18.779649 42.924994 0 0 -0.16433,0.104904 10.56935,18.779649 42.924994 0 0 -0.16485,0.106453 10.56935,18.779649 42.924994 0 0 -0.16381,0.108003 10.56935,18.779649 42.924994 0 0 -0.16382,0.109556 10.56935,18.779649 42.924994 0 0 -0.16381,0.111104 10.56935,18.779649 42.924994 0 0 -0.1633,0.112138 10.56935,18.779649 42.924994 0 0 -0.16278,0.113686 10.56935,18.779649 42.924994 0 0 -0.16278,0.115755 10.56935,18.779649 42.924994 0 0 -0.16226,0.116274 10.56935,18.779649 42.924994 0 0 -0.16227,0.118338 10.56935,18.779649 42.924994 0 0 -0.16123,0.119372 10.56935,18.779649 42.924994 0 0 -0.16123,0.120925 10.56935,18.779649 42.924994 0 0 -0.16071,0.121954 10.56935,18.779649 42.924994 0 0 -0.1602,0.123508 10.56935,18.779649 42.924994 0 0 -0.15968,0.124539 10.56935,18.779649 42.924994 0 0 -0.15916,0.126609 10.56935,18.779649 42.924994 0 0 -0.15865,0.127124 10.56935,18.779649 42.924994 0 0 -0.15813,0.128672 10.56935,18.779649 42.924994 0 0 -0.15813,0.129709 10.56935,18.779649 42.924994 0 0 -0.1571,0.131258 10.56935,18.779649 42.924994 0 0 -0.15606,0.132291 10.56935,18.779649 42.924994 0 0 -0.15606,0.133842 10.56935,18.779649 42.924994 0 0 -0.15503,0.134877 10.56935,18.779649 42.924994 0 0 -0.15503,0.135909 10.56935,18.779649 42.924994 0 0 -0.15348,0.136943 10.56935,18.779649 42.924994 0 0 -0.15348,0.138493 10.56935,18.779649 42.924994 0 0 -0.15245,0.139525 10.56935,18.779649 42.924994 0 0 -0.15192,0.140044 10.56935,18.779649 42.924994 0 0 -0.1509,0.141592 10.56935,18.779649 42.924994 0 0 -0.15038,0.143145 10.56935,18.779649 42.924994 0 0 -0.14934,0.143661 10.56935,18.779649 42.924994 0 0 -0.14883,0.144693 10.56935,18.779649 42.924994 0 0 -0.14779,0.145727 10.56935,18.779649 42.924994 0 0 -0.14729,0.146762 10.56935,18.779649 42.924994 0 0 -0.14624,0.147793 10.56935,18.779649 42.924994 0 0 -0.145213,0.148828 10.56935,18.779649 42.924994 0 0 -0.144693,0.149347 10.56935,18.779649 42.924994 0 0 -0.143144,0.150894 10.56935,18.779649 42.924994 0 0 -0.142627,0.151414 10.56935,18.779649 42.924994 0 0 -0.14211,0.152445 10.56935,18.779649 42.924994 0 0 -0.14056,0.15296 10.56935,18.779649 42.924994 0 0 -0.139525,0.154514 10.56935,18.779649 42.924994 0 0 -0.13901,0.155028 10.56935,18.779649 42.924994 0 0 -0.137461,0.155546 10.56935,18.779649 42.924994 0 0 -0.136941,0.15658 10.56935,18.779649 42.924994 0 0 -0.135392,0.157612 10.56935,18.779649 42.924994 0 0 -0.134877,0.158131 10.56935,18.779649 42.924994 0 0 -0.133324,0.158647 10.56935,18.779649 42.924994 0 0 -0.132291,0.159681 10.56935,18.779649 42.924994 0 0 -0.131776,0.160198 10.56935,18.779649 42.924994 0 0 -0.130225,0.161229 10.56935,18.779649 42.924994 0 0 -0.128675,0.161229 10.56935,18.779649 42.924994 0 0 -0.128156,0.162266 10.56935,18.779649 42.924994 0 0 -0.126609,0.16278 10.56935,18.779649 42.924994 0 0 -0.125574,0.163814 10.56935,18.779649 42.924994 0 0 -0.124023,0.163814 10.56935,18.779649 42.924994 0 0 -0.123505,0.164849 10.56935,18.779649 42.924994 0 0 -0.121441,0.165364 10.56935,18.779649 42.924994 0 0 -0.120923,0.165365 10.56935,18.779649 42.924994 0 0 -0.119372,0.166399 10.56935,18.779649 42.924994 0 0 -0.117821,0.166396 10.56935,18.779649 42.924994 0 0 -0.11679,0.167431 10.56935,18.779649 42.924994 0 0 -0.115755,0.167434 10.56935,18.779649 42.924994 0 0 -0.114205,0.167947 10.56935,18.779649 42.924994 0 0 -0.112654,0.168465 10.56935,18.779649 42.924994 0 0 -0.111623,0.168982 10.56935,18.779649 42.924994 0 0 -0.110069,0.168981 10.56935,18.779649 42.924994 0 0 -0.108521,0.1695 10.56935,18.779649 42.924994 0 0 -0.107487,0.169498 10.56935,18.779649 42.924994 0 0 -0.105937,0.170016 10.56935,18.779649 42.924994 0 0 -0.104386,0.170532 10.56935,18.779649 42.924994 0 0 -0.102836,0.170531 10.56935,18.779649 42.924994 0 0 -0.101803,0.171051 10.56935,18.779649 42.924994 0 0 -0.100251,0.171048 10.56935,18.779649 42.924994 0 0 -0.0987,0.17105 10.56935,18.779649 42.924994 0 0 -0.09715,0.171567 10.56935,18.779649 42.924994 0 0 -0.0956,0.171563 10.56935,18.779649 42.924994 0 0 -0.09405,0.171567 10.56935,18.779649 42.924994 0 0 -0.09302,0.171566 10.56935,18.779649 42.924994 0 0 -0.09095,0.172083 10.56935,18.779649 42.924994 0 0 -0.08992,0.172082 10.56935,18.779649 42.924994 0 0 -0.08785,0.171566 10.56935,18.779649 42.924994 0 0 -0.08682,0.172083 10.56935,18.779649 42.924994 0 0 -0.06356,0.129191 10.56935,18.779649 42.924994 0 0 -0.08423,0.172082 10.56935,18.779649 42.924994 0 0 -0.08217,0.172082 10.56935,18.779649 42.924994 0 0 -0.08062,0.171567 10.56935,18.779649 42.924994 0 0 -0.07855,0.172082 10.56935,18.779649 42.924994 0 0 -0.07752,0.171566 10.56935,18.779649 42.924994 0 0 -0.07596,0.171564 10.56935,18.779649 42.924994 0 0 -0.0739,0.171567 10.56935,18.779649 42.924994 0 0 -0.07234,0.171047 10.56935,18.779649 42.924994 0 0 -0.0708,0.171051 10.56935,18.779649 42.924994 0 0 -0.06925,0.171048 10.56935,18.779649 42.924994 0 0 -0.0677,0.170532 10.56935,18.779649 42.924994 0 0 -0.06563,0.170534 10.56935,18.779649 42.924994 0 0 -0.06408,0.170013 10.56935,18.779649 42.924994 0 0 -0.06253,0.170016 10.56935,18.779649 42.924994 0 0 -0.06046,0.1695 10.56935,18.779649 42.924994 0 0 -0.05891,0.168982 10.56935,18.779649 42.924994 0 0 -0.05736,0.168981 10.56935,18.779649 42.924994 0 0 -0.05581,0.168466 10.56935,18.779649 42.924994 0 0 -0.05374,0.167949 10.56935,18.779649 42.924994 0 0 -0.05168,0.167431 10.56935,18.779649 42.924994 0 0 -0.05064,0.167431 10.56935,18.779649 42.924994 0 0 -0.04858,0.166915 10.56935,18.779649 42.924994 0 0 -0.04651,0.166399 10.56935,18.779649 42.924994 0 0 -0.04547,0.165365 10.56935,18.779649 42.924994 0 0 -0.04289,0.165365 10.56935,18.779649 42.924994 0 0 -0.04186,0.164846 10.56935,18.779649 42.924994 0 0 -0.03979,0.164332 10.56935,18.779649 42.924994 0 0 -0.03772,0.163296 10.56935,18.779649 42.924994 0 0 -0.03617,0.163298 10.56935,18.779649 42.924994 0 0 -0.03411,0.162264 10.56935,18.779649 42.924994 0 0 -0.03256,0.161747 10.56935,18.779649 42.924994 0 0 -0.031,0.161232 10.56935,18.779649 42.924994 0 0 -0.02894,0.160195 10.56935,18.779649 42.924994 0 0 -0.02687,0.159681 10.56935,18.779649 42.924994 0 0 -0.02584,0.159163 10.56935,18.779649 42.924994 0 0 -0.02325,0.158131 10.56935,18.779649 42.924994 0 0 -0.0217,0.157612 10.56935,18.779649 42.924994 0 0 -0.01964,0.157096 10.56935,18.779649 42.924994 0 0 -0.01809,0.155546 10.56935,18.779649 42.924994 0 0 -0.01654,0.155546 10.56935,18.779649 42.924994 0 0 -0.01447,0.153996 10.56935,18.779649 42.924994 0 0 -0.0124,0.153479 10.56935,18.779649 42.924994 0 0 -0.01085,0.152448 10.56935,18.779649 42.924994 0 0 -0.0088,0.151926 10.56935,18.779649 42.924994 0 0 -0.0072,0.150897 10.56935,18.779649 42.924994 0 0 -0.0052,0.14986 10.56935,18.779649 42.924994 0 0 -0.0036,0.148828 10.56935,18.779649 42.924994 0 0 -0.0015,0.147797 10.56935,18.779649 42.924994 0 0 5.16e-4,0.147277 10.56935,18.779649 42.924994 0 0 0.0021,0.145728 10.56935,18.779649 42.924994 0 0 0.0041,0.145211 10.56935,18.779649 42.924994 0 0 0.0057,0.143658 10.56935,18.779649 42.924994 0 0 0.0072,0.143145 10.56935,18.779649 42.924994 0 0 0.0098,0.141594 10.56935,18.779649 42.924994 0 0 0.01137,0.141076 10.56935,18.779649 42.924994 0 0 0.01292,0.139526 10.56935,18.779649 42.924994 0 0 0.01499,0.138493 10.56935,18.779649 42.924994 0 0 0.01654,0.137459 10.56935,18.779649 42.924994 0 0 0.0186,0.135909 10.56935,18.779649 42.924994 0 0 0.02067,0.134876 10.56935,18.779649 42.924994 0 0 0.02222,0.133842 10.56935,18.779649 42.924994 0 0 0.02377,0.132808 10.56935,18.779649 42.924994 0 0 0.02584,0.13126 10.56935,18.779649 42.924994 0 0 0.02791,0.130222 10.56935,18.779649 42.924994 0 0 0.02946,0.129191 10.56935,18.779649 42.924994 0 0 0.03101,0.127643 10.56935,18.779649 42.924994 0 0 0.03307,0.12609 10.56935,18.779649 42.924994 0 0 0.03514,0.125574 10.56935,18.779649 42.924994 0 0 0.03669,0.123507 10.56935,18.779649 42.924994 0 0 0.03824,0.122473 10.56935,18.779649 42.924994 0 0 0.04031,0.120923 10.56935,18.779649 42.924994 0 0 0.04186,0.119888 10.56935,18.779649 42.924994 0 0 0.04393,0.11834 10.56935,18.779649 42.924994 0 0 0.04547,0.116787 10.56935,18.779649 42.924994 0 0 0.04754,0.115755 10.56935,18.779649 42.924994 0 0 0.04909,0.114208 10.56935,18.779649 42.924994 0 0 0.05064,0.112654 10.56935,18.779649 42.924994 0 0 0.05271,0.111104 10.56935,18.779649 42.924994 0 0 0.05426,0.110069 10.56935,18.779649 42.924994 0 0 0.05581,0.108006 10.56935,18.779649 42.924994 0 0 0.05788,0.106968 10.56935,18.779649 42.924994 0 0 0.05942,0.105421 10.56935,18.779649 42.924994 0 0 0.06098,0.10387 10.56935,18.779649 42.924994 0 0 0.06305,0.102319 10.56935,18.779649 42.924994 0 0 0.0646,0.10077 10.56935,18.779649 42.924994 0 0 0.06615,0.09922 10.56935,18.779649 42.924994 0 0 0.06821,0.09767 10.56935,18.779649 42.924994 0 0 0.06925,0.0956 10.56935,18.779649 42.924994 0 0 0.07131,0.09457 10.56935,18.779649 42.924994 0 0 0.07338,0.09302 10.56935,18.779649 42.924994 0 0 0.07441,0.09147 10.56935,18.779649 42.924994 0 0 0.07596,0.0894 10.56935,18.779649 42.924994 0 0 0.07803,0.08785 10.56935,18.779649 42.924994 0 0 0.07958,0.08682 10.56935,18.779649 42.924994 0 0 0.08062,0.08475 10.56935,18.779649 42.924994 0 0 0.08268,0.08268 10.56935,18.779649 42.924994 0 0 0.08423,0.08165 10.56935,18.779649 42.924994 0 0 0.08578,0.07958 10.56935,18.779649 42.924994 0 0 0.08733,0.07803 10.56935,18.779649 42.924994 0 0 0.0894,0.07648 10.56935,18.779649 42.924994 0 0 0.09043,0.07441 10.56935,18.779649 42.924994 0 0 0.09198,0.07286 10.56935,18.779649 42.924994 0 0 0.09354,0.07131 10.56935,18.779649 42.924994 0 0 0.09508,0.06925 10.56935,18.779649 42.924994 0 0 0.09612,0.0677 10.56935,18.779649 42.924994 0 0 0.09819,0.06563 10.56935,18.779649 42.924994 0 0 0.09922,0.0646 10.56935,18.779649 42.924994 0 0 0.101285,0.06201 10.56935,18.779649 42.924994 0 0 0.10232,0.06098 10.56935,18.779649 42.924994 0 0 0.10387,0.0584 10.56935,18.779649 42.924994 0 0 0.105418,0.05736 10.56935,18.779649 42.924994 0 0 0.106455,0.05478 10.56935,18.779649 42.924994 0 0 0.108003,0.05374 10.56935,18.779649 42.924994 0 0 0.109554,0.05168 10.56935,18.779649 42.924994 0 0 0.110587,0.04961 10.56935,18.779649 42.924994 0 0 0.112139,0.04806 10.56935,18.779649 42.924994 0 0 0.113689,0.04599 10.56935,18.779649 42.924994 0 0 0.11472,0.04393 10.56935,18.779649 42.924994 0 0 0.116271,0.04289 10.56935,18.779649 42.924994 0 0 0.117306,0.04031 10.56935,18.779649 42.924994 0 0 0.118856,0.03876 10.56935,18.779649 42.924994 0 0 0.120407,0.03669 10.56935,18.779649 42.924994 0 0 0.120922,0.03514 10.56935,18.779649 42.924994 0 0 0.122473,0.03307 10.56935,18.779649 42.924994 0 0 0.124024,0.03152 10.56935,18.779649 42.924994 0 0 0.125058,0.02894 10.56935,18.779649 42.924994 0 0 0.12609,0.02791 10.56935,18.779649 42.924994 0 0 0.127124,0.02532 10.56935,18.779649 42.924994 0 0 0.128675,0.02377 10.56935,18.779649 42.924994 0 0 0.129706,0.0217 10.56935,18.779649 42.924994 0 0 0.130742,0.02015 10.56935,18.779649 42.924994 0 0 0.131775,0.01809 10.56935,18.779649 42.924994 0 0 0.133327,0.01602 10.56935,18.779649 42.924994 0 0 0.133842,0.01447 10.56935,18.779649 42.924994 0 0 0.135392,0.0124 10.56935,18.779649 42.924994 0 0 0.135909,0.01033 10.56935,18.779649 42.924994 0 0 0.137459,0.0083 10.56935,18.779649 42.924994 0 0 0.137975,0.0067 10.56935,18.779649 42.924994 0 0 0.139528,0.0047 10.56935,18.779649 42.924994 0 0 0.140041,0.0031 10.56935,18.779649 42.924994 0 0 0.141594,0.001 10.56935,18.779649 42.924994 0 0 0.106453,-5.16e-4 10.56935,18.779649 42.924994 0 0 0.143145,-0.0026 10.56935,18.779649 42.924994 0 0 0.143661,-0.0041 10.56935,18.779649 42.924994 0 0 0.144694,-0.0062 10.56935,18.779649 42.924994 0 0 0.14573,-0.0083 10.56935,18.779649 42.924994 0 0 0.14625,-0.0098 10.56935,18.779649 42.924994 0 0 0.14727,-0.0124 10.56935,18.779649 42.924994 0 0 0.14832,-0.01344 10.56935,18.779649 42.924994 0 0 0.14882,-0.01602 10.56935,18.779649 42.924994 0 0 0.14986,-0.01757 10.56935,18.779649 42.924994 0 0 0.15038,-0.01964 10.56935,18.779649 42.924994 0 0 0.15142,-0.02119 10.56935,18.779649 42.924994 0 0 0.15192,-0.02326 10.56935,18.779649 42.924994 0 0 0.15245,-0.02532 10.56935,18.779649 42.924994 0 0 0.15348,-0.02687 10.56935,18.779649 42.924994 0 0 0.15451,-0.02894 10.56935,18.779649 42.924994 0 0 0.15451,-0.03101 10.56935,18.779649 42.924994 0 0 0.15555,-0.03255 10.56935,18.779649 42.924994 0 0 0.15606,-0.03462 10.56935,18.779649 42.924994 0 0 0.15658,-0.03617 10.56935,18.779649 42.924994 0 0 0.1571,-0.03876 10.56935,18.779649 42.924994 0 0 0.15813,-0.03979 10.56935,18.779649 42.924994 0 0 0.15813,-0.04237 10.56935,18.779649 42.924994 0 0 0.15916,-0.04341 10.56935,18.779649 42.924994 0 0 0.15916,-0.04599 10.56935,18.779649 42.924994 0 0 0.15969,-0.04754 10.56935,18.779649 42.924994 0 0 0.16071,-0.04909 10.56935,18.779649 42.924994 0 0 0.16071,-0.05116 10.56935,18.779649 42.924994 0 0 0.16123,-0.05323 10.56935,18.779649 42.924994 0 0 0.16175,-0.05478 10.56935,18.779649 42.924994 0 0 0.16175,-0.05633 10.56935,18.779649 42.924994 0 0 0.16226,-0.0584 10.56935,18.779649 42.924994 0 0 0.16278,-0.06046 10.56935,18.779649 42.924994 0 0 0.10284,-0.03927 12.378088,33.427117 44.440317 0 0 11.70936,-14.470433 h -9.11572 l 9.11882,-0.0052 a 12.378088,33.427117 44.440317 0 0 5.0922,-11.756903 10.56935,18.779649 42.924994 0 0 -0.009,-0.02067 10.56935,18.779649 42.924994 0 0 -0.0527,-0.111104 10.56935,18.779649 42.924994 0 0 -0.0543,-0.110072 10.56935,18.779649 42.924994 0 0 -0.0563,-0.108003 10.56935,18.779649 42.924994 0 0 -0.0579,-0.106971 10.56935,18.779649 42.924994 0 0 -0.0594,-0.105418 10.56935,18.779649 42.924994 0 0 -0.061,-0.10387 10.56935,18.779649 42.924994 0 0 -0.063,-0.10232 10.56935,18.779649 42.924994 0 0 -0.0646,-0.100769 10.56935,18.779649 42.924994 0 0 -0.0661,-0.0987 10.56935,18.779649 42.924994 0 0 -0.0682,-0.09767 10.56935,18.779649 42.924994 0 0 -0.0698,-0.09612 10.56935,18.779649 42.924994 0 0 -0.0713,-0.09457 10.56935,18.779649 42.924994 0 0 -0.0729,-0.09302 10.56935,18.779649 42.924994 0 0 -0.0744,-0.09095 10.56935,18.779649 42.924994 0 0 -0.0765,-0.08992 10.56935,18.779649 42.924994 0 0 -0.0563,-0.06356 L 96.667483,64.176364 Z" />
        <path
           id="path1515"
           style="fill:#9b632c;fill-opacity:1;stroke-width:0;stroke-dasharray:none"
           d="m 115.64358,38.797629 a 12.378088,33.427117 44.440317 0 0 -18.987466,8.85889 12.378088,33.427117 44.440317 0 0 -25.008808,35.801951 12.378088,33.427117 44.440317 0 0 25.020177,-2.733167 12.378088,33.427117 44.440317 0 0 7.947317,-6.97787 10.56935,18.779649 42.924994 0 1 -0.10283,0.03928 10.56935,18.779649 42.924994 0 1 -0.16279,0.06046 10.56935,18.779649 42.924994 0 1 -0.16226,0.0584 10.56935,18.779649 42.924994 0 1 -0.16175,0.05633 10.56935,18.779649 42.924994 0 1 -0.16174,0.05478 10.56935,18.779649 42.924994 0 1 -0.16123,0.05323 10.56935,18.779649 42.924994 0 1 -0.16072,0.05116 10.56935,18.779649 42.924994 0 1 -0.16071,0.04909 10.56935,18.779649 42.924994 0 1 -0.15968,0.04754 10.56935,18.779649 42.924994 0 1 -0.15917,0.04599 10.56935,18.779649 42.924994 0 1 -0.15916,0.04341 10.56935,18.779649 42.924994 0 1 -0.15813,0.04237 10.56935,18.779649 42.924994 0 1 -0.15813,0.03979 10.56935,18.779649 42.924994 0 1 -0.15709,0.03876 10.56935,18.779649 42.924994 0 1 -0.15658,0.03617 10.56935,18.779649 42.924994 0 1 -0.15607,0.03462 10.56935,18.779649 42.924994 0 1 -0.15554,0.03255 10.56935,18.779649 42.924994 0 1 -0.15452,0.03101 10.56935,18.779649 42.924994 0 1 -0.15451,0.02894 10.56935,18.779649 42.924994 0 1 -0.15348,0.02687 10.56935,18.779649 42.924994 0 1 -0.15244,0.02532 10.56935,18.779649 42.924994 0 1 -0.15193,0.02325 10.56935,18.779649 42.924994 0 1 -0.15141,0.02119 10.56935,18.779649 42.924994 0 1 -0.15038,0.01964 10.56935,18.779649 42.924994 0 1 -0.14986,0.01757 10.56935,18.779649 42.924994 0 1 -0.14883,0.01602 10.56935,18.779649 42.924994 0 1 -0.14831,0.01344 10.56935,18.779649 42.924994 0 1 -0.14728,0.0124 10.56935,18.779649 42.924994 0 1 -0.14625,0.0098 10.56935,18.779649 42.924994 0 1 -0.14572,0.0083 10.56935,18.779649 42.924994 0 1 -0.144696,0.0062 10.56935,18.779649 42.924994 0 1 -0.143661,0.0041 10.56935,18.779649 42.924994 0 1 -0.143144,0.0026 10.56935,18.779649 42.924994 0 1 -0.106453,5.16e-4 10.56935,18.779649 42.924994 0 1 -0.141594,-0.001 10.56935,18.779649 42.924994 0 1 -0.140042,-0.0031 10.56935,18.779649 42.924994 0 1 -0.139528,-0.0047 10.56935,18.779649 42.924994 0 1 -0.137975,-0.0067 10.56935,18.779649 42.924994 0 1 -0.137459,-0.0083 10.56935,18.779649 42.924994 0 1 -0.135908,-0.01033 10.56935,18.779649 42.924994 0 1 -0.135393,-0.0124 10.56935,18.779649 42.924994 0 1 -0.133842,-0.01447 10.56935,18.779649 42.924994 0 1 -0.133326,-0.01602 10.56935,18.779649 42.924994 0 1 -0.131776,-0.01809 10.56935,18.779649 42.924994 0 1 -0.130741,-0.02015 10.56935,18.779649 42.924994 0 1 -0.129707,-0.0217 10.56935,18.779649 42.924994 0 1 -0.128674,-0.02377 10.56935,18.779649 42.924994 0 1 -0.127125,-0.02532 10.56935,18.779649 42.924994 0 1 -0.12609,-0.0279 10.56935,18.779649 42.924994 0 1 -0.125058,-0.02894 10.56935,18.779649 42.924994 0 1 -0.124023,-0.03152 10.56935,18.779649 42.924994 0 1 -0.122473,-0.03307 10.56935,18.779649 42.924994 0 1 -0.120922,-0.03514 10.56935,18.779649 42.924994 0 1 -0.120407,-0.03669 10.56935,18.779649 42.924994 0 1 -0.118856,-0.03876 10.56935,18.779649 42.924994 0 1 -0.117306,-0.04031 10.56935,18.779649 42.924994 0 1 -0.116271,-0.04289 10.56935,18.779649 42.924994 0 1 -0.114721,-0.04393 10.56935,18.779649 42.924994 0 1 -0.113688,-0.04599 10.56935,18.779649 42.924994 0 1 -0.112139,-0.04806 10.56935,18.779649 42.924994 0 1 -0.110588,-0.04961 10.56935,18.779649 42.924994 0 1 -0.109553,-0.05168 10.56935,18.779649 42.924994 0 1 -0.108003,-0.05374 10.56935,18.779649 42.924994 0 1 -0.106455,-0.05478 10.56935,18.779649 42.924994 0 1 -0.105418,-0.05736 10.56935,18.779649 42.924994 0 1 -0.10387,-0.0584 10.56935,18.779649 42.924994 0 1 -0.10232,-0.06097 10.56935,18.779649 42.924994 0 1 -0.101285,-0.06201 10.56935,18.779649 42.924994 0 1 -0.09922,-0.0646 10.56935,18.779649 42.924994 0 1 -0.09819,-0.06563 10.56935,18.779649 42.924994 0 1 -0.09612,-0.0677 10.56935,18.779649 42.924994 0 1 -0.09508,-0.06925 10.56935,18.779649 42.924994 0 1 -0.09354,-0.07131 10.56935,18.779649 42.924994 0 1 -0.09198,-0.07286 10.56935,18.779649 42.924994 0 1 -0.09043,-0.07441 10.56935,18.779649 42.924994 0 1 -0.0894,-0.07648 10.56935,18.779649 42.924994 0 1 -0.08733,-0.07803 10.56935,18.779649 42.924994 0 1 -0.08578,-0.07958 10.56935,18.779649 42.924994 0 1 -0.08423,-0.08165 10.56935,18.779649 42.924994 0 1 -0.08268,-0.08268 10.56935,18.779649 42.924994 0 1 -0.08062,-0.08475 10.56935,18.779649 42.924994 0 1 -0.07958,-0.08682 10.56935,18.779649 42.924994 0 1 -0.07803,-0.08785 10.56935,18.779649 42.924994 0 1 -0.07596,-0.0894 10.56935,18.779649 42.924994 0 1 -0.07441,-0.09147 10.56935,18.779649 42.924994 0 1 -0.07338,-0.09302 10.56935,18.779649 42.924994 0 1 -0.07131,-0.09457 10.56935,18.779649 42.924994 0 1 -0.06925,-0.0956 10.56935,18.779649 42.924994 0 1 -0.06821,-0.09767 10.56935,18.779649 42.924994 0 1 -0.06615,-0.09922 A 10.56935,18.779649 42.924994 0 1 93.41033,71.80541 10.56935,18.779649 42.924994 0 1 93.34728,71.70309 10.56935,18.779649 42.924994 0 1 93.2863,71.59922 10.56935,18.779649 42.924994 0 1 93.22687,71.4938 10.56935,18.779649 42.924994 0 1 93.16899,71.386831 10.56935,18.779649 42.924994 0 1 93.11318,71.278826 10.56935,18.779649 42.924994 0 1 93.05892,71.168756 10.56935,18.779649 42.924994 0 1 93.00621,71.057653 10.56935,18.779649 42.924994 0 1 92.95557,70.944998 10.56935,18.779649 42.924994 0 1 92.90648,70.830791 10.56935,18.779649 42.924994 0 1 92.85894,70.715036 10.56935,18.779649 42.924994 0 1 92.81347,70.598249 10.56935,18.779649 42.924994 0 1 92.76954,70.479908 10.56935,18.779649 42.924994 0 1 92.72768,70.36002 10.56935,18.779649 42.924994 0 1 92.68737,70.239098 10.56935,18.779649 42.924994 0 1 92.64913,70.116625 10.56935,18.779649 42.924994 0 1 92.61244,69.993117 10.56935,18.779649 42.924994 0 1 92.5773,69.867543 10.56935,18.779649 42.924994 0 1 92.54423,69.741454 10.56935,18.779649 42.924994 0 1 92.51322,69.613811 10.56935,18.779649 42.924994 0 1 92.48376,69.48462 10.56935,18.779649 42.924994 0 1 92.45585,69.354397 10.56935,18.779649 42.924994 0 1 92.43001,69.223138 10.56935,18.779649 42.924994 0 1 92.40624,69.09033 10.56935,18.779649 42.924994 0 1 92.38402,68.956488 10.56935,18.779649 42.924994 0 1 92.36335,68.821611 10.56935,18.779649 42.924994 0 1 92.34475,68.685703 10.56935,18.779649 42.924994 0 1 92.32821,68.548244 10.56935,18.779649 42.924994 0 1 92.31322,68.40975 10.56935,18.779649 42.924994 0 1 92.3003,68.270225 a 10.56935,18.779649 42.924994 0 1 -0.01137,-0.141076 10.56935,18.779649 42.924994 0 1 -0.0098,-0.141594 10.56935,18.779649 42.924994 0 1 -0.0072,-0.143145 10.56935,18.779649 42.924994 0 1 -0.0057,-0.143658 10.56935,18.779649 42.924994 0 1 -0.0041,-0.145212 10.56935,18.779649 42.924994 0 1 -0.0021,-0.145727 10.56935,18.779649 42.924994 0 1 -5.16e-4,-0.147278 10.56935,18.779649 42.924994 0 1 0.0015,-0.147796 10.56935,18.779649 42.924994 0 1 0.0036,-0.148828 10.56935,18.779649 42.924994 0 1 0.0052,-0.14986 10.56935,18.779649 42.924994 0 1 0.0072,-0.150897 10.56935,18.779649 42.924994 0 1 0.0088,-0.151927 10.56935,18.779649 42.924994 0 1 0.01085,-0.152447 10.56935,18.779649 42.924994 0 1 0.0124,-0.15348 10.56935,18.779649 42.924994 0 1 0.01447,-0.153995 10.56935,18.779649 42.924994 0 1 0.01654,-0.155546 10.56935,18.779649 42.924994 0 1 0.01809,-0.155546 10.56935,18.779649 42.924994 0 1 0.01964,-0.157096 10.56935,18.779649 42.924994 0 1 0.0217,-0.157613 10.56935,18.779649 42.924994 0 1 0.02325,-0.15813 10.56935,18.779649 42.924994 0 1 0.02584,-0.159163 10.56935,18.779649 42.924994 0 1 0.02687,-0.159682 10.56935,18.779649 42.924994 0 1 0.02894,-0.160194 10.56935,18.779649 42.924994 0 1 0.031,-0.161232 10.56935,18.779649 42.924994 0 1 0.03256,-0.161748 10.56935,18.779649 42.924994 0 1 0.03411,-0.162263 10.56935,18.779649 42.924994 0 1 0.03617,-0.163298 10.56935,18.779649 42.924994 0 1 0.03772,-0.163296 10.56935,18.779649 42.924994 0 1 0.03979,-0.164333 10.56935,18.779649 42.924994 0 1 0.04186,-0.164846 10.56935,18.779649 42.924994 0 1 0.04289,-0.165364 10.56935,18.779649 42.924994 0 1 0.04547,-0.165365 10.56935,18.779649 42.924994 0 1 0.04651,-0.166399 10.56935,18.779649 42.924994 0 1 0.04858,-0.166915 10.56935,18.779649 42.924994 0 1 0.05064,-0.167431 10.56935,18.779649 42.924994 0 1 0.05168,-0.167431 10.56935,18.779649 42.924994 0 1 0.05374,-0.16795 10.56935,18.779649 42.924994 0 1 0.05581,-0.168465 10.56935,18.779649 42.924994 0 1 0.05736,-0.168981 10.56935,18.779649 42.924994 0 1 0.05891,-0.168982 10.56935,18.779649 42.924994 0 1 0.06046,-0.1695 10.56935,18.779649 42.924994 0 1 0.06253,-0.170016 10.56935,18.779649 42.924994 0 1 0.06408,-0.170013 10.56935,18.779649 42.924994 0 1 0.06563,-0.170535 10.56935,18.779649 42.924994 0 1 0.0677,-0.170532 10.56935,18.779649 42.924994 0 1 0.06925,-0.171047 10.56935,18.779649 42.924994 0 1 0.0708,-0.171051 10.56935,18.779649 42.924994 0 1 0.07234,-0.171048 10.56935,18.779649 42.924994 0 1 0.0739,-0.171566 10.56935,18.779649 42.924994 0 1 0.07596,-0.171564 10.56935,18.779649 42.924994 0 1 0.07752,-0.171566 10.56935,18.779649 42.924994 0 1 0.07855,-0.172083 10.56935,18.779649 42.924994 0 1 0.08062,-0.171566 10.56935,18.779649 42.924994 0 1 0.08217,-0.172083 10.56935,18.779649 42.924994 0 1 0.08423,-0.172082 10.56935,18.779649 42.924994 0 1 0.06356,-0.129191 10.56935,18.779649 42.924994 0 1 0.08682,-0.172082 10.56935,18.779649 42.924994 0 1 0.08785,-0.171566 10.56935,18.779649 42.924994 0 1 0.08992,-0.172083 10.56935,18.779649 42.924994 0 1 0.09095,-0.172082 10.56935,18.779649 42.924994 0 1 0.09302,-0.171566 10.56935,18.779649 42.924994 0 1 0.09405,-0.171567 10.56935,18.779649 42.924994 0 1 0.0956,-0.171564 10.56935,18.779649 42.924994 0 1 0.09715,-0.171566 10.56935,18.779649 42.924994 0 1 0.0987,-0.171051 10.56935,18.779649 42.924994 0 1 0.10025,-0.171047 10.56935,18.779649 42.924994 0 1 0.101804,-0.171051 10.56935,18.779649 42.924994 0 1 0.102836,-0.170532 10.56935,18.779649 42.924994 0 1 0.104386,-0.170532 10.56935,18.779649 42.924994 0 1 0.105936,-0.170016 10.56935,18.779649 42.924994 0 1 0.107487,-0.169497 10.56935,18.779649 42.924994 0 1 0.108522,-0.1695 10.56935,18.779649 42.924994 0 1 0.110069,-0.168981 10.56935,18.779649 42.924994 0 1 0.111623,-0.168982 10.56935,18.779649 42.924994 0 1 0.112654,-0.168465 10.56935,18.779649 42.924994 0 1 0.114205,-0.167947 10.56935,18.779649 42.924994 0 1 0.115755,-0.167434 10.56935,18.779649 42.924994 0 1 0.116789,-0.167431 10.56935,18.779649 42.924994 0 1 0.117822,-0.166396 10.56935,18.779649 42.924994 0 1 0.119372,-0.166399 10.56935,18.779649 42.924994 0 1 0.120923,-0.165365 10.56935,18.779649 42.924994 0 1 0.121441,-0.165365 10.56935,18.779649 42.924994 0 1 0.123505,-0.164848 10.56935,18.779649 42.924994 0 1 0.124023,-0.163814 10.56935,18.779649 42.924994 0 1 0.125574,-0.163814 10.56935,18.779649 42.924994 0 1 0.126608,-0.16278 10.56935,18.779649 42.924994 0 1 0.128157,-0.162266 10.56935,18.779649 42.924994 0 1 0.128674,-0.16123 10.56935,18.779649 42.924994 0 1 0.130226,-0.161229 10.56935,18.779649 42.924994 0 1 0.131775,-0.160197 10.56935,18.779649 42.924994 0 1 0.132292,-0.159681 10.56935,18.779649 42.924994 0 1 0.133324,-0.158647 10.56935,18.779649 42.924994 0 1 0.134876,-0.158131 10.56935,18.779649 42.924994 0 1 0.135393,-0.157612 10.56935,18.779649 42.924994 0 1 0.13694,-0.156581 10.56935,18.779649 42.924994 0 1 0.137462,-0.155546 10.56935,18.779649 42.924994 0 1 0.139009,-0.155027 10.56935,18.779649 42.924994 0 1 0.139526,-0.154514 10.56935,18.779649 42.924994 0 1 0.14056,-0.152961 10.56935,18.779649 42.924994 0 1 0.14211,-0.152445 10.56935,18.779649 42.924994 0 1 0.142626,-0.151413 10.56935,18.779649 42.924994 0 1 0.143145,-0.150894 10.56935,18.779649 42.924994 0 1 0.144693,-0.149347 10.56935,18.779649 42.924994 0 1 0.145214,-0.148828 10.56935,18.779649 42.924994 0 1 0.14624,-0.147794 10.56935,18.779649 42.924994 0 1 0.14728,-0.146762 10.56935,18.779649 42.924994 0 1 0.14779,-0.145727 10.56935,18.779649 42.924994 0 1 0.14883,-0.144692 10.56935,18.779649 42.924994 0 1 0.14935,-0.143661 10.56935,18.779649 42.924994 0 1 0.15037,-0.143145 10.56935,18.779649 42.924994 0 1 0.1509,-0.141592 10.56935,18.779649 42.924994 0 1 0.15193,-0.140044 10.56935,18.779649 42.924994 0 1 0.15244,-0.139525 10.56935,18.779649 42.924994 0 1 0.15348,-0.138494 10.56935,18.779649 42.924994 0 1 0.15348,-0.136943 10.56935,18.779649 42.924994 0 1 0.15503,-0.135908 10.56935,18.779649 42.924994 0 1 0.15503,-0.134877 10.56935,18.779649 42.924994 0 1 0.15606,-0.133842 10.56935,18.779649 42.924994 0 1 0.15607,-0.132292 10.56935,18.779649 42.924994 0 1 0.15709,-0.131257 10.56935,18.779649 42.924994 0 1 0.15813,-0.129709 10.56935,18.779649 42.924994 0 1 0.15813,-0.128672 10.56935,18.779649 42.924994 0 1 0.15865,-0.127125 10.56935,18.779649 42.924994 0 1 0.15916,-0.126608 10.56935,18.779649 42.924994 0 1 0.15968,-0.12454 10.56935,18.779649 42.924994 0 1 0.1602,-0.123507 10.56935,18.779649 42.924994 0 1 0.16071,-0.121954 10.56935,18.779649 42.924994 0 1 0.16123,-0.120926 10.56935,18.779649 42.924994 0 1 0.16123,-0.119372 10.56935,18.779649 42.924994 0 1 0.16227,-0.118337 10.56935,18.779649 42.924994 0 1 0.16226,-0.116274 10.56935,18.779649 42.924994 0 1 0.16278,-0.115755 10.56935,18.779649 42.924994 0 1 0.16279,-0.113686 10.56935,18.779649 42.924994 0 1 0.16329,-0.112139 10.56935,18.779649 42.924994 0 1 0.16382,-0.111104 10.56935,18.779649 42.924994 0 1 0.16381,-0.109556 10.56935,18.779649 42.924994 0 1 0.16382,-0.108002 10.56935,18.779649 42.924994 0 1 0.16484,-0.106453 10.56935,18.779649 42.924994 0 1 0.16433,-0.104905 10.56935,18.779649 42.924994 0 1 0.16485,-0.10387 10.56935,18.779649 42.924994 0 1 0.16485,-0.101801 10.56935,18.779649 42.924994 0 1 0.16536,-0.100253 10.56935,18.779649 42.924994 0 1 0.16537,-0.09922 10.56935,18.779649 42.924994 0 1 0.16536,-0.09715 10.56935,18.779649 42.924994 0 1 0.16537,-0.0956 10.56935,18.779649 42.924994 0 1 0.16536,-0.09405 10.56935,18.779649 42.924994 0 1 0.16588,-0.09302 10.56935,18.779649 42.924994 0 1 0.16537,-0.09095 10.56935,18.779649 42.924994 0 1 0.16588,-0.08888 10.56935,18.779649 42.924994 0 1 0.16537,-0.08785 10.56935,18.779649 42.924994 0 1 0.16588,-0.0863 10.56935,18.779649 42.924994 0 1 0.16536,-0.08423 10.56935,18.779649 42.924994 0 1 0.16536,-0.08268 10.56935,18.779649 42.924994 0 1 0.16537,-0.08113 10.56935,18.779649 42.924994 0 1 0.16536,-0.07906 10.56935,18.779649 42.924994 0 1 0.16537,-0.07803 10.56935,18.779649 42.924994 0 1 0.16485,-0.07596 10.56935,18.779649 42.924994 0 1 0.16484,-0.0739 10.56935,18.779649 42.924994 0 1 0.16485,-0.07286 10.56935,18.779649 42.924994 0 1 0.16433,-0.0708 10.56935,18.779649 42.924994 0 1 0.16433,-0.06873 10.56935,18.779649 42.924994 0 1 0.16382,-0.06718 10.56935,18.779649 42.924994 0 1 0.16381,-0.06563 10.56935,18.779649 42.924994 0 1 0.1633,-0.06408 10.56935,18.779649 42.924994 0 1 0.1633,-0.06201 10.56935,18.779649 42.924994 0 1 0.16278,-0.05994 10.56935,18.779649 42.924994 0 1 0.16226,-0.0584 10.56935,18.779649 42.924994 0 1 0.16175,-0.05684 10.56935,18.779649 42.924994 0 1 0.16175,-0.05478 10.56935,18.779649 42.924994 0 1 0.16123,-0.05323 10.56935,18.779649 42.924994 0 1 0.16071,-0.05116 10.56935,18.779649 42.924994 0 1 0.16071,-0.04909 10.56935,18.779649 42.924994 0 1 0.15968,-0.04754 10.56935,18.779649 42.924994 0 1 0.15969,-0.04599 10.56935,18.779649 42.924994 0 1 0.15864,-0.04392 10.56935,18.779649 42.924994 0 1 0.15865,-0.04186 10.56935,18.779649 42.924994 0 1 0.15761,-0.04031 10.56935,18.779649 42.924994 0 1 0.1571,-0.03824 10.56935,18.779649 42.924994 0 1 0.15709,-0.03617 10.56935,18.779649 42.924994 0 1 0.15607,-0.03462 10.56935,18.779649 42.924994 0 1 0.15503,-0.03307 10.56935,18.779649 42.924994 0 1 0.15503,-0.03049 10.56935,18.779649 42.924994 0 1 0.15399,-0.02946 10.56935,18.779649 42.924994 0 1 0.15348,-0.02687 10.56935,18.779649 42.924994 0 1 0.15296,-0.02532 10.56935,18.779649 42.924994 0 1 0.15193,-0.02325 10.56935,18.779649 42.924994 0 1 0.15141,-0.02119 10.56935,18.779649 42.924994 0 1 0.15038,-0.01963 10.56935,18.779649 42.924994 0 1 0.14986,-0.01757 10.56935,18.779649 42.924994 0 1 0.14883,-0.01602 10.56935,18.779649 42.924994 0 1 0.14831,-0.01395 10.56935,18.779649 42.924994 0 1 0.14728,-0.01188 10.56935,18.779649 42.924994 0 1 0.14624,-0.0098 10.56935,18.779649 42.924994 0 1 0.14573,-0.0083 10.56935,18.779649 42.924994 0 1 0.1447,-0.0062 10.56935,18.779649 42.924994 0 1 0.14366,-0.0047 10.56935,18.779649 42.924994 0 1 0.14314,-0.0021 10.56935,18.779649 42.924994 0 1 0.10645,-10e-4 10.56935,18.779649 42.924994 0 1 0.1416,10e-4 10.56935,18.779649 42.924994 0 1 0.14004,0.0031 10.56935,18.779649 42.924994 0 1 0.13953,0.0047 10.56935,18.779649 42.924994 0 1 0.13797,0.0062 10.56935,18.779649 42.924994 0 1 0.13746,0.0088 10.56935,18.779649 42.924994 0 1 0.13643,0.01033 10.56935,18.779649 42.924994 0 1 0.13487,0.0124 10.56935,18.779649 42.924994 0 1 0.13436,0.01395 10.56935,18.779649 42.924994 0 1 0.13281,0.01654 10.56935,18.779649 42.924994 0 1 0.13229,0.01757 10.56935,18.779649 42.924994 0 1 0.13074,0.02016 10.56935,18.779649 42.924994 0 1 0.12971,0.0217 10.56935,18.779649 42.924994 0 1 0.12816,0.02377 10.56935,18.779649 42.924994 0 1 0.12764,0.02532 10.56935,18.779649 42.924994 0 1 0.12609,0.0279 10.56935,18.779649 42.924994 0 1 0.12506,0.02894 10.56935,18.779649 42.924994 0 1 0.1235,0.03152 10.56935,18.779649 42.924994 0 1 0.12299,0.03307 10.56935,18.779649 42.924994 0 1 0.12093,0.03462 10.56935,18.779649 42.924994 0 1 0.1204,0.03721 10.56935,18.779649 42.924994 0 1 0.11834,0.03824 10.56935,18.779649 42.924994 0 1 0.11782,0.04082 10.56935,18.779649 42.924994 0 1 0.11628,0.04238 10.56935,18.779649 42.924994 0 1 0.11472,0.04392 10.56935,18.779649 42.924994 0 1 0.11369,0.04651 10.56935,18.779649 42.924994 0 1 0.11213,0.04754 10.56935,18.779649 42.924994 0 1 0.11059,0.04961 10.56935,18.779649 42.924994 0 1 0.10956,0.05168 10.56935,18.779649 42.924994 0 1 0.108,0.05323 10.56935,18.779649 42.924994 0 1 0.10697,0.05529 10.56935,18.779649 42.924994 0 1 0.10542,0.05684 10.56935,18.779649 42.924994 0 1 0.10387,0.05891 10.56935,18.779649 42.924994 0 1 0.10232,0.06046 10.56935,18.779649 42.924994 0 1 0.10077,0.06253 10.56935,18.779649 42.924994 0 1 0.0997,0.06408 10.56935,18.779649 42.924994 0 1 0.0977,0.06563 10.56935,18.779649 42.924994 0 1 0.0966,0.0677 10.56935,18.779649 42.924994 0 1 0.0951,0.06976 10.56935,18.779649 42.924994 0 1 0.0935,0.0708 10.56935,18.779649 42.924994 0 1 0.092,0.07286 10.56935,18.779649 42.924994 0 1 0.091,0.07441 10.56935,18.779649 42.924994 0 1 0.0889,0.07648 10.56935,18.779649 42.924994 0 1 0.0873,0.07803 10.56935,18.779649 42.924994 0 1 0.0858,0.07958 10.56935,18.779649 42.924994 0 1 0.0842,0.08113 10.56935,18.779649 42.924994 0 1 0.0827,0.0832 10.56935,18.779649 42.924994 0 1 0.0811,0.08475 10.56935,18.779649 42.924994 0 1 0.0796,0.0863 10.56935,18.779649 42.924994 0 1 0.0176,0.01964 l 1.30018,-1.001487 a 12.378088,33.427117 44.440317 0 0 -6.0384,-6.117458 z" />
      </g>
      <path
         id="path1519"
         style="fill:#c3762b;fill-opacity:1;stroke-width:0;stroke-dasharray:none"
         d="m 62.762116,122.65741 a 8.8190682,8.3985774 67.000132 0 0 -7.696442,1.91353 L 14.822876,148.23962 31.25452,144.57154 14.818535,158.1524 35.860233,150.06397 23.393139,166.44504 62.936576,139.6921 a 8.8190682,8.3985774 67.000132 0 0 6.20081,-6.26741 l -4.58971,-1.28067 -0.002,-0.002 4.59229,1.27872 a 8.8190682,8.3985774 67.000132 0 0 -6.30963,-10.74472 8.8190682,8.3985774 67.000132 0 0 -0.0665,-0.0186 z" />
      <g
         id="g1531"
         transform="translate(-44.271864,80.422855)">
        <g
           id="g1527">
          <path
             sodipodi:type="star"
             style="fill:#ffcc00;fill-opacity:1;stroke-width:0;stroke-dasharray:none"
             id="path1521"
             sodipodi:sides="3"
             sodipodi:cx="132.42259"
             sodipodi:cy="37.11174"
             sodipodi:r1="4.5877528"
             sodipodi:r2="2.2938764"
             sodipodi:arg1="-0.038123592"
             sodipodi:arg2="1.009074"
             inkscape:flatsided="true"
             inkscape:rounded="0"
             inkscape:randomized="0"
             d="m 137.00701,36.936881 -6.72519,4.232512 -0.30287,-7.940447 z"
             inkscape:transform-center-x="-1.0703869"
             inkscape:transform-center-y="0.08742916" />
          <circle
             style="fill:#4b777a;fill-opacity:1;stroke-width:0;stroke-dasharray:none"
             id="circle1523"
             sodipodi:type="arc"
             sodipodi:cx="123.77784"
             sodipodi:cy="37.133354"
             sodipodi:rx="8.6448021"
             sodipodi:ry="6.4836016"
             sodipodi:start="0"
             sodipodi:end="6.2789393"
             sodipodi:arc-type="arc"
             d="m 132.42264,37.133354 a 8.6448021,6.4836016 0 0 1 -8.63562,6.483598 8.6448021,6.4836016 0 0 1 -8.65396,-6.469833 8.6448021,6.4836016 0 0 1 8.61725,-6.497334 8.6448021,6.4836016 0 0 1 8.67225,6.45604"
             sodipodi:open="true" />
          <circle
             style="fill:#f0f7f8;fill-opacity:1;stroke-width:0;stroke-dasharray:none"
             id="circle1525"
             sodipodi:type="arc"
             sodipodi:cx="128.16574"
             sodipodi:cy="34.972153"
             sodipodi:rx="1.3753095"
             sodipodi:ry="1.0478548"
             sodipodi:start="0"
             sodipodi:end="6.2827141"
             sodipodi:arc-type="slice"
             d="m 129.54105,34.972153 a 1.3753095,1.0478548 0 0 1 -1.37515,1.047854 1.3753095,1.0478548 0 0 1 -1.37547,-1.047607 1.3753095,1.0478548 0 0 1 1.37482,-1.048102 1.3753095,1.0478548 0 0 1 1.3758,1.047361 l -1.37531,4.94e-4 z" />
        </g>
        <circle
           style="fill:#000000;fill-opacity:1;stroke-width:0;stroke-dasharray:none"
           id="circle1529"
           sodipodi:type="arc"
           sodipodi:cx="128.16574"
           sodipodi:cy="34.972153"
           sodipodi:rx="2.1284263"
           sodipodi:ry="1.0697938"
           sodipodi:start="0"
           sodipodi:end="6.2798517"
           sodipodi:arc-type="slice"
           d="m 130.29417,34.972153 a 2.1284263,1.0697938 0 0 1 -2.12666,1.069793 2.1284263,1.0697938 0 0 1 -2.13019,-1.06801 2.1284263,1.0697938 0 0 1 2.1231,-1.071574 2.1284263,1.0697938 0 0 1 2.13374,1.066224 l -2.12842,0.0036 z" />
      </g>
      <g
         id="g1537"
         transform="translate(-37.067863,72.95689)">
        <rect
           style="fill:#ffcc00;fill-opacity:1;fill-rule:evenodd;stroke-width:0.264583"
           id="rect1533"
           width="2.2266915"
           height="20.695131"
           x="88.41275"
           y="83.697403"
           ry="0.85349554" />
        <rect
           style="fill:#ffcc00;fill-opacity:1;fill-rule:evenodd;stroke-width:0.264583"
           id="rect1535"
           width="5.8941803"
           height="1.440801"
           x="87.037445"
           y="103.80311"
           ry="0.72040051" />
      </g>
    </g>
  </g>
</svg>
