<?xml version="1.0" encoding="UTF-8" standalone="no"?>
<svg
   xmlns:dc="http://purl.org/dc/elements/1.1/"
   xmlns:cc="http://creativecommons.org/ns#"
   xmlns:rdf="http://www.w3.org/1999/02/22-rdf-syntax-ns#"
   xmlns:svg="http://www.w3.org/2000/svg"
   xmlns="http://www.w3.org/2000/svg"
   xmlns:sodipodi="http://sodipodi.sourceforge.net/DTD/sodipodi-0.dtd"
   xmlns:inkscape="http://www.inkscape.org/namespaces/inkscape"
   width="210mm"
   height="297mm"
   viewBox="0 0 210 297"
   version="1.1"
   id="svg8"
   inkscape:version="1.0.2-2 (e86c870879, 2021-01-15)"
   sodipodi:docname="wind.svg">
  <defs
     id="defs2" />
  <sodipodi:namedview
     id="base"
     pagecolor="#ffffff"
     bordercolor="#666666"
     borderopacity="1.0"
     inkscape:pageopacity="0.0"
     inkscape:pageshadow="2"
     inkscape:zoom="2.5"
     inkscape:cx="392.75351"
     inkscape:cy="512"
     inkscape:document-units="mm"
     inkscape:current-layer="layer1"
     inkscape:document-rotation="0"
     showgrid="false"
     inkscape:window-width="1920"
     inkscape:window-height="1017"
     inkscape:window-x="-8"
     inkscape:window-y="-8"
     inkscape:window-maximized="1" />
  <metadata
     id="metadata5">
    <rdf:RDF>
      <cc:Work
         rdf:about="">
        <dc:format>image/svg+xml</dc:format>
        <dc:type
           rdf:resource="http://purl.org/dc/dcmitype/StillImage" />
        <dc:title></dc:title>
      </cc:Work>
    </rdf:RDF>
  </metadata>
  <g
     inkscape:label="Layer 1"
     inkscape:groupmode="layer"
     id="layer1">
    <path
       id="path10"
       style="fill:none;stroke:#000000;stroke-width:0.264583px;stroke-linecap:butt;stroke-linejoin:miter;stroke-opacity:1"
       d="m 69.558955,135.46666 c -2.613327,-3.20727 -3.307715,3.61939 0.586718,3.59472 1.291674,-0.67806 1.981694,-1.2632 1.974676,-2.90326 -0.103284,-2.45491 -2.685631,-4.41312 -5.067979,-4.05301 -1.945983,0.51152 -2.687161,2.87023 -2.288802,4.66553 0.916242,3.07288 2.302439,4.09313 4.979224,4.78521 2.792,0.81425 5.978279,0.27127 8.248576,-1.57783 2.631563,-1.57746 5.950133,-1.07482 8.624689,0.12344 1.512462,0.58597 2.859285,1.61412 4.452508,1.96788 1.714529,0.18242 3.479833,-0.7611 4.313719,-2.26357"
       sodipodi:nodetypes="cccccccccc"
       inkscape:export-filename="D:\github\personal-page\images\wind.png"
       inkscape:export-xdpi="217.383"
       inkscape:export-ydpi="217.383" />
    <path
       id="path41"
       style="fill:none;stroke:#000000;stroke-width:0.264583px;stroke-linecap:butt;stroke-linejoin:miter;stroke-opacity:1"
       d="m 69.558954,146.05 c -2.613326,-3.20727 -3.307715,3.61939 0.586719,3.59472 1.291674,-0.67806 1.981694,-1.2632 1.974676,-2.90326 -0.103284,-2.45491 -2.685631,-4.41312 -5.067979,-4.05301 -1.945983,0.51152 -2.687161,2.87023 -2.288802,4.66553 0.916242,3.07288 2.302439,4.09313 4.979224,4.78521 2.792,0.81425 5.978279,0.27127 8.248576,-1.57783 2.631563,-1.57746 5.950133,-1.07482 8.624689,0.12344 1.512462,0.58597 2.859285,1.61412 4.452508,1.96788 1.714529,0.18242 3.479833,-0.7611 4.313719,-2.26357"
       sodipodi:nodetypes="cccccccccc"
       inkscape:export-filename="D:\github\personal-page\images\wind.png"
       inkscape:export-xdpi="217.383"
       inkscape:export-ydpi="217.383" />
    <path
       id="path43"
       style="fill:none;stroke:#000000;stroke-width:0.264583px;stroke-linecap:butt;stroke-linejoin:miter;stroke-opacity:1"
       d="m 69.558954,124.88333 c -2.613327,-3.20727 -3.307715,3.61939 0.586719,3.59472 1.291674,-0.67806 1.981694,-1.2632 1.974676,-2.90326 -0.103284,-2.45491 -2.685631,-4.41312 -5.067979,-4.05301 -1.945983,0.51152 -2.687161,2.87023 -2.288802,4.66553 0.916242,3.07288 2.302439,4.09313 4.979224,4.78521 2.792,0.81425 5.978279,0.27127 8.248576,-1.57783 2.631563,-1.57746 5.950133,-1.07482 8.624689,0.12344 1.512462,0.58597 2.859285,1.61412 4.452508,1.96788 1.714529,0.18242 3.479833,-0.7611 4.313719,-2.26357"
       sodipodi:nodetypes="cccccccccc"
       inkscape:export-filename="D:\github\personal-page\images\wind.png"
       inkscape:export-xdpi="217.383"
       inkscape:export-ydpi="217.383" />
  </g>
</svg>
